<?xml version="1.0" encoding="utf-8"?>
<!-- Generator: Adobe Illustrator 24.3.0, SVG Export Plug-In . SVG Version: 6.00 Build 0)  -->
<svg version="1.1" id="Layer_1" xmlns="http://www.w3.org/2000/svg" xmlns:xlink="http://www.w3.org/1999/xlink" x="0px" y="0px"
	 viewBox="0 0 432 432" style="enable-background:new 0 0 432 432;" xml:space="preserve">
<style type="text/css">
	.st0{fill:#231F20;}
	.st1{fill:#24B24B;}
	.st2{fill:#FFFFFF;}
</style>
<g>
	<g>
		<path class="st0" d="M165.4,234.33l-12.12-16.02l-3.12,3.72v12.3h-8.52v-40.02h8.52v17.88l14.16-17.88h10.5l-15.9,18.78
			l16.98,21.24H165.4z"/>
		<path class="st0" d="M179.51,223.99c2.53,2.64,6.54,4.18,10.12,4.18c4.45,0,6.93-1.92,6.93-4.73c0-2.97-2.25-4.34-7.37-4.34
			c-1.54,0-4.01,0-4.56,0.06v-6.82c0.66,0.06,3.13,0.06,4.56,0.06c4.07,0,6.76-1.32,6.76-4.07c0-2.91-2.97-4.4-6.82-4.4
			c-3.57,0-6.76,1.38-9.35,3.85l-3.85-4.84c2.97-3.35,7.59-5.83,14.02-5.83c8.58,0,13.86,3.85,13.86,9.95
			c0,4.62-3.96,7.64-8.03,8.36c3.74,0.38,8.58,3.3,8.58,8.8c0,6.32-5.66,10.78-14.46,10.78c-6.76,0-11.77-2.58-14.46-5.88
			L179.51,223.99z"/>
		<path class="st0" d="M210.42,223.99c2.53,2.64,6.54,4.18,10.12,4.18c4.45,0,6.93-1.92,6.93-4.73c0-2.97-2.25-4.34-7.37-4.34
			c-1.54,0-4.02,0-4.56,0.06v-6.82c0.66,0.06,3.13,0.06,4.56,0.06c4.07,0,6.76-1.32,6.76-4.07c0-2.91-2.97-4.4-6.82-4.4
			c-3.57,0-6.76,1.38-9.35,3.85l-3.85-4.84c2.97-3.35,7.59-5.83,14.02-5.83c8.58,0,13.86,3.85,13.86,9.95
			c0,4.62-3.96,7.64-8.03,8.36c3.74,0.38,8.58,3.3,8.58,8.8c0,6.32-5.67,10.78-14.46,10.78c-6.76,0-11.77-2.58-14.46-5.88
			L210.42,223.99z"/>
		<path class="st0" d="M249.32,222.21c2.82,2.94,7.2,5.4,12.72,5.4c4.68,0,6.96-2.22,6.96-4.5c0-3-3.48-4.02-8.1-5.1
			c-6.54-1.5-14.94-3.3-14.94-12.24c0-6.66,5.76-12.06,15.18-12.06c6.36,0,11.64,1.92,15.6,5.58l-4.74,6.24
			c-3.24-3-7.56-4.38-11.46-4.38c-3.84,0-5.88,1.68-5.88,4.08c0,2.7,3.36,3.54,7.98,4.62c6.6,1.5,15,3.48,15,12.36
			c0,7.32-5.22,12.84-16.02,12.84c-7.68,0-13.2-2.58-16.98-6.36L249.32,222.21z"/>
		<path class="st0" d="M282.56,227.13v-15.12h-4.8v-6.66h4.8v-7.92h7.68v7.92h5.88v6.66h-5.88v13.08c0,1.8,0.96,3.18,2.64,3.18
			c1.14,0,2.22-0.42,2.64-0.84l1.62,5.76c-1.14,1.02-3.18,1.86-6.36,1.86C285.44,235.05,282.56,232.29,282.56,227.13z"/>
		<path class="st0" d="M299.84,234.33v-28.98h7.62v3.96c2.04-2.58,5.64-4.62,9.24-4.62v7.44c-0.54-0.12-1.26-0.18-2.1-0.18
			c-2.52,0-5.88,1.38-7.14,3.24v19.14H299.84z"/>
		<path class="st0" d="M333.08,204.63c8.64,0,14.52,6.48,14.52,15.96v1.68h-21.54c0.48,3.66,3.42,6.72,8.34,6.72
			c2.7,0,5.88-1.08,7.74-2.88l3.36,4.92c-2.94,2.7-7.44,4.02-11.94,4.02c-8.82,0-15.48-5.94-15.48-15.24
			C318.08,211.41,324.26,204.63,333.08,204.63z M325.94,217.11h14.28c-0.18-2.76-2.1-6.42-7.14-6.42
			C328.34,210.69,326.3,214.23,325.94,217.11z"/>
		<path class="st0" d="M364.76,204.63c8.64,0,14.52,6.48,14.52,15.96v1.68h-21.54c0.48,3.66,3.42,6.72,8.34,6.72
			c2.7,0,5.88-1.08,7.74-2.88l3.36,4.92c-2.94,2.7-7.44,4.02-11.94,4.02c-8.82,0-15.48-5.94-15.48-15.24
			C349.76,211.41,355.94,204.63,364.76,204.63z M357.62,217.11h14.28c-0.18-2.76-2.1-6.42-7.14-6.42
			C360.02,210.69,357.98,214.23,357.62,217.11z"/>
		<path class="st0" d="M384.8,227.13v-15.12H380v-6.66h4.8v-7.92h7.68v7.92h5.88v6.66h-5.88v13.08c0,1.8,0.96,3.18,2.64,3.18
			c1.14,0,2.22-0.42,2.64-0.84l1.62,5.76c-1.14,1.02-3.18,1.86-6.36,1.86C387.68,235.05,384.8,232.29,384.8,227.13z"/>
	</g>
	<g>
		<g>
			<g>
				<g>
					<path class="st1" d="M33.28,207.72c0,0,4.5,1.61,8.2,0.16c0.17-0.07,0.31-0.17,0.44-0.3c2.18-2.18,4.62,0.14,5.04,0.97
						c0.17,0.33,0.2,0.61-0.39,0.79C44.24,210.02,35.69,211.21,33.28,207.72z"/>
				</g>
				<g>
					<path class="st1" d="M37.08,207.37l4.41-0.07c0.1,0,0.19-0.06,0.23-0.14c0.2-0.4,0.93-1.53,2.59-1.13
						c1.64,0.39,2.74,2.03,3.09,2.62c0.07,0.12,0.23,0.17,0.35,0.1c0.69-0.39,2.79-1.77,3.11-5.54c0.02-0.23,2.25,0.33,0.26,3.85
						c-0.13,0.23,0.11,0.48,0.34,0.37l1.52-0.74c0.02-0.01,0.03-0.01,0.05-0.02c0.28-0.07,2.94-0.65,2.87,3.16
						c0,0.17,0.14,0.3,0.3,0.27c0.64-0.1,2.06-0.36,2.22-0.77c0.2-0.53,0.48-9.05,1.29-13.06c0.69-3.46-0.29-4.45-1.68-4.6
						c-0.24-0.03-0.16-0.43,0.07-0.49c0.48-0.11,1.08-0.06,1.45,0.11c0.68,0.31,1.79,1.42,0.69,7.19c-1.15,6.01-0.8,9.26-0.72,10.29
						c0.01,0.18,0.21,0.3,0.37,0.22c1.6-0.77,8.46-4.13,10.31-6.56c2.03-2.67,4.88-3.79,5.56-4.02c0.09-0.03,0.16-0.11,0.17-0.2
						c0.15-0.85,0.92-4.99,1.61-5.69c0.02-0.03,0.04-0.05,0.06-0.08c0.85-2.03,1.57-11.99-8.86-12.65c-0.01,0-0.03,0-0.04,0
						c-8.29,0.5-10.57,2.47-11.03,2.98c-0.06,0.07-0.16,0.1-0.25,0.08c-1.29-0.33-10.14-2.06-14.97,10.39
						c-3.66,8.06-5.21,12.59-5.61,13.82C36.77,207.2,36.9,207.37,37.08,207.37z"/>
				</g>
				<g>
					<path class="st1" d="M23.95,211.66c0,0,10.05,2.4,12.22-1.27c0.34-0.57,5.7,1.26,9.48-0.49c0,0-0.13,9.83,0.11,11.67
						c0.28,2.07-1.51,11.66-1.05,15.65c0.36,0.34,0.83,0.03,1.17-0.65c0.36-0.71,1.33-0.85,1.91-0.3c0.39,0.37,0.61,0.78,0.59,1.86
						c-0.2,2.79-4.78,6.32-7.27-0.29c-0.49-1.31-0.71-2.71-0.68-4.11c0.09-3.89,0.39-7.37-0.43-10.75
						c-0.92-3.76-2.89-5.72-3.61-9.07c-0.04-0.19-0.21-0.39-0.41-0.35C34.68,213.87,28.86,215.62,23.95,211.66z"/>
				</g>
				<g>
					<path class="st1" d="M49.16,246.23c-0.11,0.04-0.18,0.13-0.2,0.24c-0.06,0.34,0.07,1.13,1.74,2.28
						c2.29,1.57,5.23,3.82,6.63,3.18c1.41-0.63,0.95-6.68,2.66-8.89c0-0.01,5.88-10.3,12.44-11.9c0.01,0,0.02-0.01,0.03-0.01
						c2.7-1.29,4.82-2.33,6.87-21.55c0.1-0.8,1.12-1.18,0.98,0.67c-0.18,2.25-0.3,9.19-2.86,16.13c-1.45,3.95-3.84,5.08-4.68,5.36
						c-0.16,0.05-0.24,0.24-0.17,0.4l6.2,14.38c0.02,0.04,0.02,0.08,0.02,0.12c0,0.19-0.02,0.78-0.18,1.27
						c-0.21,0.62-1.81,2.56-2.37,3.21c-0.11,0.13-0.09,0.32,0.05,0.42c0.4,0.28,1.33,0.76,3.05,0.72c2.15-0.05,6.54-0.12,7.52-0.14
						c0.13,0,0.24-0.09,0.27-0.21c0.07-0.3,0.08-0.91-0.61-1.69c-0.91-1.02-1.7-1.93-2.02-2.61c-0.4-0.85-4.72-16.8-3.86-24.53
						c0.02-0.22,0.28-0.34,0.46-0.21c1.54,1.09,7.61,4.82,18.72,5.2c0.08,0,0.72,0.31,1.16,0.48c1.53,0.61,0.79,0.79,0.4-0.91
						c-0.1-0.42-0.18-0.7-0.15-1.26c0.12-4-0.06-6.59-0.04-7.36c0.01-0.14,0.49-0.64,0.7,0.02c0.34,1.06-0.38,7.71,1.61,11.49
						c0.02,0.05,0.04,0.1,0.04,0.15c-0.83,7.58-3.18,16-3.18,16c-0.11,0.4-0.3,0.76-0.56,1.08l-2.75,3.33
						c-0.28,0.34-0.09,0.86,0.34,0.94c0.62,0.12,1.68,0.23,3.46,0.23l5.65-0.16c0.65-0.06,1.15-0.61,1.14-1.26
						c-0.01-0.41-0.08-0.96-0.25-1.68c-0.57-2.37-0.69-7.47,2.08-12.66c2.62-4.9,6.89-14.25,7.35-15.26
						c0.03-0.06,0.06-0.12,0.09-0.17c0.4-0.71,3.24-5.7,4.22-8.32c0.26-0.7,1.12-0.95,1.7-0.49c2.27,1.77,6.31,7.28,8.11,12.14
						c0.02,0.06,0.02,0.13,0,0.19c-0.29,0.82-2.16,6.69,3.87,6.7c0.25,0,0.38-0.29,0.22-0.48c-0.77-0.91-2.38-3.17-3.2-7
						c0-0.01,0-0.02-0.01-0.03c-0.9-2.62-3.84-9.82-8.86-15.13c-0.59-0.62-4.57-18.86-23.92-19.8c-9.46,0-11.85,0.64-12.45,0.96
						c-0.23,0.12-0.47,0.2-0.73,0.21c-1.16,0.05-4,0.02-6.38-1.2c-0.38-0.2-0.84,0.08-0.83,0.51c0.01,1.22-0.01,3.15-0.22,3.42
						c-0.18,0.24-1.22,3.54-1.59,5.31c-0.12,0.57-0.44,1.08-0.92,1.42c-1.4,0.97-2.96,1.07-3.82,1.89
						c-0.62,0.6-2.18,4.43-10.93,8.25c-0.35,0.15-0.47,0.61-0.23,0.91c0.52,0.67,1.41,1.74,2.24,2.45c0.62,0.53,1,1.29,1.01,2.11
						c0.05,3.52-1.07,11.37-5.34,17.05c-3,4-4.47,8.46-4.74,10.47c-0.13,0.96-0.84,2.12-1.71,2.54c-0.01,0.01-0.03,0.01-0.04,0.02
						L49.16,246.23z"/>
				</g>
				<g>
					<path class="st1" d="M110.69,235.48c0,0,3.55-4.38,6.07-12.73c0,0,0.31-0.56,0.76,0s-0.8,9.23,0.71,10.95
						c1.51,1.71,4.74,5.5,10.53,6.45c1.55,0.92,0.77,6.41-3.25,10.68c0,0-0.31,0.77-1.67-2.08c-0.97-2.03-6.11-4.83-8.64-9.42
						C113.94,237.45,110.69,235.48,110.69,235.48z"/>
				</g>
			</g>
			<path class="st2" d="M48.39,197.56c0,0-0.21-2.03,1.39-2.09c0.17-0.01,0.33,0.12,0.35,0.29c0.11,0.8-0.26,0.91-0.65,1.22
				C49.08,197.3,48.67,197.57,48.39,197.56z"/>
		</g>
	</g>
</g>
<g>
	<g>
		<g>
			<g>
				<path class="st1" d="M-418.4,191.07c0,0,5.4,1.93,9.84,0.2c0.2-0.08,0.37-0.21,0.53-0.36c2.62-2.62,5.55,0.17,6.05,1.17
					c0.2,0.39,0.24,0.74-0.47,0.95C-405.26,193.84-415.51,195.26-418.4,191.07z"/>
			</g>
			<g>
				<path class="st1" d="M-413.85,190.66l5.29-0.08c0.12,0,0.22-0.07,0.28-0.17c0.24-0.49,1.12-1.83,3.11-1.36
					c1.97,0.47,3.29,2.43,3.71,3.14c0.09,0.15,0.27,0.2,0.42,0.11c0.82-0.47,3.35-2.12,3.73-6.65c0.02-0.27,2.69,0.4,0.31,4.62
					c-0.15,0.27,0.13,0.58,0.41,0.44l1.83-0.89c0.02-0.01,0.04-0.02,0.06-0.02c0.34-0.09,3.53-0.78,3.44,3.79
					c0,0.2,0.17,0.36,0.36,0.33c0.77-0.12,2.47-0.44,2.66-0.93c0.24-0.64,0.58-10.86,1.54-15.68c0.83-4.16-0.34-5.34-2.02-5.52
					c-0.29-0.03-0.19-0.52,0.09-0.58c0.57-0.14,1.3-0.07,1.74,0.13c0.82,0.38,2.14,1.7,0.82,8.62c-1.38,7.22-0.96,11.12-0.86,12.35
					c0.02,0.22,0.25,0.36,0.45,0.26c1.92-0.92,10.16-4.96,12.37-7.88c2.43-3.21,5.86-4.54,6.67-4.83c0.11-0.04,0.19-0.13,0.21-0.24
					c0.18-1.02,1.11-5.99,1.93-6.83c0.03-0.03,0.05-0.06,0.07-0.1c1.02-2.44,1.88-14.39-10.63-15.18c-0.01,0-0.03,0-0.05,0
					c-9.95,0.6-12.69,2.97-13.24,3.58c-0.08,0.09-0.19,0.12-0.31,0.09c-1.55-0.39-12.17-2.47-17.97,12.46
					c-4.4,9.67-6.25,15.11-6.73,16.58C-414.23,190.45-414.07,190.66-413.85,190.66z"/>
			</g>
			<g>
				<path class="st1" d="M-429.61,195.81c0,0,12.05,2.89,14.67-1.53c0.4-0.68,6.84,1.51,11.38-0.59c0,0-0.16,11.8,0.14,14.01
					c0.33,2.49-1.81,14-1.26,18.78c0.43,0.4,0.99,0.03,1.41-0.78c0.44-0.85,1.6-1.02,2.3-0.36c0.47,0.45,0.73,0.94,0.71,2.23
					c-0.24,3.35-5.73,7.59-8.73-0.35c-0.59-1.57-0.85-3.25-0.82-4.93c0.11-4.67,0.47-8.84-0.52-12.9c-1.1-4.52-3.46-6.87-4.34-10.89
					c-0.05-0.23-0.26-0.47-0.49-0.42C-416.73,198.45-423.71,200.56-429.61,195.81z"/>
			</g>
			<g>
				<path class="st1" d="M-399.35,237.29c-0.13,0.04-0.22,0.15-0.24,0.28c-0.07,0.41,0.08,1.36,2.09,2.74
					c2.74,1.89,6.27,4.58,7.96,3.82c1.69-0.76,1.14-8.02,3.19-10.67c0.01-0.01,7.05-12.37,14.93-14.28c0.01,0,0.03-0.01,0.04-0.01
					c3.24-1.55,5.79-2.8,8.25-25.86c0.11-0.96,1.35-1.41,1.18,0.8c-0.21,2.7-0.36,11.03-3.43,19.35c-1.74,4.74-4.6,6.09-5.61,6.43
					c-0.19,0.07-0.29,0.29-0.21,0.47l7.44,17.26c0.02,0.05,0.03,0.09,0.03,0.14c0,0.23-0.02,0.93-0.22,1.52
					c-0.25,0.75-2.18,3.07-2.84,3.85c-0.13,0.16-0.11,0.38,0.06,0.5c0.48,0.34,1.6,0.91,3.66,0.86c2.58-0.07,7.85-0.15,9.03-0.17
					c0.15,0,0.29-0.1,0.33-0.25c0.09-0.36,0.1-1.1-0.73-2.03c-1.09-1.23-2.04-2.32-2.42-3.13c-0.48-1.02-5.66-20.16-4.64-29.44
					c0.03-0.27,0.33-0.41,0.55-0.25c1.85,1.3,9.14,5.79,22.46,6.24c0.1,0,0.87,0.37,1.39,0.58c1.83,0.73,0.95,0.95,0.47-1.09
					c-0.12-0.51-0.22-0.85-0.18-1.51c0.15-4.8-0.07-7.91-0.05-8.84c0.01-0.17,0.59-0.77,0.84,0.02c0.41,1.27-0.45,9.26,1.93,13.79
					c0.03,0.05,0.04,0.12,0.04,0.18c-1,9.1-3.82,19.21-3.82,19.21c-0.13,0.47-0.36,0.92-0.67,1.29l-3.3,4
					c-0.34,0.41-0.11,1.03,0.41,1.13c0.75,0.14,2.01,0.28,4.15,0.28l6.78-0.19c0.78-0.07,1.38-0.73,1.37-1.51
					c-0.01-0.49-0.09-1.15-0.3-2.02c-0.69-2.84-0.83-8.97,2.5-15.19c3.15-5.88,8.27-17.1,8.82-18.31c0.03-0.07,0.07-0.14,0.11-0.21
					c0.49-0.85,3.89-6.84,5.07-9.98c0.31-0.84,1.34-1.14,2.05-0.59c2.72,2.12,7.57,8.74,9.74,14.57c0.03,0.08,0.03,0.16,0,0.23
					c-0.35,0.98-2.59,8.03,4.65,8.04c0.3,0,0.46-0.35,0.27-0.58c-0.92-1.09-2.86-3.8-3.85-8.4c0-0.01-0.01-0.02-0.01-0.03
					c-1.08-3.15-4.61-11.78-10.63-18.16c-0.71-0.75-5.49-22.64-28.71-23.76c-11.35,0-14.22,0.77-14.94,1.16
					c-0.27,0.15-0.57,0.24-0.88,0.26c-1.39,0.06-4.79,0.02-7.66-1.44c-0.46-0.23-1,0.1-1,0.62c0.01,1.47-0.02,3.78-0.26,4.11
					c-0.22,0.29-1.46,4.25-1.91,6.37c-0.14,0.68-0.53,1.3-1.1,1.7c-1.68,1.16-3.56,1.29-4.58,2.27c-0.75,0.72-2.62,5.32-13.11,9.9
					c-0.43,0.19-0.56,0.73-0.27,1.09c0.63,0.8,1.7,2.09,2.69,2.94c0.75,0.64,1.2,1.55,1.21,2.54c0.06,4.23-1.29,13.64-6.41,20.46
					c-3.6,4.8-5.37,10.16-5.69,12.56c-0.16,1.15-1.01,2.55-2.06,3.05c-0.02,0.01-0.03,0.01-0.05,0.02L-399.35,237.29z"/>
			</g>
			<g>
				<path class="st1" d="M-325.51,224.39c0,0,4.27-5.26,7.29-15.28c0,0,0.37-0.68,0.91,0s-0.96,11.08,0.85,13.14
					c1.81,2.06,5.69,6.6,12.64,7.74c1.86,1.1,0.92,7.69-3.9,12.81c0,0-0.37,0.92-2-2.49c-1.16-2.43-7.33-5.8-10.37-11.3
					C-321.6,226.76-325.51,224.39-325.51,224.39z"/>
			</g>
		</g>
		<path class="st2" d="M-400.28,178.88c0,0-0.25-2.43,1.67-2.5c0.21-0.01,0.39,0.15,0.42,0.35c0.13,0.96-0.31,1.09-0.78,1.47
			C-399.45,178.57-399.94,178.89-400.28,178.88z"/>
	</g>
</g>
<g>
	<rect x="-552.64" y="259.01" style="fill:none;" width="396.6" height="44.25"/>
	<text transform="matrix(1 0 0 1 -498.8302 302.888)"><tspan x="0" y="0" class="st0" style="font-family:'FONTSPRINGDEMO-ProximaNovaBold'; font-size:65.7782px; letter-spacing:-1;">K</tspan><tspan x="40.19" y="0" class="st0" style="font-family:'FONTSPRINGDEMO-ProximaNovaBold'; font-size:61.0798px; letter-spacing:-1;">3</tspan><tspan x="74.52" y="0" class="st0" style="font-family:'FONTSPRINGDEMO-ProximaNovaBold'; font-size:61.0798px; letter-spacing:-4;">3 </tspan><tspan x="116.84" y="0" class="st0" style="font-family:'FONTSPRINGDEMO-ProximaNovaBold'; font-size:65.7782px; letter-spacing:-1;">Street</tspan></text>
</g>
<g>
	<path d="M341.73,260.09v-18.68h9.83c3.56,0,5.38,2.27,5.38,4.76c0,2.35-1.46,3.92-3.22,4.28c1.99,0.31,3.58,2.24,3.58,4.59
		c0,2.8-1.88,5.04-5.43,5.04H341.73z M345.71,248.92h4.98c1.34,0,2.18-0.87,2.18-2.07c0-1.15-0.84-2.04-2.18-2.04h-4.98V248.92z
		 M345.71,256.7h5.12c1.51,0,2.41-0.87,2.41-2.21c0-1.18-0.84-2.18-2.41-2.18h-5.12V256.7z"/>
	<path d="M366.34,246.23c4.03,0,6.78,3.02,6.78,7.45v0.78h-10.05c0.22,1.71,1.6,3.14,3.89,3.14c1.26,0,2.74-0.5,3.61-1.34l1.57,2.3
		c-1.37,1.26-3.47,1.88-5.57,1.88c-4.12,0-7.22-2.77-7.22-7.11C359.34,249.39,362.23,246.23,366.34,246.23z M363.01,252.05h6.66
		c-0.08-1.29-0.98-3-3.33-3C364.13,249.05,363.18,250.71,363.01,252.05z"/>
	<path d="M376.39,256.73v-7.06h-2.24v-3.11h2.24v-3.7h3.58v3.7h2.74v3.11h-2.74v6.1c0,0.84,0.45,1.48,1.23,1.48
		c0.53,0,1.04-0.2,1.23-0.39l0.76,2.69c-0.53,0.48-1.48,0.87-2.97,0.87C377.74,260.42,376.39,259.13,376.39,256.73z"/>
	<path d="M393.28,260.09v-1.4c-0.92,1.09-2.52,1.74-4.28,1.74c-2.16,0-4.7-1.46-4.7-4.48c0-3.16,2.55-4.31,4.7-4.31
		c1.79,0,3.39,0.56,4.28,1.65v-1.88c0-1.37-1.18-2.27-2.97-2.27c-1.46,0-2.8,0.53-3.95,1.6l-1.34-2.38
		c1.65-1.46,3.78-2.13,5.91-2.13c3.08,0,5.91,1.23,5.91,5.12v8.74H393.28z M393.28,255.16c-0.59-0.78-1.71-1.18-2.86-1.18
		c-1.4,0-2.55,0.76-2.55,2.04c0,1.26,1.15,1.99,2.55,1.99c1.15,0,2.27-0.39,2.86-1.18V255.16z"/>
</g>
</svg>
