<svg width="249" height="48" viewBox="0 0 249 48" fill="none" xmlns="http://www.w3.org/2000/svg">
<path d="M93.6846 36.1274L85.6573 25.5173L83.5908 27.9811V36.1274H77.9479V9.62207H83.5908V21.4641L92.9693 9.62207H99.9237L89.3928 22.0601L100.639 36.1274H93.6846Z" fill="white"/>
<path d="M103.03 29.2803C104.706 31.0287 107.362 32.0487 109.733 32.0487C112.68 32.0487 114.323 30.7771 114.323 28.916C114.323 26.9489 112.833 26.0416 109.442 26.0416C108.422 26.0416 106.786 26.0416 106.421 26.0813V21.5644C106.858 21.6042 108.494 21.6042 109.442 21.6042C112.137 21.6042 113.919 20.7299 113.919 18.9086C113.919 16.9813 111.952 15.9944 109.402 15.9944C107.037 15.9944 104.924 16.9084 103.209 18.5443L100.659 15.3388C102.626 13.1201 105.686 11.4775 109.945 11.4775C115.628 11.4775 119.125 14.0274 119.125 18.0675C119.125 21.1273 116.502 23.1275 113.806 23.6043C116.283 23.856 119.489 25.7899 119.489 29.4326C119.489 33.6183 115.74 36.5722 109.912 36.5722C105.434 36.5722 102.116 34.8635 100.335 32.6779L103.03 29.2803Z" fill="white"/>
<path d="M123.503 29.2803C125.179 31.0287 127.834 32.0487 130.206 32.0487C133.153 32.0487 134.795 30.7771 134.795 28.916C134.795 26.9489 133.305 26.0416 129.914 26.0416C128.894 26.0416 127.252 26.0416 126.894 26.0813V21.5644C127.331 21.6042 128.967 21.6042 129.914 21.6042C132.61 21.6042 134.391 20.7299 134.391 18.9086C134.391 16.9813 132.424 15.9944 129.874 15.9944C127.51 15.9944 125.397 16.9084 123.682 18.5443L121.132 15.3388C123.099 13.1201 126.159 11.4775 130.418 11.4775C136.1 11.4775 139.597 14.0274 139.597 18.0675C139.597 21.1273 136.974 23.1275 134.279 23.6043C136.756 23.856 139.962 25.7899 139.962 29.4326C139.962 33.6183 136.206 36.5722 130.384 36.5722C125.907 36.5722 122.589 34.8635 120.807 32.6779L123.503 29.2803Z" fill="white"/>
<path d="M149.266 28.0993C151.134 30.0464 154.035 31.6757 157.691 31.6757C160.791 31.6757 162.301 30.2054 162.301 28.6953C162.301 26.7084 159.996 26.0329 156.936 25.3176C152.604 24.3241 147.041 23.132 147.041 17.211C147.041 12.8001 150.856 9.22363 157.095 9.22363C161.307 9.22363 164.804 10.4952 167.427 12.9193L164.288 17.0521C162.142 15.0651 159.281 14.1512 156.698 14.1512C154.154 14.1512 152.803 15.2638 152.803 16.8534C152.803 18.6416 155.028 19.1979 158.088 19.9132C162.46 20.9067 168.023 22.218 168.023 28.0993C168.023 32.9473 164.566 36.6032 157.413 36.6032C152.326 36.6032 148.67 34.8945 146.167 32.391L149.266 28.0993Z" fill="white"/>
<path d="M171.283 31.3589V21.3449H168.104V16.9339H171.283V11.6885H176.37V16.9339H180.264V21.3449H176.37V30.0078C176.37 31.1999 177.006 32.1139 178.118 32.1139C178.873 32.1139 179.589 31.8357 179.867 31.5576L180.94 35.3724C180.185 36.048 178.834 36.6043 176.728 36.6043C173.191 36.6043 171.283 34.7764 171.283 31.3589Z" fill="white"/>
<path d="M182.727 36.1238V16.9303H187.774V19.553C189.125 17.8443 191.51 16.4932 193.894 16.4932V21.4207C193.536 21.3412 193.059 21.3015 192.503 21.3015C190.834 21.3015 188.609 22.2155 187.774 23.4473V36.1238H182.727Z" fill="white"/>
<path d="M204.742 16.458C210.465 16.458 214.359 20.7497 214.359 27.0284V28.141H200.093C200.41 30.5651 202.358 32.5917 205.616 32.5917C207.405 32.5917 209.511 31.8764 210.743 30.6843L212.968 33.9428C211.021 35.731 208.04 36.6053 205.06 36.6053C199.218 36.6053 194.807 32.6712 194.807 26.5118C194.807 20.9484 198.9 16.458 204.742 16.458ZM200.013 24.7235H209.471C209.352 22.8956 208.08 20.4716 204.742 20.4716C201.603 20.4716 200.252 22.8161 200.013 24.7235Z" fill="white"/>
<path d="M225.724 16.458C231.447 16.458 235.341 20.7497 235.341 27.0284V28.141H221.075C221.393 30.5651 223.34 32.5917 226.599 32.5917C228.387 32.5917 230.493 31.8764 231.725 30.6843L233.95 33.9428C232.003 35.731 229.023 36.6053 226.042 36.6053C220.201 36.6053 215.79 32.6712 215.79 26.5118C215.79 20.9484 219.883 16.458 225.724 16.458ZM220.996 24.7235H230.453C230.334 22.8956 229.063 20.4716 225.724 20.4716C222.585 20.4716 221.234 22.8161 220.996 24.7235Z" fill="white"/>
<path d="M238.998 31.3589V21.3449H235.819V16.9339H238.998V11.6885H244.085V16.9339H247.979V21.3449H244.085V30.0078C244.085 31.1999 244.721 32.1139 245.833 32.1139C246.588 32.1139 247.304 31.8357 247.582 31.5576L248.655 35.3724C247.9 36.048 246.549 36.6043 244.442 36.6043C240.906 36.6043 238.998 34.7764 238.998 31.3589Z" fill="white"/>
<path d="M6.17969 18.4993C6.17969 18.4993 9.16013 19.5656 11.6107 18.6053C11.7233 18.5589 11.816 18.4927 11.9021 18.4066C13.346 16.9628 14.9621 18.4993 15.2402 19.049C15.3528 19.2676 15.3727 19.453 14.9819 19.5723C13.4387 20.0226 7.77588 20.8108 6.17969 18.4993Z" fill="#24B24B"/>
<path d="M8.69516 18.2663L11.616 18.22C11.6822 18.22 11.7418 18.1802 11.7683 18.1272C11.9008 17.8623 12.3843 17.1139 13.4837 17.3788C14.5699 17.6371 15.2985 18.7233 15.5303 19.1141C15.5767 19.1935 15.6826 19.2267 15.7621 19.1803C16.2191 18.922 17.61 18.008 17.8219 15.5112C17.8352 15.3588 19.3122 15.7297 17.9941 18.061C17.908 18.2133 18.067 18.3789 18.2193 18.3061L19.2261 17.816C19.2393 17.8093 19.2459 17.8093 19.2592 17.8027C19.4446 17.7564 21.2064 17.3722 21.16 19.8956C21.16 20.0082 21.2528 20.0943 21.3587 20.0744C21.7826 20.0082 22.7231 19.836 22.8291 19.5644C22.9615 19.2134 23.147 13.5706 23.6835 10.9148C24.1405 8.6232 23.4914 7.96751 22.5708 7.86817C22.4118 7.8483 22.4648 7.58337 22.6171 7.54363C22.935 7.47078 23.3324 7.5039 23.5775 7.61649C24.0279 7.8218 24.7631 8.55696 24.0345 12.3784C23.2728 16.3589 23.5046 18.5114 23.5576 19.1936C23.5643 19.3128 23.6967 19.3922 23.8027 19.3393C24.8624 18.8293 29.4059 16.6039 30.6312 14.9945C31.9757 13.2262 33.8633 12.4844 34.3137 12.3321C34.3733 12.3122 34.4197 12.2592 34.4263 12.1996C34.5257 11.6367 35.0356 8.89474 35.4926 8.43113C35.5059 8.41126 35.5191 8.39801 35.5324 8.37814C36.0954 7.03367 36.5722 0.43712 29.6642 0C29.6576 0 29.6444 0 29.6377 0C24.1471 0.331152 22.637 1.6359 22.3323 1.97367C22.2926 2.02003 22.2264 2.0399 22.1668 2.02666C21.3124 1.8081 15.4508 0.662311 12.2518 8.90799C9.82773 14.2462 8.80113 17.2464 8.5362 18.061C8.48984 18.1537 8.57594 18.2663 8.69516 18.2663Z" fill="#24B24B"/>
<path d="M0 21.1071C0 21.1071 6.65632 22.6966 8.09355 20.2659C8.31874 19.8884 11.8688 21.1004 14.3724 19.9414C14.3724 19.9414 14.2863 26.4519 14.4452 27.6705C14.6307 29.0415 13.4451 35.3929 13.7498 38.0355C13.9882 38.2607 14.2995 38.0554 14.5247 37.605C14.7631 37.1348 15.4056 37.0421 15.7897 37.4063C16.048 37.6514 16.1937 37.9229 16.1805 38.6382C16.048 40.4861 13.0146 42.824 11.3654 38.4462C11.0409 37.5785 10.8952 36.6513 10.915 35.7241C10.9746 33.1477 11.1733 30.8429 10.6302 28.6043C10.0209 26.1141 8.71614 24.816 8.23927 22.5972C8.21277 22.4714 8.10018 22.3389 7.96771 22.3654C7.1067 22.5708 3.25199 23.7298 0 21.1071Z" fill="#24B24B"/>
<path d="M16.6965 44.0039C16.6236 44.0304 16.5772 44.09 16.564 44.1629C16.5243 44.3881 16.6104 44.9113 17.7164 45.6729C19.2332 46.7128 21.1804 48.2029 22.1076 47.7791C23.0415 47.3618 22.7368 43.3549 23.8694 41.8912C23.8694 41.8846 27.7638 35.0695 32.1087 34.0098C32.1153 34.0098 32.1219 34.0032 32.1285 34.0032C33.9168 33.1488 35.3209 32.46 36.6787 19.7305C36.7449 19.2007 37.4205 18.949 37.3277 20.1743C37.2085 21.6645 37.1291 26.2608 35.4335 30.8572C34.4731 33.4733 32.8902 34.2217 32.3339 34.4072C32.2279 34.4403 32.1749 34.5661 32.2213 34.6721L36.3276 44.196C36.3409 44.2225 36.3409 44.249 36.3409 44.2755C36.3409 44.4013 36.3276 44.7921 36.2217 45.1166C36.0826 45.5272 35.0229 46.8121 34.652 47.2426C34.5791 47.3287 34.5924 47.4545 34.6851 47.5208C34.95 47.7062 35.566 48.0241 36.7052 47.9976C38.1292 47.9645 41.0367 47.9182 41.6858 47.9049C41.7719 47.9049 41.8448 47.8453 41.8646 47.7658C41.911 47.5671 41.9176 47.1631 41.4606 46.6465C40.8579 45.971 40.3347 45.3683 40.1227 44.9179C39.8578 44.355 36.9966 33.7912 37.5662 28.6716C37.5794 28.5259 37.7516 28.4464 37.8708 28.5325C38.8908 29.2544 42.9111 31.7248 50.2695 31.9765C50.3225 31.9765 50.7464 32.1818 51.0378 32.2944C52.0511 32.6984 51.561 32.8176 51.3027 31.6917C51.2365 31.4136 51.1835 31.2281 51.2034 30.8572C51.2828 28.208 51.1636 26.4926 51.1769 25.9827C51.1835 25.89 51.5014 25.5588 51.6405 25.9959C51.8657 26.698 51.3888 31.1023 52.7068 33.6058C52.7201 33.6389 52.7333 33.672 52.7333 33.7051C52.1836 38.7254 50.6271 44.302 50.6271 44.302C50.5543 44.5669 50.4284 44.8053 50.2562 45.0173L48.4349 47.2227C48.2494 47.4479 48.3753 47.7923 48.6601 47.8453C49.0707 47.9248 49.7727 47.9976 50.9517 47.9976L54.6938 47.8917C55.1243 47.8519 55.4555 47.4877 55.4488 47.0572C55.4422 46.7856 55.3959 46.4214 55.2833 45.9445C54.9057 44.3748 54.8263 40.9971 56.6609 37.5597C58.3962 34.3144 61.2243 28.1219 61.5289 27.453C61.5488 27.4133 61.5687 27.3735 61.5886 27.3404C61.8535 26.8702 63.7345 23.5653 64.3835 21.83C64.5557 21.3664 65.1253 21.2008 65.5095 21.5055C67.013 22.6778 69.6887 26.3271 70.8809 29.5459C70.8942 29.5856 70.8942 29.632 70.8809 29.6717C70.6888 30.2148 69.4503 34.1025 73.4441 34.1091C73.6097 34.1091 73.6958 33.9171 73.5898 33.7912C73.0798 33.1885 72.0135 31.6917 71.4704 29.1551C71.4704 29.1485 71.4704 29.1419 71.4638 29.1352C70.8677 27.4 68.9204 22.6314 65.5956 19.1146C65.2048 18.704 62.5688 6.62355 49.7529 6.00099C43.4873 6.00099 41.9044 6.42486 41.507 6.63679C41.3547 6.71627 41.1957 6.76926 41.0235 6.77588C40.2552 6.809 38.3742 6.78913 36.7979 5.98112C36.5462 5.84866 36.2415 6.0341 36.2482 6.31889C36.2548 7.1269 36.2415 8.40514 36.1025 8.58397C35.9832 8.74292 35.2944 10.9285 35.0494 12.1008C34.9699 12.4783 34.7579 12.8161 34.44 13.0413C33.5128 13.6837 32.4796 13.7499 31.91 14.293C31.4993 14.6904 30.4661 17.227 24.6708 19.757C24.439 19.8564 24.3595 20.161 24.5185 20.3597C24.8629 20.8035 25.4523 21.5121 26.0021 21.9824C26.4127 22.3334 26.6644 22.8367 26.671 23.3798C26.7041 25.7111 25.9623 30.9102 23.1342 34.6721C21.1473 37.3213 20.1736 40.2752 19.9948 41.6064C19.9087 42.2422 19.4385 43.0105 18.8623 43.2887C18.8556 43.2953 18.8424 43.2953 18.8358 43.3019L16.6965 44.0039Z" fill="#24B24B"/>
<path d="M57.4492 36.885C57.4492 36.885 59.8005 33.9841 61.4695 28.4539C61.4695 28.4539 61.6748 28.083 61.9729 28.4539C62.2709 28.8248 61.443 34.567 62.4431 35.7061C63.4432 36.8387 65.5825 39.3488 69.4173 39.978C70.4439 40.5873 69.9273 44.2233 67.2648 47.0514C67.2648 47.0514 67.0595 47.5613 66.1587 45.6738C65.5163 44.3293 62.112 42.4749 60.4363 39.4349C59.6018 38.1898 57.4492 36.885 57.4492 36.885Z" fill="#24B24B"/>
<path d="M16.1861 11.7718C16.1861 11.7718 16.047 10.4273 17.1067 10.3876C17.2193 10.3809 17.3253 10.467 17.3385 10.5796C17.4114 11.1095 17.1663 11.1823 16.908 11.3876C16.6431 11.5996 16.3715 11.7784 16.1861 11.7718Z" fill="#0E0E0E"/>
</svg>
