<svg width="160" height="160" viewBox="0 0 160 160" fill="none" xmlns="http://www.w3.org/2000/svg">
<path d="M29.1743 21.9073C29.1743 14.7073 22.6674 9.02667 15.213 10.426C10.5244 11.306 6.78775 15.1352 5.96663 19.8347C5.45335 22.772 6.05943 25.5352 7.39927 27.8158H7.39287L7.42615 27.8596C7.87479 28.6155 8.43639 29.1556 9.00407 29.9499L15.7941 38.9444C16.6389 40.0638 18.3202 40.0635 19.165 38.9444L25.8421 30.0984C25.8421 30.0984 27.0885 28.6123 27.5407 27.8481L27.5647 27.8161H27.5599C28.5797 26.0804 29.1743 24.0657 29.1743 21.9073ZM17.4799 26.9992C14.6377 26.9992 12.3333 24.6948 12.3333 21.8526C12.3333 19.0104 14.6377 16.706 17.4799 16.706C20.3225 16.706 22.6265 19.0104 22.6265 21.8526C22.6265 24.6948 20.3225 26.9992 17.4799 26.9992Z" fill="#F5F5F5"/>
<path d="M155.319 92.839C155.319 89.6649 152.45 87.1606 149.164 87.7776C147.097 88.1654 145.45 89.8537 145.088 91.9254C144.862 93.2205 145.129 94.4384 145.719 95.4438H145.717L145.731 95.4633C145.929 95.7965 146.177 96.0345 146.427 96.3846L149.42 100.35C149.793 100.843 150.534 100.843 150.906 100.35L153.85 96.4499C153.85 96.4499 154.399 95.7949 154.599 95.4579L154.609 95.4438H154.607C155.056 94.6787 155.319 93.7904 155.319 92.839ZM150.163 95.0838C148.91 95.0838 147.895 94.0681 147.895 92.815C147.895 91.5619 148.91 90.5462 150.163 90.5462C151.416 90.5462 152.432 91.5619 152.432 92.815C152.432 94.0681 151.416 95.0838 150.163 95.0838Z" fill="#F5F5F5"/>
<path d="M137.54 133.503C142.581 128.462 142.581 120.288 137.54 115.247C132.499 110.206 124.325 110.206 119.284 115.247C114.243 120.288 114.243 128.462 119.284 133.503C124.325 138.544 132.499 138.544 137.54 133.503Z" fill="#F5F5F5"/>
<path d="M128.412 135.12C122.488 135.12 117.668 130.3 117.668 124.375C117.668 118.451 122.488 113.631 128.412 113.631C134.337 113.631 139.157 118.451 139.157 124.375C139.157 130.3 134.337 135.12 128.412 135.12ZM128.412 115.47C123.502 115.47 119.507 119.465 119.507 124.376C119.507 129.286 123.502 133.281 128.412 133.281C133.323 133.281 137.318 129.286 137.318 124.376C137.318 119.465 133.323 115.47 128.412 115.47Z" fill="white"/>
<path d="M128.34 128.049C126.158 128.049 124.383 126.274 124.383 124.092C124.383 121.91 126.158 120.135 128.34 120.135C130.522 120.135 132.297 121.91 132.297 124.092C132.297 126.274 130.522 128.049 128.34 128.049ZM128.34 121.973C127.172 121.973 126.222 122.924 126.222 124.092C126.222 125.26 127.172 126.21 128.34 126.21C129.508 126.21 130.458 125.26 130.458 124.092C130.458 122.924 129.508 121.973 128.34 121.973Z" fill="white"/>
<path d="M128.34 124.09H123.338L124.21 125.633L112.438 131.028L112.835 131.69L124.647 126.358L125.456 127.89L128.34 124.09Z" fill="#E0E0E0"/>
<path d="M112.436 131.029L112.311 130.907C111.693 130.306 110.801 130.083 109.973 130.324L105.277 131.691L107.892 132.84L106.842 135.634L111.248 134.063C112.241 133.708 112.885 132.745 112.833 131.691L112.436 131.029Z" fill="#E0E0E0"/>
<path d="M55.4742 133.733C55.4755 133.731 55.5081 133.721 55.5708 133.702C55.6403 133.681 55.7318 133.655 55.8486 133.62C56.0995 133.549 56.4576 133.447 56.9187 133.315C57.8553 133.052 59.2102 132.672 60.92 132.192L60.8841 132.256C60.6793 131.57 60.4496 130.801 60.2032 129.977L60.192 129.94L60.224 129.913C61.2265 129.077 62.2131 127.976 63.014 126.629C63.4131 125.954 63.7305 125.2 63.9484 124.393C64.1763 123.585 64.207 122.706 64.0995 121.832C63.8272 120.089 62.9401 118.313 61.4697 117.033C60.0185 115.743 58.0806 114.888 56.0224 114.688C54.488 114.539 52.96 114.892 51.6473 115.563C50.3171 116.207 49.2009 117.18 48.3884 118.306C47.5683 119.434 47.1363 120.754 46.9865 122.031C46.9676 122.353 46.9168 122.671 46.9241 122.987C46.9331 123.303 46.942 123.615 46.951 123.924C47.0092 124.538 47.1078 125.134 47.271 125.697C47.4393 126.258 47.6582 126.787 47.9219 127.272C48.1907 127.755 48.5062 128.19 48.8448 128.58C49.5264 129.36 50.3104 129.942 51.0732 130.379C52.6102 131.248 54.0326 131.6 55.0422 131.751L55.0652 131.754L55.0697 131.775C55.2028 132.41 55.3046 132.894 55.375 133.229C55.4073 133.388 55.4326 133.512 55.4508 133.603C55.4678 133.687 55.4755 133.731 55.4742 133.733C55.4729 133.736 55.462 133.697 55.4419 133.616C55.4204 133.528 55.391 133.407 55.3532 133.252C55.2739 132.915 55.1593 132.427 55.0089 131.788L55.0361 131.813C54.0131 131.676 52.5814 131.338 51.0201 130.472C50.2457 130.037 49.4473 129.452 48.7497 128.664C48.4035 128.269 48.08 127.828 47.8038 127.337C47.5328 126.844 47.3075 126.307 47.1337 125.737C46.9654 125.165 46.8627 124.559 46.8012 123.936C46.7913 123.622 46.7811 123.305 46.7705 122.985C46.7619 122.664 46.8121 122.34 46.8307 122.013C46.9788 120.713 47.4169 119.363 48.2521 118.209C49.0793 117.058 50.2166 116.065 51.5702 115.408C52.9027 114.723 54.4697 114.36 56.038 114.513C58.136 114.717 60.1043 115.587 61.5836 116.905C62.3244 117.561 62.9411 118.336 63.3795 119.181C63.5065 119.383 63.5894 119.605 63.6848 119.82C63.7788 120.035 63.8768 120.248 63.9363 120.473C64.0038 120.695 64.0768 120.914 64.1382 121.135C64.1785 121.361 64.2185 121.586 64.2585 121.809C64.3667 122.706 64.3312 123.607 64.0963 124.43C63.8716 125.253 63.5449 126.019 63.1379 126.701C62.3187 128.064 61.3225 129.164 60.2985 130.008L60.319 129.943C60.5593 130.769 60.7836 131.54 60.9836 132.227L60.9984 132.278L60.9478 132.291C59.2185 132.751 57.848 133.115 56.9011 133.367C56.4419 133.487 56.0857 133.58 55.8358 133.645C55.7216 133.674 55.632 133.697 55.5641 133.714C55.503 133.729 55.4729 133.736 55.4742 133.733Z" fill="#E0E0E0"/>
<path d="M61.4258 133.739C61.4386 133.786 60.1931 134.167 58.6443 134.591C57.0949 135.015 55.8293 135.321 55.8165 135.275C55.8037 135.228 57.0488 134.847 58.5983 134.423C60.1467 133.999 61.413 133.693 61.4258 133.739Z" fill="#E0E0E0"/>
<path d="M60.1863 136.357C60.2042 136.4 59.7847 136.612 59.2247 136.745C58.6647 136.88 58.195 136.882 58.1914 136.835C58.1866 136.786 58.6378 136.707 59.1838 136.575C59.73 136.445 60.1681 136.311 60.1863 136.357Z" fill="#E0E0E0"/>
<path d="M56.6183 133.424C56.6154 133.424 56.6049 133.394 56.5873 133.333C56.5678 133.262 56.5434 133.173 56.513 133.061C56.4484 132.809 56.3582 132.459 56.2439 132.014C56.0145 131.089 55.6881 129.774 55.2858 128.153C55.0858 127.336 54.867 126.444 54.6324 125.486C54.5751 125.253 54.4932 125.016 54.3514 124.825C54.2202 124.63 53.9719 124.528 53.7678 124.631C53.5665 124.73 53.4692 124.997 53.467 125.241C53.4612 125.492 53.5818 125.733 53.7524 125.93C54.0999 126.327 54.6871 126.496 55.2334 126.422C55.7886 126.355 56.2775 125.962 56.5316 125.439C56.7943 124.919 56.8554 124.289 56.7169 123.703C56.6474 123.412 56.5319 123.118 56.3191 122.92C56.1185 122.726 55.7735 122.655 55.5521 122.814C55.33 122.973 55.2929 123.323 55.4078 123.577C55.5239 123.845 55.7604 124.051 56.0052 124.232C56.4945 124.595 57.0586 124.864 57.6417 124.908C57.9313 124.928 58.2234 124.892 58.481 124.782C58.738 124.668 58.9668 124.492 59.1354 124.272C59.3054 124.056 59.418 123.794 59.4308 123.53C59.4471 123.265 59.3642 123 59.1889 122.812C59.0196 122.622 58.762 122.515 58.5326 122.587C58.3025 122.654 58.129 122.866 58.0465 123.093C57.8878 123.564 58.0279 124.088 58.0842 124.57C58.2391 125.543 58.4135 126.446 58.5729 127.27C58.9034 128.906 59.1716 130.234 59.3601 131.167C59.4513 131.617 59.523 131.972 59.5745 132.227C59.5959 132.34 59.6129 132.431 59.6266 132.503C59.6375 132.566 59.6417 132.598 59.6385 132.599C59.6356 132.599 59.6257 132.568 59.609 132.507C59.5911 132.436 59.5684 132.346 59.5399 132.235C59.4807 131.982 59.3982 131.629 59.2932 131.182C59.0852 130.266 58.7889 128.94 58.4513 127.294C58.2839 126.471 58.1025 125.569 57.9406 124.593C57.905 124.347 57.8625 124.101 57.8366 123.842C57.8119 123.585 57.8074 123.309 57.9015 123.041C57.9962 122.78 58.1911 122.527 58.4874 122.436C58.7873 122.342 59.1124 122.483 59.3076 122.704C59.5143 122.924 59.6135 123.237 59.5946 123.539C59.5802 123.843 59.4532 124.136 59.2673 124.375C59.0817 124.617 58.8327 124.811 58.5482 124.938C58.2593 125.062 57.9412 125.101 57.6292 125.079C57.0001 125.032 56.41 124.748 55.9012 124.373C55.65 124.186 55.3876 123.966 55.2471 123.647C55.1108 123.337 55.1377 122.907 55.4497 122.672C55.7703 122.453 56.1892 122.557 56.4372 122.792C56.6919 123.031 56.8113 123.354 56.8858 123.663C57.0327 124.289 56.9678 124.957 56.6842 125.517C56.4135 126.078 55.8676 126.517 55.2564 126.588C54.6596 126.666 54.0238 126.485 53.6311 126.038C53.4417 125.82 53.3015 125.537 53.3089 125.241C53.3159 124.959 53.4161 124.64 53.6996 124.494C53.8385 124.424 53.9994 124.423 54.1393 124.473C54.2817 124.524 54.3898 124.627 54.4705 124.736C54.6318 124.958 54.7134 125.208 54.7729 125.453C55.0001 126.413 55.2119 127.308 55.4055 128.126C55.785 129.751 56.0929 131.071 56.3095 131.999C56.4103 132.447 56.4897 132.8 56.5466 133.054C56.57 133.167 56.5892 133.257 56.6039 133.329C56.6164 133.391 56.6212 133.423 56.6183 133.424Z" fill="#E0E0E0"/>
<path d="M61.2195 134.935C61.2323 134.982 60.2236 135.298 58.967 135.642C57.71 135.985 56.6809 136.226 56.6681 136.179C56.6553 136.132 57.6639 135.816 58.9209 135.473C60.1775 135.13 61.2067 134.889 61.2195 134.935Z" fill="#E0E0E0"/>
<path d="M148.204 149.714C148.204 149.76 117.665 149.797 80.0019 149.797C42.3254 149.797 11.793 149.76 11.793 149.714C11.793 149.668 42.3258 149.631 80.0019 149.631C117.665 149.631 148.204 149.668 148.204 149.714Z" fill="#263238"/>
<path d="M142.569 20.9941H17.4961V29.0063H142.569V20.9941Z" fill="#E0E0E0"/>
<path d="M142.553 36.3672H17.4805V106.511H142.553V36.3672Z" fill="white"/>
<path d="M17.4961 28.948H34.6689L36.3707 23.9922H64.2081L65.9099 28.948H142.569V36.5355H17.4961V28.948Z" fill="#EBEBEB"/>
<path d="M21.6258 24.1879C21.6258 24.7069 21.205 25.1277 20.6859 25.1277C20.1669 25.1277 19.7461 24.7069 19.7461 24.1879C19.7461 23.6688 20.1669 23.248 20.6859 23.248C21.205 23.2477 21.6258 23.6685 21.6258 24.1879Z" fill="#263238"/>
<path d="M24.532 24.1879C24.532 24.7069 24.1112 25.1277 23.5922 25.1277C23.0731 25.1277 22.6523 24.7069 22.6523 24.1879C22.6523 23.6688 23.0731 23.248 23.5922 23.248C24.1112 23.2477 24.532 23.6685 24.532 24.1879Z" fill="#263238"/>
<path d="M27.4461 24.1879C27.4461 24.7069 27.0253 25.1277 26.5062 25.1277C25.9872 25.1277 25.5664 24.7069 25.5664 24.1879C25.5664 23.6688 25.9872 23.248 26.5062 23.248C27.0253 23.2477 27.4461 23.6685 27.4461 24.1879Z" fill="#263238"/>
<path d="M128.748 35.0246H42.94C41.6248 35.0246 40.5586 33.9584 40.5586 32.6432C40.5586 31.328 41.6248 30.2617 42.94 30.2617H128.748C130.064 30.2617 131.13 31.328 131.13 32.6432C131.129 33.9587 130.064 35.0246 128.748 35.0246Z" fill="#FAFAFA"/>
<path d="M44.9912 32.9599V33.7644H44.5838V33.0227C44.5838 32.7955 44.4792 32.6908 44.299 32.6908C44.1032 32.6908 43.962 32.8108 43.962 33.0697V33.7644H43.5547V31.8262H43.962V32.5055C44.0718 32.3958 44.2286 32.3385 44.4088 32.3385C44.7406 32.3382 44.9912 32.5315 44.9912 32.9599Z" fill="#E0E0E0"/>
<path d="M46.265 33.6988C46.1815 33.7589 46.0586 33.7877 45.9332 33.7877C45.6013 33.7877 45.408 33.6178 45.408 33.2834V32.7061H45.1914V32.3929H45.408V32.0508H45.8157V32.3929H46.1658V32.7061H45.8157V33.2783C45.8157 33.3983 45.881 33.4639 45.9908 33.4639C46.0509 33.4639 46.1111 33.4457 46.1552 33.4114L46.265 33.6988Z" fill="#E0E0E0"/>
<path d="M47.3705 33.6988C47.287 33.7589 47.1641 33.7877 47.0386 33.7877C46.7068 33.7877 46.5135 33.6178 46.5135 33.2834V32.7061H46.2969V32.3929H46.5135V32.0508H46.9212V32.3929H47.2713V32.7061H46.9212V33.2783C46.9212 33.3983 46.9865 33.4639 47.0962 33.4639C47.1564 33.4639 47.2166 33.4457 47.2607 33.4114L47.3705 33.6988Z" fill="#E0E0E0"/>
<path d="M49.1321 33.0637C49.1321 33.505 48.8265 33.7872 48.432 33.7872C48.2569 33.7872 48.1132 33.7325 48.0089 33.6173V34.273H47.6016V32.3606H47.9907V32.5226C48.0924 32.3997 48.2441 32.3398 48.432 32.3398C48.8265 32.3402 49.1321 32.6221 49.1321 33.0637ZM48.7193 33.0637C48.7193 32.8208 48.5654 32.6746 48.3616 32.6746C48.1577 32.6746 48.0035 32.8208 48.0035 33.0637C48.0035 33.3066 48.1577 33.4528 48.3616 33.4528C48.5654 33.4528 48.7193 33.3066 48.7193 33.0637Z" fill="#E0E0E0"/>
<path d="M49.3086 32.5927C49.3086 32.4413 49.4209 32.3418 49.562 32.3418C49.7032 32.3418 49.8155 32.4413 49.8155 32.5927C49.8155 32.7415 49.7032 32.8487 49.562 32.8487C49.4209 32.849 49.3086 32.7418 49.3086 32.5927ZM49.3086 33.5306C49.3086 33.3792 49.4209 33.2797 49.562 33.2797C49.7032 33.2797 49.8155 33.3792 49.8155 33.5306C49.8155 33.6794 49.7032 33.7866 49.562 33.7866C49.4209 33.7866 49.3086 33.6794 49.3086 33.5306Z" fill="#E0E0E0"/>
<path d="M50.8152 31.5664H51.1784L50.3163 34.0272H49.9531L50.8152 31.5664Z" fill="#E0E0E0"/>
<path d="M51.6472 31.5664H52.0104L51.1484 34.0272H50.7852L51.6472 31.5664Z" fill="#E0E0E0"/>
<path d="M128.669 48.9813H53.9086C51.5774 48.9813 49.6875 47.0914 49.6875 44.7602C49.6875 42.429 51.5774 40.5391 53.9086 40.5391H128.669C131 40.5391 132.89 42.429 132.89 44.7602C132.89 47.0914 131 48.9813 128.669 48.9813Z" fill="#FAFAFA"/>
<path d="M128.669 48.9822C128.658 48.947 129.315 49.0586 130.397 48.5911C130.92 48.3454 131.549 47.9374 132.049 47.241C132.298 46.897 132.522 46.4897 132.668 46.0209C132.812 45.5524 132.882 45.0266 132.843 44.4753C132.806 43.9249 132.655 43.3492 132.369 42.8068C132.085 42.2634 131.653 41.7655 131.11 41.3713C130.571 40.9713 129.898 40.7102 129.177 40.6174C128.817 40.5767 128.442 40.5838 128.06 40.5854C127.678 40.586 127.29 40.5863 126.894 40.587C123.73 40.5905 120.128 40.5946 116.146 40.5991C100.216 40.6055 78.214 40.6142 53.9132 40.6234C53.1705 40.6353 52.4239 40.8193 51.7929 41.2103C51.1522 41.5841 50.6332 42.1431 50.2738 42.7838C49.5682 44.0769 49.613 45.7396 50.4089 46.9614C50.7884 47.5802 51.3471 48.0785 51.9782 48.4202C52.6185 48.7521 53.333 48.9207 54.0543 48.8999C55.5113 48.9002 56.9567 48.9002 58.3894 48.9006C64.1199 48.9022 69.6473 48.9038 74.9129 48.9054C85.4434 48.9121 94.9266 48.9182 102.891 48.9233C110.854 48.9345 117.297 48.9434 121.754 48.9498C123.978 48.9566 125.706 48.962 126.882 48.9655C127.466 48.969 127.912 48.9719 128.216 48.9738C128.515 48.9764 128.669 48.9822 128.669 48.9822C128.669 48.9822 128.515 48.9879 128.215 48.9908C127.911 48.9927 127.465 48.9956 126.881 48.9991C125.706 49.0026 123.978 49.0081 121.753 49.0148C117.296 49.0212 110.853 49.0302 102.89 49.0414C94.9257 49.0465 85.4425 49.0526 74.9119 49.0593C69.6463 49.0609 64.1186 49.0625 58.3884 49.0641C56.9558 49.0644 55.5106 49.0647 54.0534 49.0647C53.3154 49.0865 52.5631 48.9118 51.9001 48.5665C51.2434 48.2116 50.663 47.6932 50.2678 47.05C49.4402 45.7786 49.3922 44.0503 50.127 42.7044C50.5007 42.0378 51.0406 41.457 51.7068 41.0676C52.3631 40.6612 53.1404 40.4689 53.9126 40.457C78.2134 40.4666 100.215 40.4753 116.146 40.4814C120.127 40.4858 123.729 40.49 126.893 40.4935C127.289 40.4942 127.677 40.4948 128.059 40.4951C128.44 40.4948 128.816 40.4884 129.186 40.5313C129.922 40.6279 130.608 40.897 131.156 41.3066C131.707 41.7105 132.145 42.219 132.432 42.7729C132.721 43.3258 132.872 43.9118 132.907 44.4708C132.944 45.0305 132.871 45.5636 132.722 46.0378C132.571 46.5124 132.343 46.9236 132.088 47.2702C131.578 47.9716 130.94 48.3786 130.41 48.6215C129.871 48.8625 129.42 48.9265 129.123 48.9652C128.823 48.9822 128.669 48.9822 128.669 48.9822Z" fill="#263238"/>
<path d="M55.6211 45.6576L55.7805 45.304C55.9517 45.4288 56.2067 45.5158 56.4505 45.5158C56.7289 45.5158 56.8422 45.423 56.8422 45.2982C56.8422 44.9184 55.6617 45.1792 55.6617 44.4253C55.6617 44.08 55.9401 43.793 56.5174 43.793C56.7725 43.793 57.0336 43.8538 57.2221 43.9728L57.0771 44.3296C56.8886 44.2221 56.6944 44.1699 56.5145 44.1699C56.2361 44.1699 56.1286 44.2742 56.1286 44.4019C56.1286 44.776 57.3091 44.5178 57.3091 45.2634C57.3091 45.6026 57.0278 45.8928 56.4477 45.8928C56.1257 45.8925 55.8009 45.7968 55.6211 45.6576Z" fill="#E0E0E0"/>
<path d="M59.1199 45.2063H57.9394C57.9829 45.4005 58.1484 45.5196 58.3861 45.5196C58.5516 45.5196 58.6703 45.4703 58.7778 45.3688L59.0188 45.63C58.8735 45.7954 58.6562 45.8821 58.3749 45.8821C57.8354 45.8821 57.4844 45.5429 57.4844 45.0789C57.4844 44.6117 57.8412 44.2754 58.3167 44.2754C58.7749 44.2754 59.1289 44.5829 59.1289 45.0847C59.1285 45.1192 59.1228 45.1685 59.1199 45.2063ZM57.9337 44.9423H58.7023C58.6703 44.7452 58.5225 44.6175 58.3196 44.6175C58.1135 44.6175 57.9653 44.7423 57.9337 44.9423Z" fill="#E0E0E0"/>
<path d="M60.771 44.9682V45.8588H60.3476V45.6645C60.2635 45.8066 60.1012 45.8821 59.8721 45.8821C59.5067 45.8821 59.2891 45.6792 59.2891 45.4095C59.2891 45.134 59.4833 44.9423 59.9591 44.9423H60.3188C60.3188 44.748 60.203 44.6351 59.9591 44.6351C59.7937 44.6351 59.6228 44.6901 59.5095 44.78L59.347 44.4639C59.5182 44.3423 59.7703 44.2754 60.0199 44.2754C60.4955 44.2751 60.771 44.4956 60.771 44.9682ZM60.3185 45.3653V45.206H60.0081C59.7963 45.206 59.7297 45.2844 59.7297 45.3887C59.7297 45.502 59.8254 45.5772 59.9851 45.5772C60.1358 45.5772 60.2663 45.5077 60.3185 45.3653Z" fill="#E0E0E0"/>
<path d="M62.148 44.2754V44.693C62.1102 44.6901 62.0814 44.6872 62.0466 44.6872C61.797 44.6872 61.6318 44.8235 61.6318 45.1221V45.8587H61.1797V44.2981H61.6117V44.5042C61.7218 44.3535 61.9074 44.2754 62.148 44.2754Z" fill="#E0E0E0"/>
<path d="M62.2891 45.0789C62.2891 44.6092 62.6516 44.2754 63.1591 44.2754C63.4868 44.2754 63.7451 44.4175 63.858 44.6728L63.507 44.8613C63.4228 44.7135 63.2983 44.6469 63.1559 44.6469C62.9268 44.6469 62.747 44.8066 62.747 45.0792C62.747 45.3519 62.9268 45.5112 63.1559 45.5112C63.298 45.5112 63.4228 45.4476 63.507 45.2968L63.858 45.4882C63.7447 45.7375 63.4868 45.8824 63.1591 45.8824C62.6513 45.8824 62.2891 45.549 62.2891 45.0789Z" fill="#E0E0E0"/>
<path d="M65.7007 44.9656V45.859H65.2482V45.0354C65.2482 44.7832 65.1323 44.667 64.932 44.667C64.7144 44.667 64.5579 44.8005 64.5579 45.0875V45.859H64.1055V43.707H64.5579V44.461C64.6799 44.339 64.854 44.2754 65.054 44.2754C65.4223 44.2754 65.7007 44.4898 65.7007 44.9656Z" fill="#E0E0E0"/>
<path d="M66.8242 45.5968C66.8242 45.4288 66.949 45.3184 67.1055 45.3184C67.262 45.3184 67.3868 45.4288 67.3868 45.5968C67.3868 45.7622 67.262 45.8809 67.1055 45.8809C66.949 45.8812 66.8242 45.7622 66.8242 45.5968Z" fill="#E0E0E0"/>
<path d="M67.5859 45.5968C67.5859 45.4288 67.7107 45.3184 67.8672 45.3184C68.0237 45.3184 68.1485 45.4288 68.1485 45.5968C68.1485 45.7622 68.0237 45.8809 67.8672 45.8809C67.7107 45.8812 67.5859 45.7622 67.5859 45.5968Z" fill="#E0E0E0"/>
<path d="M68.3438 45.5968C68.3438 45.4288 68.4685 45.3184 68.625 45.3184C68.7815 45.3184 68.9063 45.4288 68.9063 45.5968C68.9063 45.7622 68.7815 45.8809 68.625 45.8809C68.4685 45.8812 68.3438 45.7622 68.3438 45.5968Z" fill="#E0E0E0"/>
<path d="M40.981 56.3293C40.981 56.3754 37.9804 56.4125 34.2799 56.4125C30.5781 56.4125 27.5781 56.3751 27.5781 56.3293C27.5781 56.2832 30.5781 56.2461 34.2799 56.2461C37.9807 56.2458 40.981 56.2832 40.981 56.3293Z" fill="black"/>
<path d="M41.5078 60.1582H27.582V74.084H41.5078V60.1582Z" fill="#24B24B"/>
<path d="M126.129 63.4387C126.129 63.4847 108.843 63.5219 87.5233 63.5219C66.1969 63.5219 48.9141 63.4844 48.9141 63.4387C48.9141 63.3929 66.1969 63.3555 87.5233 63.3555C108.842 63.3552 126.129 63.3926 126.129 63.4387Z" fill="black"/>
<path d="M70.0341 68.6848C70.0341 68.7308 65.4789 68.768 59.8613 68.768C54.2417 68.768 49.6875 68.7305 49.6875 68.6848C49.6875 68.6387 54.2417 68.6016 59.8613 68.6016C65.4789 68.6012 70.0341 68.6387 70.0341 68.6848Z" fill="black"/>
<path d="M113.788 73.5461C113.788 73.5922 99.4376 73.6293 81.7393 73.6293C64.035 73.6293 49.6875 73.5918 49.6875 73.5461C49.6875 73.5003 64.035 73.4629 81.7393 73.4629C99.4376 73.4629 113.788 73.5 113.788 73.5461Z" fill="#E0E0E0"/>
<path d="M40.981 81.2707C40.981 81.3168 37.9804 81.3539 34.2799 81.3539C30.5781 81.3539 27.5781 81.3165 27.5781 81.2707C27.5781 81.2246 30.5781 81.1875 34.2799 81.1875C37.9807 81.1875 40.981 81.2246 40.981 81.2707Z" fill="black"/>
<path d="M41.5078 85.1016H27.582V99.0273H41.5078V85.1016Z" fill="#24B24B"/>
<path d="M130.716 88.382C130.716 88.4281 112.403 88.4652 89.8171 88.4652C67.2235 88.4652 48.9141 88.4278 48.9141 88.382C48.9141 88.3363 67.2238 88.2988 89.8171 88.2988C112.403 88.2988 130.716 88.336 130.716 88.382Z" fill="black"/>
<path d="M70.0341 93.6262C70.0341 93.6723 65.4789 93.7094 59.8613 93.7094C54.2417 93.7094 49.6875 93.6723 49.6875 93.6262C49.6875 93.5801 54.2417 93.543 59.8613 93.543C65.4789 93.543 70.0341 93.5801 70.0341 93.6262Z" fill="black"/>
<path d="M124.952 98.4875C124.952 98.5336 108.102 98.5707 87.3214 98.5707C66.5339 98.5707 49.6875 98.5336 49.6875 98.4875C49.6875 98.4414 66.5336 98.4043 87.3214 98.4043C108.102 98.4043 124.952 98.4417 124.952 98.4875Z" fill="#E0E0E0"/>
<path d="M142.57 106.679C142.57 106.13 142.544 73.1451 142.503 20.995L142.57 21.0619C107.95 21.0664 64.5254 21.0721 17.5072 21.0782H17.4973L17.5805 20.995C17.5779 51.5787 17.5753 80.6385 17.5731 106.679L17.4969 106.602C91.2736 106.647 141.892 106.678 142.57 106.679C141.892 106.679 91.2733 106.71 17.4973 106.755H17.4211V106.679C17.4189 80.6388 17.4166 51.579 17.4141 20.9953V20.9121H17.4976H17.5075C64.5254 20.9182 107.95 20.924 142.57 20.9284H142.637V20.9953C142.596 73.1451 142.571 106.13 142.57 106.679Z" fill="#263238"/>
<path d="M60.8312 27.2004C60.8312 27.2465 56.4152 27.2836 50.9688 27.2836C45.5205 27.2836 41.1055 27.2461 41.1055 27.2004C41.1055 27.1546 45.5208 27.1172 50.9688 27.1172C56.4152 27.1169 60.8312 27.1543 60.8312 27.2004Z" fill="black"/>
<path d="M43.037 42.9531H25.5195V48.2299H43.037V42.9531Z" fill="#455A64"/>
<path d="M74.0607 56.7746C74.0607 56.8207 68.6137 56.8578 61.8962 56.8578C55.1762 56.8578 49.7305 56.8204 49.7305 56.7746C49.7305 56.7288 55.1762 56.6914 61.8962 56.6914C68.6137 56.6914 74.0607 56.7285 74.0607 56.7746Z" fill="#24B24B"/>
<path d="M74.0607 81.2707C74.0607 81.3168 68.6137 81.3539 61.8962 81.3539C55.1762 81.3539 49.7305 81.3165 49.7305 81.2707C49.7305 81.2246 55.1762 81.1875 61.8962 81.1875C68.6137 81.1875 74.0607 81.2246 74.0607 81.2707Z" fill="#24B24B"/>
<path d="M127.061 46.1645C125.939 46.1645 125.027 45.2522 125.027 44.1313C125.027 43.01 125.94 42.0977 127.061 42.0977C128.182 42.0977 129.094 43.01 129.094 44.1313C129.094 45.2525 128.182 46.1645 127.061 46.1645ZM127.061 42.418C126.116 42.418 125.347 43.1866 125.347 44.1316C125.347 45.0762 126.116 45.8449 127.061 45.8449C128.005 45.8449 128.774 45.0762 128.774 44.1316C128.774 43.1863 128.005 42.418 127.061 42.418Z" fill="#24B24B"/>
<path d="M129.559 47.0672C129.519 47.0672 129.478 47.0519 129.446 47.0208L128.121 45.7053C128.059 45.6429 128.058 45.5418 128.121 45.4788C128.183 45.4164 128.284 45.4157 128.347 45.4781L129.672 46.7936C129.734 46.856 129.735 46.9572 129.673 47.0202C129.642 47.0516 129.601 47.0672 129.559 47.0672Z" fill="#24B24B"/>
<path d="M95.966 68.3215C95.966 68.3676 90.7256 68.4047 84.2629 68.4047C77.798 68.4047 72.5586 68.3672 72.5586 68.3215C72.5586 68.2757 77.798 68.2383 84.2629 68.2383C90.7256 68.2383 95.966 68.2757 95.966 68.3215Z" fill="black"/>
<path d="M111.084 67.9641C111.084 68.0101 108.343 68.0473 104.962 68.0473C101.58 68.0473 98.8398 68.0098 98.8398 67.9641C98.8398 67.9183 101.58 67.8809 104.962 67.8809C108.343 67.8809 111.084 67.918 111.084 67.9641Z" fill="black"/>
<path d="M95.8527 93.6262C95.8527 93.6723 90.6124 93.7094 84.1496 93.7094C77.6847 93.7094 72.4453 93.6723 72.4453 93.6262C72.4453 93.5801 77.6847 93.543 84.1496 93.543C90.612 93.543 95.8527 93.5801 95.8527 93.6262Z" fill="black"/>
<path d="M33.0314 100.211C30.4352 101.556 28.4445 103.871 27.0128 106.421C25.5815 108.97 24.6589 111.767 23.745 114.545L22.9453 128.869C25.9661 123.729 28.3908 117.688 29.0458 111.763C28.3757 111.703 27.7056 111.643 27.0356 111.583C28.3834 111.378 29.5149 110.401 30.2346 109.243C30.9546 108.085 31.3252 106.749 31.6868 105.435C30.8692 105.557 30.0516 105.678 29.234 105.799C31.1549 104.518 32.5472 102.469 33.0314 100.211Z" fill="#455A64"/>
<g opacity="0.3">
<path d="M33.0314 100.211C30.4352 101.556 28.4445 103.871 27.0128 106.421C25.5815 108.97 24.6589 111.767 23.745 114.545L22.9453 128.869C25.9661 123.729 28.3908 117.688 29.0458 111.763C28.3757 111.703 27.7056 111.643 27.0356 111.583C28.3834 111.378 29.5149 110.401 30.2346 109.243C30.9546 108.085 31.3252 106.749 31.6868 105.435C30.8692 105.557 30.0516 105.678 29.234 105.799C31.1549 104.518 32.5472 102.469 33.0314 100.211Z" fill="black"/>
</g>
<path d="M22.4987 132.225C22.4987 132.225 15.9419 124.377 16.0174 116.885H18.666C18.666 116.885 15.7889 114.993 16.0168 113.934C16.2443 112.874 16.3201 108.863 16.3201 108.863L18.7419 109.469C18.7419 109.469 16.9256 108.56 16.6987 107.123C16.4718 105.685 17.2283 99.0254 17.2283 99.0254C17.2283 99.0254 20.1796 102.128 21.0878 105.307C21.996 108.485 24.3796 112.193 23.6798 121.88C22.98 131.567 22.4987 132.225 22.4987 132.225Z" fill="#455A64"/>
<path d="M25.8189 132.966C25.8189 132.966 32.9226 128.234 34.5008 122.194L32.3712 121.614C32.3712 121.614 35.0983 120.723 35.1469 119.821C35.1956 118.919 36.0122 115.678 36.0122 115.678L33.9328 115.635C33.9328 115.635 35.5917 115.302 36.089 114.196C36.586 113.09 37.4346 107.57 37.4346 107.57C37.4346 107.57 34.3831 109.419 32.9575 111.776C31.5319 114.133 28.8042 116.592 27.2477 124.533C25.6916 132.474 25.8189 132.966 25.8189 132.966Z" fill="#455A64"/>
<path d="M19.0167 105.869C19.0195 105.869 19.0282 105.896 19.0423 105.95C19.0579 106.014 19.0775 106.093 19.1015 106.191C19.1527 106.416 19.2237 106.727 19.3136 107.122C19.497 107.93 19.7395 109.105 20.0173 110.56C20.577 113.471 21.2378 117.515 21.7591 122.008C22.2768 126.503 22.5559 130.591 22.6752 133.553C22.7367 135.033 22.7687 136.232 22.7744 137.061C22.777 137.465 22.7789 137.784 22.7802 138.015C22.7789 138.117 22.7783 138.198 22.7776 138.264C22.776 138.32 22.7738 138.348 22.7709 138.348C22.768 138.348 22.7645 138.32 22.7603 138.264C22.7568 138.198 22.752 138.117 22.7466 138.016C22.7376 137.785 22.7251 137.466 22.7095 137.062C22.6835 136.235 22.6336 135.037 22.5575 133.558C22.408 130.6 22.1107 126.517 21.5936 122.027C21.0727 117.538 20.4307 113.496 19.9015 110.582C19.6384 109.125 19.4138 107.947 19.2499 107.135C19.1731 106.738 19.1123 106.425 19.0685 106.198C19.0509 106.099 19.0368 106.019 19.0253 105.954C19.017 105.899 19.0138 105.87 19.0167 105.869Z" fill="#263238"/>
<path d="M21.5877 137.031C21.5877 137.031 15.5873 130.222 13.7243 126.107L15.1307 125.506C14.1112 125.674 13.0667 125.236 12.2763 124.571C11.4859 123.905 10.9054 123.03 10.3361 122.168L12.1889 121.855C10.5041 121.382 9.01967 120.232 8.14062 118.719C10.3272 119.078 12.3051 120.279 13.9352 121.78C15.2552 122.996 16.3729 124.407 17.4465 125.849C17.9701 126.552 18.4283 127.301 18.8101 128.091C19.8181 130.175 21.5912 134.53 21.5877 137.031Z" fill="#455A64"/>
<path d="M34.5987 111.533C34.6013 111.535 34.5926 111.558 34.5731 111.604C34.5488 111.657 34.519 111.723 34.4829 111.802C34.3942 111.988 34.2736 112.241 34.1213 112.559C33.8019 113.214 33.3485 114.166 32.799 115.347C31.6986 117.707 30.247 121.001 28.8125 124.707C27.3805 128.415 26.2387 131.829 25.465 134.315C25.0774 135.559 24.7725 136.568 24.5686 137.267C24.4669 137.605 24.3862 137.873 24.3267 138.07C24.2998 138.153 24.2781 138.222 24.2598 138.278C24.2438 138.325 24.2342 138.348 24.2314 138.347C24.2285 138.347 24.2326 138.321 24.2432 138.273C24.257 138.216 24.2739 138.146 24.2944 138.061C24.3462 137.862 24.417 137.591 24.5062 137.249C24.6912 136.544 24.9789 135.529 25.3523 134.281C26.0979 131.783 27.2234 128.359 28.6573 124.646C30.0938 120.936 31.5642 117.646 32.6928 115.296C33.2566 114.121 33.7264 113.176 34.0637 112.53C34.2275 112.217 34.3578 111.969 34.4534 111.787C34.4957 111.71 34.5299 111.647 34.5584 111.596C34.5824 111.553 34.5962 111.532 34.5987 111.533Z" fill="#263238"/>
<path d="M22.0977 139.947C22.0862 139.949 22.0526 139.775 22.0017 139.462C21.9534 139.148 21.8731 138.695 21.7614 138.14C21.5397 137.028 21.1518 135.506 20.5425 133.886C19.9294 132.268 19.2145 130.869 18.6459 129.888C18.3624 129.397 18.1237 129.004 17.9525 128.736C17.7835 128.468 17.6942 128.316 17.7038 128.309C17.7131 128.302 17.8203 128.442 18.0065 128.701C18.1947 128.957 18.4494 129.342 18.7473 129.828C19.3445 130.797 20.0814 132.198 20.6984 133.827C21.3118 135.457 21.684 136.995 21.8773 138.117C21.9745 138.679 22.0376 139.136 22.0661 139.453C22.0974 139.77 22.1093 139.946 22.0977 139.947Z" fill="#263238"/>
<path d="M30.0153 138.348H16.8828V141.027H30.0153V138.348Z" fill="#24B24B"/>
<path d="M18.1367 141.025L19.5575 150.036H27.4929L28.817 141.025H18.1367Z" fill="#24B24B"/>
<path d="M29.2102 141.025C29.2102 141.071 26.7261 141.108 23.6621 141.108C20.5971 141.108 18.1133 141.071 18.1133 141.025C18.1133 140.979 20.5971 140.941 23.6621 140.941C26.7258 140.941 29.2102 140.979 29.2102 141.025Z" fill="#263238"/>
<path d="M86.4062 143.383V150.029L99.8079 149.964C99.7106 148.616 92.3554 145.927 92.3554 145.927L92.5016 143.383H86.4062Z" fill="#455A64"/>
<g opacity="0.6">
<path d="M88.5717 145.334C88.3147 145.413 88.1409 145.722 88.2046 145.998C88.2686 146.273 88.5646 146.463 88.8229 146.39C89.0811 146.316 89.3006 145.95 89.2081 145.685C89.1156 145.419 88.7563 145.215 88.5224 145.353" fill="white"/>
</g>
<path d="M86.4062 150.04V148.979L99.2015 149.13C99.2015 149.13 99.8687 149.531 99.8079 149.975L86.4062 150.04Z" fill="#263238"/>
<path d="M92.3561 146.061C92.3552 146.13 92.0301 146.166 91.713 146.392C91.3901 146.61 91.2294 146.911 91.1693 146.885C91.1091 146.872 91.2003 146.459 91.5888 146.191C91.9747 145.921 92.3696 145.997 92.3561 146.061Z" fill="#263238"/>
<path d="M94.1169 146.679C94.1326 146.746 93.8522 146.867 93.6356 147.162C93.4103 147.45 93.3591 147.767 93.2942 147.765C93.233 147.776 93.1825 147.373 93.4586 147.012C93.7322 146.648 94.1146 146.614 94.1169 146.679Z" fill="#263238"/>
<path d="M94.8986 148.371C94.8397 148.387 94.744 148.043 94.9059 147.663C95.0653 147.282 95.3699 147.128 95.3984 147.185C95.4359 147.242 95.2413 147.447 95.113 147.761C94.9776 148.072 94.9629 148.363 94.8986 148.371Z" fill="#263238"/>
<path d="M92.2248 144.166C92.1986 144.23 91.8984 144.139 91.5308 144.171C91.1624 144.195 90.878 144.33 90.8434 144.272C90.805 144.222 91.0808 143.963 91.5144 143.932C91.9474 143.897 92.2559 144.112 92.2248 144.166Z" fill="#263238"/>
<path d="M92.2972 146.358C92.3071 146.359 92.341 146.216 92.326 145.952C92.3068 145.691 92.2271 145.302 91.9711 144.904C91.8418 144.708 91.6722 144.512 91.4469 144.352C91.3381 144.276 91.1682 144.192 90.9945 144.273C90.8316 144.351 90.7397 144.533 90.7305 144.711C90.7474 145.395 91.2386 146.026 91.9081 146.266C92.5948 146.506 93.3209 146.209 93.7183 145.728C93.8156 145.606 93.9097 145.481 93.9586 145.318C93.9813 145.238 93.9922 145.144 93.9605 145.052C93.9301 144.962 93.8585 144.89 93.7785 144.86C93.6165 144.804 93.4793 144.853 93.3609 144.901C93.2444 144.957 93.1445 145.015 93.0489 145.079C92.6687 145.332 92.4261 145.624 92.2828 145.837C92.1388 146.051 92.0889 146.188 92.0981 146.193C92.1282 146.223 92.3756 145.668 93.1186 145.201C93.2978 145.098 93.533 144.951 93.7225 145.016C93.8057 145.051 93.8386 145.148 93.7989 145.265C93.7637 145.379 93.678 145.495 93.5884 145.603C93.2258 146.029 92.5698 146.287 91.9679 146.073C91.3734 145.873 90.9247 145.269 90.9068 144.723C90.91 144.596 90.9753 144.48 91.0646 144.435C91.1503 144.389 91.2629 144.428 91.3631 144.494C91.5689 144.632 91.7349 144.81 91.862 144.988C92.1154 145.349 92.2124 145.713 92.2527 145.961C92.2892 146.213 92.2812 146.357 92.2972 146.358Z" fill="#263238"/>
<path d="M81.5108 144.354L81.738 146.063L81.5863 149.921L76.5617 150.043L76.3828 146.063L76.9543 143.699L81.5108 144.354Z" fill="#455A64"/>
<path d="M79.1008 149.632C79.0701 149.633 79.1427 148.453 79.2624 146.996C79.3821 145.539 79.504 144.357 79.5344 144.355C79.5648 144.354 79.4925 145.534 79.3728 146.991C79.2531 148.448 79.1312 149.63 79.1008 149.632Z" fill="#263238"/>
<path d="M81.6074 149.279L76.5312 149.338V150.044L81.6109 150.038L81.6074 149.279Z" fill="#263238"/>
<path d="M76.5438 147.059C76.5362 147.053 76.5794 146.979 76.6725 146.856C76.7656 146.732 76.9134 146.562 77.1205 146.377C77.3275 146.192 77.5963 145.991 77.932 145.832C78.2645 145.67 78.6699 145.556 79.1032 145.561C79.9723 145.562 80.7032 145.987 81.0632 146.412C81.2501 146.621 81.3653 146.818 81.4312 146.958C81.4958 147.1 81.5198 147.182 81.5112 147.186C81.4837 147.201 81.3624 146.872 80.9851 146.486C80.6197 146.098 79.9262 145.715 79.1016 145.713C78.2795 145.708 77.6021 146.124 77.1906 146.459C76.7694 146.801 76.565 147.076 76.5438 147.059Z" fill="#263238"/>
<path d="M79.0805 36.7121L79.0273 54.0837L86.4801 54.4392L86.6955 50.2139C86.6955 50.2139 89.3425 50.7397 90.0254 48.2811C90.4619 46.7105 90.3528 34.5742 90.3528 34.5742L79.0805 36.7121Z" fill="#B78876"/>
<path d="M91.3358 35.8031C90.1621 36.1391 89.907 38.0578 89.907 38.0578L88.0658 42.1247C87.1278 41.3903 85.8683 41.4325 85.6299 43.0809C85.4578 44.2719 86.9387 44.5129 86.9387 44.5129C86.0766 45.9801 85.4917 47.1666 84.2366 48.5621C82.8782 50.0725 82.117 50.2246 80.6437 50.2492H79.019C79.019 50.2492 78.2238 47.6678 76.7512 41.2118C75.1173 34.0495 83.5867 34.9721 85.157 33.1439C87.7134 30.166 95.0363 34.7439 91.3358 35.8031Z" fill="#263238"/>
<path d="M93.4002 34.2467C93.2789 33.4842 92.5484 32.8461 91.7775 32.8947C92.0536 32.5075 91.9218 31.9254 91.5666 31.6093C91.2114 31.2928 90.6949 31.2109 90.2248 31.2819C89.7544 31.353 89.317 31.5594 88.8872 31.7632C88.8101 31.3997 88.3503 30.7978 88.0235 30.6202C87.3682 30.2637 86.9573 30.2637 86.5858 30.2637C84.2991 30.2634 83.0933 31.8307 81.8664 33.4259C81.6559 33.6998 81.4472 34.0054 81.1247 34.1296C80.9074 34.2134 80.6671 34.2026 80.4341 34.207C78.6924 34.241 77.0066 35.2893 76.2056 36.8365C75.4047 38.3837 74.8072 41.9648 76.8789 44.1846L78.1282 46.9728L90.0744 37.5072C90.1592 37.5514 90.908 37.9165 91.4843 37.6134C92.9147 36.8605 92.3147 35.6048 92.3147 35.6048C92.4287 35.5456 93.5215 35.0093 93.4002 34.2467Z" fill="#263238"/>
<path d="M82.3455 43.5547C82.3939 43.5496 82.4675 44.1525 82.303 44.8738C82.1427 45.5963 81.8175 46.109 81.7763 46.0837C81.7263 46.0587 81.9654 45.5266 82.119 44.8322C82.2774 44.1394 82.2899 43.556 82.3455 43.5547Z" fill="#455A64"/>
<path d="M83.2472 42.7031C83.2974 42.7054 83.3083 43.2798 83.1781 43.9729C83.0497 44.6667 82.8324 45.1985 82.7848 45.1825C82.7332 45.1662 82.867 44.6187 82.9924 43.9383C83.1204 43.2587 83.1934 42.6999 83.2472 42.7031Z" fill="#455A64"/>
<path d="M85.823 39.8359C85.8409 39.8608 85.6297 40.0148 85.3618 40.3287C85.0914 40.6394 84.7839 41.1255 84.5586 41.7149C84.333 42.3047 84.2092 42.8698 84.1135 43.2772C84.0198 43.6858 83.9554 43.9389 83.9289 43.9341C83.9039 43.93 83.9218 43.6698 83.9823 43.2525C84.0454 42.8365 84.1497 42.257 84.3826 41.6471C84.6153 41.0372 84.957 40.5376 85.2639 40.2381C85.5692 39.9344 85.8124 39.8173 85.823 39.8359Z" fill="#455A64"/>
<path d="M86.8683 37.8869C86.8901 37.8808 86.9665 38.0549 87.0129 38.357C87.0603 38.6574 87.0616 39.0882 86.9483 39.5429C86.8334 39.9976 86.6293 40.3765 86.4459 40.6194C86.2625 40.8638 86.1131 40.9813 86.0968 40.9656C86.0501 40.9298 86.5544 40.3691 86.7653 39.4968C86.9905 38.629 86.8107 37.8965 86.8683 37.8869Z" fill="#455A64"/>
<path d="M77.9766 42.2243C77.9513 42.2697 77.7228 42.1907 77.4668 42.0476C77.2108 41.9046 77.0236 41.7516 77.0492 41.7062C77.0745 41.6608 77.3027 41.7398 77.559 41.8828C77.815 42.0259 78.0022 42.1788 77.9766 42.2243Z" fill="#455A64"/>
<path d="M81.5754 40.3675C81.6247 40.3745 81.5943 40.7429 81.3626 41.123C81.1335 41.5051 80.8218 41.7035 80.7927 41.6632C80.7571 41.6216 80.9914 41.3765 81.201 41.0254C81.4144 40.6769 81.5223 40.3557 81.5754 40.3675Z" fill="#455A64"/>
<path d="M82.6861 39.7739C82.7341 39.7845 82.6561 40.2258 82.3546 40.677C82.0561 41.1304 81.6801 41.3736 81.6513 41.3336C81.6161 41.2913 81.9175 40.9986 82.1972 40.5726C82.481 40.1496 82.6337 39.7579 82.6861 39.7739Z" fill="#455A64"/>
<path d="M88.1883 32.5005C88.1751 32.5156 88.0484 32.3943 87.7796 32.2413C87.5108 32.0935 87.0814 31.9322 86.531 31.9185C85.9857 31.9015 85.3163 32.0314 84.699 32.4106C84.0814 32.7895 83.5351 33.4068 83.1387 34.1489C82.8497 34.6881 82.6497 35.2497 82.5054 35.7777L82.4756 35.8868L82.3755 35.8343C81.8222 35.5437 81.2359 35.4161 80.7127 35.409C80.1873 35.3946 79.7249 35.4909 79.3591 35.6135C78.6225 35.865 78.2731 36.1962 78.2542 36.1661C78.2484 36.1594 78.3313 36.0765 78.5035 35.9453C78.6769 35.8164 78.9486 35.649 79.3211 35.5063C79.6926 35.3652 80.1681 35.2509 80.7147 35.2541C81.259 35.25 81.8743 35.3732 82.4606 35.6746L82.3307 35.7313C82.4728 35.1914 82.6747 34.6154 82.9726 34.0593C83.3819 33.2938 83.9544 32.6522 84.6094 32.2618C85.2657 31.8705 85.9684 31.7501 86.5371 31.785C87.1111 31.8167 87.5521 32.0061 87.8177 32.1783C87.9486 32.2698 88.0468 32.3437 88.1041 32.4055C88.1636 32.4634 88.1927 32.4957 88.1883 32.5005Z" fill="#455A64"/>
<path d="M92.1064 33.4456C92.0929 33.4421 92.3137 33.39 92.5339 33.6396C92.6347 33.7599 92.7271 33.9493 92.7054 34.1836C92.6827 34.4172 92.5214 34.6581 92.2721 34.8024C92.027 34.9525 91.6913 35.0028 91.3668 34.9269C91.0404 34.8559 90.7265 34.6828 90.4328 34.4741C90.1364 34.2671 89.852 34.0261 89.5192 33.8482C89.187 33.6677 88.8129 33.5362 88.418 33.461C87.6248 33.3132 86.8366 33.4024 86.171 33.6149C85.5016 33.8296 84.9457 34.1519 84.5099 34.4591C83.6398 35.0847 83.2107 35.6082 83.1841 35.5813C83.1755 35.5736 83.275 35.4386 83.4788 35.2143C83.6849 34.9925 83.996 34.6792 84.4315 34.3516C84.8654 34.0248 85.4283 33.6812 86.1172 33.4498C86.804 33.2204 87.6228 33.1212 88.4529 33.2757C88.8664 33.3544 89.2593 33.494 89.6081 33.6863C89.9604 33.8783 90.2484 34.1282 90.5336 34.3327C90.8168 34.5397 91.107 34.7039 91.4017 34.7746C91.6951 34.8488 91.9841 34.8117 92.2059 34.6869C92.4286 34.5679 92.5729 34.364 92.6008 34.1708C92.6289 33.9746 92.5585 33.7989 92.4763 33.6853C92.2993 33.4479 92.0968 33.4668 92.1064 33.4456Z" fill="#455A64"/>
<path d="M126.827 46.7727C126.546 46.5228 122.751 48.1151 122.751 48.1151C122.751 48.1151 119.919 50.3362 118.753 51.6486L118.033 52.2473L107.263 60.623L94.0149 55.1116L91.1406 62.5026C91.1406 62.5026 106.014 68.4233 108.28 67.4095C110.742 66.3078 119.91 56.7129 119.931 56.6799L119.932 56.6796L121.256 55.4041C121.256 55.4041 121.956 55.3903 122.487 55.359C123.018 55.3276 124.573 54.2943 124.573 54.2943C124.573 54.2943 124.798 53.8901 124.874 53.3884C124.951 52.8866 124.587 52.7305 124.587 52.7305C124.587 52.7305 124.674 52.4057 124.614 51.9829C124.553 51.5602 123.988 51.0697 123.988 51.0697C123.988 51.0697 124.211 50.8876 124.342 50.4006C124.473 49.9132 123.842 49.4534 123.842 49.4534C123.842 49.4534 126.045 47.9554 126.58 47.6927C127.115 47.4306 127.109 47.0223 126.827 46.7727Z" fill="#B78876"/>
<path d="M95.9666 122.462C96.0108 121.976 96.0351 121.602 96.0351 121.368L97.5311 97.4852C97.5311 97.4852 96.2735 90.5108 95.6789 88.6599L90.3308 86.5898L83.2066 89.3649C83.1593 88.7898 83.1305 88.4372 83.1305 88.4372L72.6364 92.0644C72.6364 92.0644 72.3647 99.2234 72.6364 101.403C72.7234 102.102 72.9983 103.911 73.3308 106.042C73.3308 106.042 73.6687 110.673 73.7381 110.932C73.9925 111.876 74.0514 114.188 74.0514 116.505C74.0514 119.45 74.2114 122.953 74.3951 124.619C74.5788 126.285 74.6681 144.6 74.6681 144.6H82.4111L83.4053 115.427C83.5721 112.3 83.8226 107.519 83.9833 104.061L85.8018 114.832C85.8018 115.227 86.9084 121.386 86.9084 121.386C86.9084 121.386 86.5032 124.275 86.4338 127.229C86.3061 132.659 85.6677 144.6 85.6677 144.6H93.2476C93.2476 144.6 95.5237 127.356 95.9666 122.462Z" fill="#263238"/>
<path d="M97.2703 96.0554C97.2604 96.0727 96.9855 95.9454 96.5718 95.683C96.1583 95.4215 95.6127 95.0158 95.0742 94.4958C94.5366 93.9745 94.1129 93.4423 93.838 93.0378C93.5625 92.633 93.4259 92.3623 93.4428 92.3521C93.4643 92.3386 93.6351 92.5867 93.9315 92.9697C94.2275 93.3527 94.6582 93.8647 95.1878 94.3783C95.7183 94.8903 96.2441 95.3041 96.6364 95.5873C97.0294 95.8711 97.2828 96.0337 97.2703 96.0554Z" fill="#455A64"/>
<path d="M83.7549 100.394C83.7447 100.399 83.6925 100.315 83.6065 100.156C83.5188 99.9987 83.4065 99.7631 83.2804 99.4665C83.0279 98.8739 82.7456 98.0224 82.5751 97.0512C82.4068 96.079 82.3844 95.1824 82.4218 94.5392C82.4397 94.2176 82.466 93.9577 82.4954 93.7801C82.5229 93.6022 82.5434 93.5046 82.5546 93.5059C82.5812 93.5088 82.5444 93.9043 82.5376 94.5427C82.5303 95.1807 82.5706 96.064 82.7367 97.023C82.905 97.9814 83.1655 98.8259 83.3882 99.4239C83.6103 100.023 83.7789 100.382 83.7549 100.394Z" fill="#455A64"/>
<path d="M84.8817 109.386C84.8699 109.388 84.8353 109.24 84.7822 108.971C84.7265 108.667 84.6561 108.284 84.5726 107.828C84.4039 106.825 84.1822 105.507 83.9371 104.049C83.5089 101.37 83.2174 99.5458 83.082 98.6975C83.1176 98.684 83.2676 99.2821 83.4481 100.244C83.6327 101.208 83.8651 102.544 84.1067 104.021C84.3479 105.498 84.5531 106.838 84.6926 107.809C84.7547 108.268 84.8068 108.654 84.8484 108.961C84.8807 109.233 84.8935 109.385 84.8817 109.386Z" fill="#455A64"/>
<path d="M66.603 69.5527C66.603 69.5527 65.5799 76.7508 65.3889 79.2731C65.274 80.7915 66.8161 82.8075 67.993 82.955C69.1889 83.1047 73.1396 83.3383 73.1396 83.3383L73.4689 78.8241L73.3662 77.9265L72.1342 77.6945L72.5054 70.5345L66.603 69.5527Z" fill="#B78876"/>
<path d="M72.3443 70.7773C72.3561 70.777 72.3718 70.9159 72.39 71.1684C72.4089 71.4205 72.4249 71.7863 72.4339 72.2385C72.4544 73.1428 72.4336 74.393 72.3561 75.7703C72.2787 77.1479 72.1689 78.3917 72.0793 79.2909C72.0345 79.7405 71.9942 80.1037 71.9622 80.3546C71.9305 80.6055 71.9072 80.7434 71.8953 80.7425C71.8835 80.7415 71.8841 80.6013 71.8956 80.3489C71.9126 80.0609 71.9334 79.7037 71.9584 79.281C72.0188 78.3418 72.0976 77.1165 72.1846 75.761C72.262 74.3866 72.302 73.1412 72.3126 72.2391C72.3168 71.8161 72.3203 71.4586 72.3232 71.1706C72.3257 70.9178 72.3328 70.7777 72.3443 70.7773Z" fill="#AA6550"/>
<g opacity="0.3">
<path d="M72.7314 92.1963C74.7474 92.9451 76.9567 93.0081 79.0991 92.8206C81.2415 92.6331 83.3567 92.2049 85.4978 92.0017C88.7346 91.6945 92.0203 91.9073 95.1909 92.6292C95.4155 92.6804 95.6472 92.7342 95.8741 92.6942C96.101 92.6542 96.3237 92.4932 96.3592 92.2654C96.4146 91.9076 96.0229 91.658 95.6891 91.5175C88.4024 88.4523 79.8146 88.6443 72.6719 92.0321" fill="black"/>
</g>
<path d="M103.602 58.3847L92.2373 52.7262C89.2504 52.3774 86.8351 52.49 86.8351 52.49H79.3128C79.3128 52.49 70.1967 55.1786 68.6924 57.6567L64.7852 69.3694L72.5084 70.5361L73.4719 78.9505C73.4719 78.9505 72.5135 88.6942 72.5135 90.1102C72.5135 91.5262 72.6341 92.067 72.6341 92.067C72.6341 92.067 88.0879 89.7172 91.8933 90.9562C95.6988 92.1953 96.7272 92.067 96.7272 92.067C96.7272 92.067 96.4092 88.0225 96.1269 85.6762L95.2447 73.9345L94.5932 64.969L101.745 67.1578L103.602 58.3847Z" fill="#24B24B"/>
<path d="M72.4373 70.6289C72.4092 70.6321 72.3333 70.1444 72.1618 69.3658C71.9897 68.5876 71.7052 67.5207 71.2677 66.378C70.83 65.235 70.3292 64.2362 69.942 63.5249C69.7583 63.1946 69.6025 62.914 69.4754 62.6852C69.3641 62.4874 69.3071 62.3751 69.3177 62.3693C69.3282 62.3639 69.4047 62.4654 69.5349 62.6545C69.6661 62.8426 69.8441 63.122 70.0524 63.4727C70.4697 64.1738 70.9922 65.1729 71.4335 66.3252C71.8748 67.4772 72.1423 68.5578 72.2841 69.345C72.3545 69.7389 72.4009 70.0593 72.421 70.2817C72.4428 70.5041 72.4492 70.6276 72.4373 70.6289Z" fill="#263238"/>
<path d="M87.0123 73.9532C87.0178 73.9551 87.0037 74.0082 86.9723 74.1077C86.9333 74.2245 86.8853 74.3676 86.8274 74.5407C86.7643 74.7289 86.6831 74.9573 86.5768 75.2181C86.4722 75.4796 86.3602 75.7807 86.2127 76.1033C85.9346 76.7561 85.5643 77.5164 85.1173 78.3417C84.6623 79.1621 84.1256 80.045 83.5074 80.9346C82.8834 81.8207 82.2379 82.6274 81.6226 83.3362C81.0005 84.0389 80.4127 84.6473 79.8949 85.1321C79.6424 85.3813 79.3979 85.5893 79.188 85.7775C78.9794 85.9666 78.7925 86.1215 78.6373 86.245C78.4946 86.3586 78.3765 86.4527 78.2802 86.5292C78.1973 86.5929 78.1522 86.6239 78.1487 86.6197C78.1451 86.6156 78.1832 86.5756 78.2591 86.5039C78.3499 86.421 78.461 86.3196 78.5957 86.1967C78.7442 86.0658 78.9243 85.9045 79.1266 85.7097C79.3298 85.5157 79.5679 85.3026 79.8143 85.0489C80.3199 84.5551 80.8959 83.9417 81.5087 83.237C82.1144 82.5266 82.7525 81.7215 83.3733 80.8405C83.9883 79.9557 84.5256 79.0809 84.9855 78.2684C85.4373 77.4514 85.8165 76.7001 86.1071 76.0562C86.2607 75.7378 86.3797 75.4412 86.492 75.1839C86.6059 74.9269 86.6959 74.7026 86.7679 74.5183C86.8373 74.3497 86.8943 74.2105 86.9413 74.0969C86.9826 74.0009 87.0069 73.9513 87.0123 73.9532Z" fill="#263238"/>
<path d="M92.2642 53.5022C92.2972 53.5176 91.8393 53.9713 91.6655 54.9281C91.5769 55.4001 91.575 55.9781 91.6761 56.6078C91.7734 57.2379 91.9634 57.9201 92.1564 58.6369C92.5484 60.0693 92.9638 61.3486 93.279 62.2696C93.4294 62.7044 93.5554 63.0696 93.6559 63.3595C93.7449 63.6171 93.7897 63.7614 93.7788 63.7659C93.7679 63.7704 93.702 63.6344 93.5938 63.3838C93.4863 63.1329 93.3375 62.7672 93.165 62.3109C92.8201 61.3982 92.3849 60.1201 91.9913 58.6827C91.798 57.9643 91.6111 57.2773 91.5202 56.6315C91.4252 55.9877 91.4399 55.3886 91.5471 54.9048C91.6505 54.4193 91.8338 54.0545 91.9871 53.8264C92.1423 53.5979 92.2578 53.4961 92.2642 53.5022Z" fill="#263238"/>
<path d="M70.8167 65.8315C70.8283 65.8443 70.6257 66.0478 70.211 66.2427C69.8023 66.4379 69.1614 66.5989 68.4625 66.493C67.7633 66.3864 67.1991 66.0421 66.867 65.7339C66.5291 65.4245 66.3963 65.1698 66.4113 65.1611C66.4337 65.1435 66.5991 65.3694 66.9435 65.644C67.2833 65.9182 67.827 66.227 68.4875 66.3278C69.1479 66.428 69.7588 66.2952 70.1649 66.1342C70.5755 65.9746 70.8004 65.8078 70.8167 65.8315Z" fill="white"/>
<path d="M92.5988 60.5469C92.604 60.5492 92.571 60.634 92.5032 60.793C92.4344 60.9517 92.3246 61.1824 92.1678 61.472C91.8491 62.0448 91.3313 62.8612 90.4779 63.6823C89.6312 64.4954 88.4104 65.3044 86.8712 65.6452C86.1073 65.8157 85.2721 65.8756 84.4251 65.7501C83.5748 65.6352 82.7374 65.3044 81.9499 64.8704C80.3784 63.9927 79.052 62.882 77.5988 62.3514C76.1579 61.7981 74.7089 61.8621 73.5867 62.1303C72.451 62.4029 71.6222 62.8967 71.0939 63.273C70.5691 63.6621 70.3233 63.9328 70.3086 63.9175C70.3086 63.9175 70.5368 63.6301 71.0548 63.2212C71.5761 62.8253 72.4072 62.3082 73.5579 62.016C74.6942 61.729 76.1726 61.6493 77.6523 62.208C79.1403 62.744 80.4792 63.8602 82.0296 64.7245C82.8072 65.1527 83.6212 65.4746 84.4481 65.5888C85.2728 65.713 86.0891 65.6583 86.8376 65.4954C88.3464 65.17 89.5508 64.3882 90.3966 63.5965C91.2488 62.7978 91.7771 61.9994 92.1108 61.44C92.2753 61.1575 92.394 60.9322 92.4721 60.7786C92.5505 60.6247 92.5937 60.5447 92.5988 60.5469Z" fill="white"/>
<path d="M99.7145 56.4415C99.7231 56.438 99.7833 56.5663 99.8623 56.8098C99.9388 57.0536 100.021 57.4184 100.047 57.8776C100.069 58.3352 100.037 58.8904 99.8684 59.4773C99.7062 60.0639 99.4143 60.6834 98.9692 61.2322C98.5222 61.7839 97.9795 62.1781 97.543 62.581C97.0966 62.9762 96.7596 63.3932 96.575 63.8005C96.3855 64.2044 96.3426 64.572 96.3628 64.8191C96.382 65.0677 96.4348 65.2005 96.4194 65.2056C96.414 65.2076 96.398 65.1762 96.3721 65.1135C96.3468 65.0508 96.3164 64.9541 96.2982 64.8258C96.2569 64.5711 96.2831 64.1804 96.4671 63.7525C96.6444 63.3221 96.9913 62.8748 97.4386 62.468C97.8777 62.0524 98.4114 61.6568 98.8396 61.1269C99.7094 60.06 99.9542 58.7669 99.9286 57.8818C99.9074 56.98 99.6783 56.4504 99.7145 56.4415Z" fill="white"/>
<path d="M81.2324 83.4204C81.2349 83.4309 81.1172 83.4745 80.8989 83.5365C80.6807 83.5977 80.362 83.6805 79.9572 83.7378C79.5549 83.7861 79.0519 83.8226 78.521 83.654C78.2577 83.5708 77.9956 83.4281 77.7677 83.23C77.5412 83.0309 77.3517 82.7897 77.1533 82.5577C76.9565 82.3234 76.7447 82.1237 76.5105 81.9644C76.2753 81.8076 76.0241 81.694 75.777 81.6127C75.2801 81.4489 74.7975 81.4361 74.4052 81.4812C74.0103 81.5269 73.7037 81.6421 73.5021 81.7356C73.2986 81.8281 73.1924 81.8953 73.1837 81.8821C73.1793 81.8761 73.2733 81.7903 73.4727 81.6777C73.6701 81.5641 73.9805 81.4274 74.3885 81.3644C74.794 81.3023 75.2986 81.3026 75.8231 81.4661C76.0842 81.5477 76.3501 81.6639 76.601 81.8284C76.85 81.9941 77.0804 82.2111 77.2801 82.4492C77.4817 82.6857 77.6657 82.9205 77.8759 83.1077C78.0858 83.2927 78.3245 83.4265 78.5693 83.5081C79.0618 83.6741 79.5485 83.654 79.9441 83.6207C80.7399 83.5285 81.2257 83.389 81.2324 83.4204Z" fill="white"/>
<path d="M95.9466 82.7349C95.9498 82.7397 95.9153 82.7691 95.8455 82.8213C95.7741 82.8709 95.6753 82.955 95.53 83.0347C95.2497 83.2104 94.8129 83.4238 94.2365 83.5758C93.6615 83.7176 92.9431 83.8085 92.1597 83.6958C91.3773 83.6014 90.5361 83.2869 89.7994 82.749C89.065 82.2085 88.4852 81.5698 87.9117 81.0514C87.346 80.5243 86.7709 80.1266 86.2359 79.8968C85.7041 79.6597 85.2285 79.5976 84.905 79.6024C84.5799 79.6078 84.402 79.6565 84.3985 79.6398C84.3972 79.6344 84.4401 79.6197 84.5245 79.5966C84.6084 79.572 84.7361 79.5493 84.9025 79.5374C85.233 79.5122 85.7287 79.5582 86.2817 79.7883C86.8365 80.0094 87.4365 80.4107 88.0145 80.9374C88.5997 81.4558 89.1818 82.0882 89.8973 82.6142C90.6129 83.1358 91.4202 83.443 92.1809 83.5435C92.9409 83.6613 93.642 83.5851 94.2081 83.4613C94.7751 83.3272 95.2113 83.1342 95.4977 82.9781C95.7869 82.8251 95.9377 82.7214 95.9466 82.7349Z" fill="white"/>
<path d="M123.144 37.1406C120.161 35.7198 117.581 33.3883 115.868 30.2804C113.758 26.4529 113.266 22.0328 114.48 17.8347C115.696 13.6363 118.473 10.1624 122.301 8.05291C130.202 3.69803 140.174 6.58411 144.529 14.4862C146.638 18.314 147.131 22.7342 145.916 26.9323C144.701 31.1304 141.924 34.6043 138.096 36.7137C133.302 39.3553 127.745 39.3323 123.144 37.1406ZM136.78 8.61419C132.487 6.56907 127.303 6.54731 122.83 9.01227C119.259 10.9803 116.667 14.2219 115.534 18.1387C114.4 22.0558 114.859 26.18 116.828 29.7515C118.796 33.3233 122.037 35.9144 125.954 37.0478C129.871 38.1816 133.996 37.722 137.567 35.7537C141.138 33.7857 143.73 30.5444 144.864 26.6273C145.998 22.7102 145.538 18.586 143.569 15.0145C141.971 12.1156 139.563 9.93963 136.78 8.61419Z" fill="#263238"/>
<path d="M150.749 55.0246C149.794 55.6141 148.541 55.3174 147.951 54.3616L137.251 37.023C137.15 36.8589 137.201 36.6435 137.365 36.5424L139.648 35.1341C139.808 35.0352 140.018 35.0813 140.122 35.2381L151.376 52.1677C152.012 53.1257 151.729 54.4208 150.749 55.0246Z" fill="#263238"/>
<path d="M123.539 36.3108C120.556 34.89 117.975 32.5585 116.262 29.4507C114.153 25.6232 113.66 21.203 114.875 17.0046C116.09 12.8062 118.867 9.33227 122.695 7.22283C130.597 2.86795 140.568 5.75403 144.923 13.6561C147.032 17.484 147.525 21.9041 146.31 26.1022C145.095 30.3003 142.318 33.7742 138.49 35.8836C133.696 38.5259 128.139 38.5025 123.539 36.3108ZM137.175 7.78475C132.881 5.73963 127.698 5.71787 123.224 8.18283C119.653 10.1508 117.062 13.3924 115.928 17.3092C114.794 21.2264 115.254 25.3505 117.222 28.922C119.19 32.4939 122.431 35.0849 126.349 36.2184C130.266 37.3521 134.39 36.8926 137.962 34.9243C141.533 32.9563 144.124 29.715 145.258 25.7979C146.392 21.8808 145.932 17.7566 143.964 14.1851C142.366 11.2859 139.957 9.11019 137.175 7.78475Z" fill="#455A64"/>
<path d="M151.193 54.7516L151.028 54.8537C150.281 55.3139 149.304 55.0825 148.843 54.3363L137.465 35.8982L140.332 34.1289L151.71 52.5673C152.171 53.3132 151.939 54.2915 151.193 54.7516Z" fill="#455A64"/>
<path d="M118.377 17.6702C118.366 17.6679 118.399 17.4887 118.468 17.1649C118.5 17.0023 118.545 16.8049 118.619 16.5815C118.69 16.3575 118.757 16.0971 118.875 15.8244C118.93 15.6859 118.987 15.5415 119.046 15.3918C119.107 15.242 119.187 15.0935 119.261 14.9358C119.404 14.6167 119.599 14.299 119.796 13.9595C120.214 13.2964 120.734 12.6039 121.362 11.9502C121.999 11.3044 122.677 10.7655 123.329 10.3291C123.663 10.1233 123.975 9.91978 124.29 9.76842C124.446 9.69002 124.592 9.60586 124.74 9.54058C124.888 9.47722 125.031 9.4161 125.168 9.35754C125.437 9.23274 125.696 9.15882 125.918 9.0817C126.139 9.00138 126.335 8.95082 126.497 8.91498C126.819 8.83754 126.997 8.79978 126.999 8.81034C127.002 8.8209 126.828 8.8785 126.513 8.97354C126.355 9.01834 126.163 9.0769 125.946 9.16458C125.728 9.24938 125.475 9.32938 125.211 9.45962C125.077 9.52042 124.937 9.5841 124.792 9.65002C124.647 9.71722 124.504 9.8033 124.351 9.8833C124.042 10.0379 123.736 10.2433 123.408 10.4494C122.769 10.8871 122.102 11.4222 121.474 12.0596C120.854 12.7047 120.338 13.3857 119.917 14.0363C119.72 14.3697 119.523 14.6814 119.377 14.994C119.301 15.1486 119.219 15.2942 119.156 15.4411C119.094 15.5879 119.034 15.7294 118.977 15.8654C118.854 16.1326 118.781 16.3883 118.702 16.6078C118.62 16.827 118.567 17.0206 118.527 17.1799C118.44 17.4974 118.388 17.6724 118.377 17.6702Z" fill="#E0E0E0"/>
</svg>
