<svg width="160" height="160" viewBox="0 0 160 160" fill="none" xmlns="http://www.w3.org/2000/svg">
<path d="M138.137 37.6928C139.613 37.074 140.661 35.5527 140.67 33.7604C140.68 31.4122 138.903 29.5002 136.701 29.4903C134.5 29.48 132.707 31.3754 132.697 33.7236C132.69 35.5325 133.746 37.072 135.237 37.6928C129.102 38.617 129.381 45.2848 129.381 45.2848L143.888 45.3517C143.888 45.3517 144.219 38.6112 138.137 37.6928Z" fill="#F5F5F5"/>
<path d="M52.427 12.7745L42.9467 9.42188L33.5585 12.7294C32.3601 13.2868 31.3086 13.6206 31.3086 14.7201V20.1944C31.3086 23.996 32.3201 27.7633 34.4011 31.0891C36.1524 33.8878 38.8641 36.7697 43.0385 38.6014C46.876 37.3739 49.7406 34.1016 51.4916 31.3028C53.5729 27.9771 54.5841 24.2097 54.5841 20.4081V15.4849C54.5844 13.9172 53.7409 13.1515 52.427 12.7745Z" fill="#F5F5F5"/>
<path d="M46.0937 21.6113C46.0937 20.1617 44.9183 18.9863 43.4687 18.9863C42.0191 18.9863 40.8438 20.1617 40.8438 21.6113C40.8438 22.811 41.6533 23.8116 42.7525 24.1249V28.0494H44.1846V24.1249C45.2841 23.8116 46.0937 22.811 46.0937 21.6113Z" fill="#EBEBEB"/>
<path d="M133.041 63.517L134.658 64.3922L133.931 65.6086L132.299 64.6444L132.329 66.4393H130.935L130.949 64.6294L129.318 65.6086L128.605 64.3922L130.222 63.517L128.605 62.6271L129.318 61.4108L130.949 62.39L130.935 60.5801H132.329L132.299 62.39L133.931 61.4108L134.658 62.6271L133.041 63.517Z" fill="#E0E0E0"/>
<path d="M139.775 63.517L141.392 64.3922L140.665 65.6086L139.034 64.6444L139.063 66.4393H137.669L137.684 64.6294L136.052 65.6086L135.34 64.3922L136.957 63.517L135.34 62.6271L136.052 61.4108L137.684 62.39L137.669 60.5801H139.063L139.034 62.39L140.665 61.4108L141.392 62.6271L139.775 63.517Z" fill="#E0E0E0"/>
<path d="M146.51 63.517L148.127 64.3922L147.4 65.6086L145.768 64.6444L145.798 66.4393H144.404L144.418 64.6294L142.787 65.6086L142.074 64.3922L143.691 63.517L142.074 62.6271L142.787 61.4108L144.418 62.39L144.404 60.5801H145.798L145.768 62.39L147.4 61.4108L148.127 62.6271L146.51 63.517Z" fill="#E0E0E0"/>
<path d="M78.0039 140.117V150.057H92.5399H108.572V140.117H78.0039Z" fill="#F5F5F5"/>
<path d="M76.7188 137.338V140.117H109.639V137.338H92.5373H76.7188Z" fill="#EBEBEB"/>
<path d="M93.1764 150.057H108.567V140.117H109.637V137.338H92.5352V139.86L93.1764 150.057Z" fill="#EBEBEB"/>
<path d="M88.4764 141.715H82.2773V143.211H88.4764V141.715Z" fill="#E0E0E0"/>
<path d="M89.4366 145.088H81.4766V148.248H89.4366V145.088Z" fill="white"/>
<path d="M82.707 127.406V137.346H97.2427H113.275V127.406H82.707Z" fill="#F5F5F5"/>
<path d="M81.4219 124.627V127.406H114.342V124.627H97.2401H81.4219Z" fill="#EBEBEB"/>
<path d="M97.876 137.346H113.267V127.406H114.336V124.627H97.2344V127.149L97.876 137.346Z" fill="#EBEBEB"/>
<path d="M93.1795 129.012H86.9805V130.508H93.1795V129.012Z" fill="#E0E0E0"/>
<path d="M94.1397 132.377H86.1797V135.537H94.1397V132.377Z" fill="white"/>
<path d="M148.5 150.13C148.5 150.176 117.828 150.213 80.0014 150.213C42.1614 150.213 11.4961 150.176 11.4961 150.13C11.4961 150.084 42.1614 150.047 80.0014 150.047C117.828 150.047 148.5 150.084 148.5 150.13Z" fill="#263238"/>
<path d="M120.224 72.2435H63.0605C61.9011 72.2435 60.9609 71.3037 60.9609 70.1443V17.5526C60.9609 16.3933 61.9008 15.4531 63.0605 15.4531H120.224C121.383 15.4531 122.323 16.393 122.323 17.5526V70.144C122.323 71.3034 121.383 72.2435 120.224 72.2435Z" fill="white"/>
<path d="M120.226 72.2434C120.226 72.2434 120.276 72.238 120.377 72.2316C120.476 72.2248 120.626 72.2041 120.816 72.149C121.004 72.0901 121.234 71.9935 121.468 71.8175C121.701 71.6424 121.942 71.3887 122.104 71.0386C122.286 70.6927 122.322 70.2556 122.304 69.7778C122.303 69.2994 122.302 68.7762 122.3 68.2098C122.298 67.0764 122.296 65.7689 122.293 64.2972C122.286 58.4073 122.277 49.8885 122.266 39.3625C122.263 34.0985 122.26 28.333 122.256 22.1436C122.253 20.5977 122.25 19.0252 122.247 17.4277C122.21 16.6527 121.675 15.9231 120.934 15.6556C120.567 15.5026 120.164 15.5273 119.753 15.5263C119.344 15.5266 118.933 15.5266 118.521 15.5269C115.224 15.5279 111.831 15.5292 108.351 15.5305C94.4319 15.5324 79.1298 15.5346 63.0681 15.5372C62.5846 15.5378 62.1068 15.7145 61.7436 16.0309C61.3775 16.3436 61.1327 16.7922 61.069 17.2674C61.0361 17.501 61.0492 17.7532 61.0463 18.0025V18.7493C61.0463 19.2469 61.0463 19.7436 61.0463 20.2393C61.0463 22.2226 61.046 24.1929 61.046 26.149C61.0457 30.061 61.045 33.9154 61.0447 37.7029C61.0431 45.278 61.0415 52.5845 61.0399 59.5449C61.0386 63.0252 61.0377 66.4188 61.0364 69.7161C61.038 69.9209 61.031 70.1317 61.0454 70.3266C61.0671 70.5231 61.1071 70.7186 61.1836 70.9013C61.3311 71.2681 61.5881 71.5864 61.9097 71.8108C62.2326 72.0335 62.6178 72.1605 63.0076 72.1692C63.4098 72.1701 63.8108 72.1714 64.2098 72.1724C65.8092 72.173 67.3833 72.174 68.9308 72.1746C75.1206 72.1781 80.8863 72.1817 86.1503 72.1849C96.6764 72.1961 105.194 72.205 111.084 72.2114C114.026 72.2181 116.311 72.2236 117.863 72.2271C118.636 72.2306 119.226 72.2335 119.626 72.2354C120.022 72.2376 120.226 72.2434 120.226 72.2434C120.226 72.2434 120.022 72.2492 119.625 72.252C119.226 72.254 118.635 72.2565 117.862 72.2604C116.31 72.2639 114.025 72.2693 111.083 72.2761C105.194 72.2825 96.6758 72.2914 86.1497 72.3026C80.8857 72.3058 75.1199 72.309 68.9302 72.3129C67.3826 72.3135 65.8086 72.3145 64.2092 72.3151C63.8089 72.3145 63.4066 72.3135 63.0031 72.3129C62.5862 72.3039 62.1724 72.1682 61.8265 71.9298C61.4815 71.6898 61.206 71.349 61.0476 70.9561C60.966 70.7602 60.9222 70.5506 60.8991 70.3397C60.8834 70.1244 60.8911 69.9237 60.8892 69.7164C60.8879 66.4191 60.887 63.0255 60.8857 59.5452C60.8841 52.5849 60.8825 45.278 60.8809 37.7033C60.8806 33.9157 60.8799 30.061 60.8796 26.1493C60.8796 24.1935 60.8793 22.2229 60.8793 20.2396C60.8793 19.7436 60.8793 19.2469 60.8793 18.7497V18.0028C60.8825 17.7548 60.8678 17.5055 60.9036 17.2444C60.9727 16.7298 61.238 16.2437 61.6338 15.9055C62.0265 15.5631 62.5455 15.3711 63.0674 15.3711C79.1292 15.3733 94.4316 15.3756 108.35 15.3775C111.83 15.3788 115.223 15.3797 118.52 15.381C118.932 15.381 119.343 15.3813 119.752 15.3813C120.152 15.3826 120.589 15.3564 120.984 15.5209C121.778 15.8085 122.35 16.5897 122.389 17.4197C122.391 19.0204 122.392 20.5954 122.394 22.1442C122.39 28.3337 122.386 34.0991 122.383 39.3631C122.372 49.8892 122.363 58.4079 122.357 64.2978C122.354 65.7695 122.351 67.077 122.349 68.2105C122.347 68.7769 122.346 69.3001 122.345 69.7785C122.361 70.2524 122.321 70.7061 122.134 71.054C121.966 71.4085 121.72 71.6639 121.483 71.8386C121.244 72.0146 121.01 72.1093 120.82 72.1663C120.627 72.2191 120.477 72.237 120.376 72.2408C120.276 72.2437 120.226 72.2434 120.226 72.2434Z" fill="#263238"/>
<path d="M65.5903 19.3889C65.5903 19.9748 65.1155 20.4497 64.5296 20.4497C63.9436 20.4497 63.4688 19.9748 63.4688 19.3889C63.4688 18.803 63.9436 18.3281 64.5296 18.3281C65.1155 18.3281 65.5903 18.803 65.5903 19.3889Z" fill="#263238"/>
<path d="M67.6311 20.4478C68.217 20.4478 68.6919 19.9728 68.6919 19.387C68.6919 18.8011 68.217 18.3262 67.6311 18.3262C67.0452 18.3262 66.5703 18.8011 66.5703 19.387C66.5703 19.9728 67.0452 20.4478 67.6311 20.4478Z" fill="#263238"/>
<path d="M70.7288 20.4497C71.3146 20.4497 71.7896 19.9748 71.7896 19.3889C71.7896 18.8031 71.3146 18.3281 70.7288 18.3281C70.1429 18.3281 69.668 18.8031 69.668 19.3889C69.668 19.9748 70.1429 20.4497 70.7288 20.4497Z" fill="#263238"/>
<path d="M122.323 22.3977C122.323 22.4437 108.586 22.4809 91.6435 22.4809C74.6957 22.4809 60.9609 22.4434 60.9609 22.3977C60.9609 22.3519 74.6953 22.3145 91.6435 22.3145C108.586 22.3145 122.323 22.3519 122.323 22.3977Z" fill="#263238"/>
<path d="M100.311 43.7919C100.311 43.7919 100.335 43.758 100.384 43.6934C100.397 43.6771 100.41 43.6591 100.425 43.639C100.44 43.6182 100.452 43.5932 100.467 43.5673C100.497 43.5151 100.534 43.4556 100.56 43.3807C100.575 43.3439 100.592 43.3059 100.607 43.2639C100.619 43.2214 100.631 43.1766 100.644 43.1292C100.659 43.0825 100.667 43.0323 100.675 42.9795C100.682 42.9267 100.696 42.8723 100.698 42.8143C100.723 42.5839 100.708 42.3151 100.662 42.0182C100.57 41.4227 100.318 40.7215 99.931 39.9596C99.5451 39.1958 99.0139 38.3743 98.3611 37.518C97.708 36.6614 96.9227 35.7769 96.0203 34.8886C95.1166 34.0012 94.0936 33.11 92.947 32.2652C92.3733 31.8435 91.7681 31.4345 91.1304 31.0495C90.4933 30.6633 89.8213 30.3033 89.1125 29.9913C88.4037 29.6831 87.6558 29.4147 86.867 29.2873C86.4741 29.2268 86.0686 29.1974 85.6696 29.2579C85.4705 29.2886 85.2753 29.3427 85.091 29.4252C84.9099 29.5135 84.7432 29.6313 84.6056 29.7801C84.4734 29.9337 84.3745 30.1126 84.307 30.3023C84.2459 30.4947 84.2136 30.695 84.2059 30.8963C84.1909 31.2995 84.2661 31.6991 84.371 32.0828C84.587 32.8521 84.939 33.5647 85.3256 34.2342C85.7163 34.903 86.1505 35.5299 86.6065 36.119C87.0619 36.7091 87.5371 37.2639 88.0216 37.7859C88.9915 38.8291 89.9934 39.7443 90.9777 40.5411C91.963 41.3369 92.9313 42.0163 93.8568 42.5676C94.7819 43.1187 95.6584 43.5529 96.4609 43.8495C97.2619 44.1468 97.9873 44.3177 98.5893 44.3414C98.8894 44.3532 99.1582 44.3379 99.3841 44.287C99.4414 44.2787 99.4939 44.2582 99.5454 44.2454C99.5969 44.2316 99.6462 44.2179 99.6907 44.1974C99.7358 44.1791 99.779 44.1619 99.82 44.1452C99.8597 44.1257 99.8958 44.1043 99.9307 44.0857C100.002 44.0508 100.057 44.0073 100.105 43.9718C100.129 43.9539 100.153 43.9385 100.172 43.9222C100.19 43.9049 100.207 43.8889 100.221 43.8748C100.28 43.8201 100.311 43.7919 100.311 43.7919C100.311 43.7919 100.282 43.822 100.224 43.8796C100.21 43.894 100.194 43.91 100.176 43.9279C100.157 43.9446 100.134 43.9603 100.11 43.9785C100.062 44.0147 100.007 44.0591 99.9355 44.095C99.9006 44.1142 99.8645 44.1359 99.8248 44.1558C99.7835 44.1727 99.7403 44.1907 99.6949 44.2092C99.6501 44.23 99.6008 44.2441 99.5489 44.2585C99.4971 44.2716 99.4443 44.2927 99.3867 44.3014C99.1595 44.3542 98.8894 44.3711 98.588 44.3606C97.9832 44.3398 97.2552 44.1708 96.4513 43.8751C95.6459 43.5804 94.7669 43.1475 93.8392 42.5974C92.9112 42.047 91.9406 41.3683 90.9528 40.5727C89.9659 39.7763 88.9614 38.8611 87.9893 37.8169C87.5038 37.2943 87.0273 36.7388 86.5704 36.1478C86.1128 35.5574 85.6773 34.9292 85.2849 34.2585C84.8965 33.5871 84.5429 32.8719 84.3249 32.0963C84.2193 31.7094 84.1429 31.3055 84.1582 30.8953C84.1659 30.6905 84.1989 30.4857 84.2616 30.2883C84.3307 30.0927 84.4328 29.9084 84.5694 29.7494C84.7118 29.5955 84.884 29.4739 85.0702 29.383C85.2593 29.2979 85.459 29.2428 85.6616 29.2115C86.0673 29.15 86.4769 29.1801 86.8734 29.2412C87.6683 29.3695 88.419 29.6396 89.1301 29.9491C89.8408 30.2623 90.5144 30.6236 91.1528 31.0108C91.7918 31.3974 92.3979 31.8073 92.972 32.2303C94.1198 33.0774 95.1432 33.9711 96.0469 34.8607C96.9496 35.7516 97.7345 36.6387 98.387 37.4979C99.0392 38.3567 99.5694 39.1811 99.9541 39.9475C100.339 40.7126 100.59 41.4166 100.679 42.0153C100.724 42.3135 100.738 42.5839 100.712 42.8156C100.71 42.8739 100.695 42.9286 100.688 42.9817C100.679 43.0348 100.671 43.0854 100.656 43.1324C100.642 43.1798 100.629 43.2246 100.617 43.2675C100.602 43.3091 100.584 43.3475 100.569 43.3843C100.542 43.4595 100.504 43.5187 100.473 43.5708C100.457 43.5967 100.445 43.6214 100.43 43.6422C100.415 43.662 100.4 43.6799 100.388 43.6959C100.338 43.7599 100.311 43.7919 100.311 43.7919Z" fill="#24B24B"/>
<path d="M103.211 36.776C103.211 36.776 103.206 36.7344 103.2 36.6534C103.198 36.6332 103.197 36.6105 103.195 36.5852C103.191 36.5603 103.184 36.5334 103.178 36.504C103.165 36.4451 103.154 36.3763 103.123 36.3027C103.11 36.2656 103.097 36.2256 103.08 36.1846C103.061 36.1449 103.04 36.1033 103.019 36.0595C102.999 36.0147 102.971 35.9718 102.942 35.927C102.912 35.8832 102.887 35.8329 102.849 35.7884C102.715 35.6 102.524 35.4096 102.292 35.2188C101.827 34.8358 101.172 34.4806 100.376 34.1692C99.5799 33.8563 98.6369 33.5968 97.5796 33.3923C96.522 33.1878 95.3473 33.0502 94.0823 32.9881C92.8174 32.9276 91.4606 32.9433 90.0426 33.0764C89.3338 33.1436 88.61 33.2412 87.8775 33.3785C87.145 33.5145 86.4039 33.6934 85.6673 33.9321C84.9332 34.174 84.1966 34.4713 83.5233 34.9014C83.1895 35.1177 82.8676 35.366 82.6103 35.6764C82.4823 35.8316 82.3726 36.0022 82.29 36.1865C82.2138 36.3731 82.1677 36.5718 82.1642 36.7747C82.1677 36.9776 82.2132 37.1766 82.2894 37.3632C82.3719 37.5475 82.481 37.7184 82.6094 37.8736C82.8663 38.1846 83.1886 38.4326 83.5223 38.6492C84.1956 39.0796 84.9326 39.3772 85.6666 39.6192C86.4033 39.8582 87.1447 40.0368 87.8772 40.1731C88.6097 40.3104 89.3338 40.408 90.0426 40.4752C91.4609 40.608 92.8177 40.624 94.0826 40.5632C95.3476 40.5011 96.5226 40.3635 97.5802 40.159C98.6372 39.9545 99.5805 39.695 100.377 39.382C101.172 39.0707 101.828 38.7155 102.292 38.3324C102.524 38.1417 102.714 37.951 102.849 37.7628C102.886 37.7184 102.912 37.6684 102.942 37.6243C102.971 37.5795 102.999 37.5366 103.018 37.4918C103.04 37.448 103.061 37.4064 103.08 37.3667C103.097 37.3257 103.109 37.2857 103.123 37.2486C103.153 37.175 103.165 37.1062 103.178 37.0473C103.183 37.0179 103.191 36.991 103.194 36.966C103.196 36.9411 103.198 36.9184 103.2 36.8979C103.206 36.8176 103.211 36.776 103.211 36.776C103.211 36.776 103.21 36.8176 103.205 36.8988C103.204 36.9193 103.202 36.942 103.201 36.9673C103.198 36.9923 103.191 37.0195 103.185 37.0492C103.174 37.1084 103.162 37.1779 103.133 37.2521C103.119 37.2896 103.107 37.3299 103.091 37.3712C103.071 37.4112 103.051 37.4534 103.03 37.4976C103.01 37.5427 102.983 37.5862 102.954 37.6313C102.924 37.6758 102.898 37.7264 102.861 37.7712C102.727 37.9616 102.536 38.1542 102.304 38.3468C101.839 38.7337 101.183 39.0924 100.387 39.407C99.5895 39.7232 98.6449 39.9852 97.5866 40.192C96.5278 40.399 95.3514 40.5385 94.0849 40.6025C92.8183 40.6649 91.4596 40.6505 90.0388 40.5187C89.3287 40.4518 88.6033 40.3545 87.8692 40.2176C87.1348 40.0816 86.3917 39.9027 85.6525 39.6633C84.9159 39.4208 84.1758 39.1225 83.497 38.6889C83.1607 38.4704 82.835 38.2201 82.5732 37.904C82.4426 37.7459 82.331 37.5712 82.2462 37.382C82.1678 37.19 82.1207 36.9846 82.1172 36.775C82.1207 36.5654 82.1684 36.36 82.2468 36.1683C82.3313 35.9792 82.4436 35.8048 82.5742 35.6467C82.8362 35.3308 83.1617 35.0803 83.4983 34.8624C84.177 34.4291 84.9169 34.1308 85.6535 33.8886C86.3927 33.6492 87.1354 33.4704 87.8698 33.3347C88.6039 33.1977 89.329 33.1004 90.0391 33.0336C91.4596 32.9017 92.8183 32.8873 94.0849 32.9497C95.3514 33.0137 96.5278 33.1532 97.5866 33.36C98.6449 33.5667 99.5895 33.8288 100.387 34.1449C101.183 34.4595 101.839 34.8179 102.304 35.2051C102.536 35.3977 102.727 35.5904 102.861 35.7808C102.898 35.8256 102.924 35.8761 102.954 35.9206C102.983 35.9657 103.01 36.0092 103.03 36.0547C103.051 36.0988 103.072 36.1411 103.091 36.1811C103.107 36.2224 103.12 36.2627 103.133 36.3001C103.162 36.3744 103.174 36.4438 103.185 36.503C103.191 36.5328 103.198 36.5596 103.201 36.5849C103.202 36.6102 103.204 36.6329 103.205 36.6534C103.21 36.7344 103.211 36.776 103.211 36.776Z" fill="#24B24B"/>
<path d="M99.3656 28.0483C99.3656 28.0483 99.33 28.0262 99.2622 27.9817C99.2452 27.9705 99.226 27.958 99.2052 27.9443C99.1835 27.9318 99.1579 27.9209 99.131 27.9078C99.0769 27.8819 99.0152 27.8489 98.9384 27.8275C98.9006 27.8156 98.8612 27.8009 98.8187 27.7891C98.7755 27.7804 98.7297 27.7712 98.6817 27.7612C98.6344 27.7494 98.5832 27.7449 98.53 27.7408C98.4769 27.7376 98.4215 27.727 98.3636 27.7292C98.132 27.7203 97.8648 27.7539 97.5719 27.8204C96.9844 27.9532 96.3022 28.2534 95.5684 28.6915C94.8331 29.1289 94.05 29.7158 93.2411 30.4259C92.4315 31.1363 91.603 31.9808 90.779 32.9424C89.956 33.9049 89.1374 34.9868 88.3736 36.1891C87.9924 36.7904 87.626 37.4224 87.2859 38.0854C86.9444 38.7478 86.6318 39.4428 86.3694 40.1715C86.1108 40.8998 85.8945 41.6643 85.8219 42.4598C85.7886 42.8563 85.7873 43.2627 85.875 43.6563C85.9192 43.8524 85.9867 44.0438 86.082 44.2217C86.1825 44.3964 86.3118 44.5545 86.4696 44.6816C86.6321 44.8028 86.8171 44.8889 87.0113 44.9433C87.2075 44.991 87.4094 45.0096 87.6107 45.0032C88.0139 44.9904 88.4075 44.888 88.7832 44.7568C89.5358 44.4883 90.2225 44.088 90.8635 43.6563C91.5038 43.2204 92.099 42.7443 92.6555 42.2486C93.2129 41.7536 93.7336 41.2412 94.2209 40.7222C95.195 39.6828 96.0388 38.6201 96.7659 37.583C97.492 36.5452 98.1028 35.5324 98.5892 34.5712C99.0753 33.6105 99.4481 32.7059 99.6888 31.8848C99.93 31.0652 100.051 30.3299 100.033 29.7276C100.024 29.4275 99.9902 29.1603 99.9236 28.9385C99.9115 28.8819 99.8875 28.831 99.8712 28.7804C99.8539 28.7299 99.8366 28.6819 99.8136 28.6387C99.7921 28.5948 99.7719 28.5529 99.7524 28.5132C99.7303 28.4752 99.7064 28.4406 99.6856 28.407C99.6459 28.3382 99.5985 28.2867 99.5598 28.2406C99.5403 28.2179 99.5233 28.1958 99.5057 28.1779C99.4872 28.1609 99.4702 28.1456 99.4552 28.1321C99.3956 28.0771 99.3656 28.0483 99.3656 28.0483C99.3656 28.0483 99.3976 28.0748 99.459 28.1283C99.4744 28.1417 99.4916 28.1568 99.5105 28.1734C99.5284 28.1913 99.5457 28.2131 99.5656 28.2358C99.6049 28.2816 99.6532 28.3328 99.6939 28.4016C99.7153 28.4352 99.7396 28.4694 99.7624 28.5078C99.7822 28.5478 99.803 28.5897 99.8248 28.6336C99.8484 28.6768 99.866 28.7251 99.884 28.7756C99.9009 28.8265 99.9252 28.8774 99.938 28.9344C100.006 29.1574 100.042 29.4256 100.052 29.727C100.073 30.3318 99.9544 31.0697 99.715 31.8921C99.4766 32.7158 99.1051 33.6227 98.62 34.5862C98.1348 35.5497 97.5246 36.5651 96.7988 37.6054C96.0721 38.6448 95.2283 39.7097 94.2536 40.7516C93.7656 41.272 93.2446 41.7856 92.6862 42.2819C92.1288 42.7792 91.5323 43.2569 90.89 43.6944C90.2468 44.128 89.5579 44.5302 88.7992 44.8009C88.4203 44.9331 88.0228 45.0371 87.6126 45.0502C87.4078 45.0566 87.2011 45.0377 86.9998 44.9888C86.8001 44.9331 86.6091 44.8444 86.4411 44.7187C86.2776 44.5875 86.1444 44.424 86.0411 44.2444C85.9432 44.0617 85.8744 43.8662 85.8292 43.6662C85.74 43.2656 85.7419 42.855 85.7755 42.4553C85.8488 41.6534 86.0664 40.886 86.3262 40.1555C86.5899 39.4246 86.9038 38.728 87.2462 38.0643C87.5876 37.4 87.9553 36.7673 88.3374 36.1654C89.1035 34.9619 89.9246 33.8793 90.7499 32.9164C91.5764 31.9545 92.4075 31.1104 93.2196 30.4003C94.0315 29.6905 94.8174 29.1046 95.5556 28.6684C96.2923 28.2313 96.9777 27.9328 97.5684 27.8022C97.8628 27.7369 98.1316 27.7043 98.3646 27.7148C98.4228 27.7129 98.4782 27.7238 98.5319 27.7273C98.5854 27.7321 98.6366 27.7369 98.6843 27.7491C98.7323 27.7593 98.778 27.7689 98.8216 27.7782C98.8641 27.7904 98.9038 27.8057 98.9416 27.8179C99.0183 27.84 99.0801 27.8739 99.1342 27.9008C99.1611 27.9145 99.1867 27.9257 99.2084 27.9385C99.2292 27.9529 99.2481 27.9657 99.2651 27.9772C99.332 28.0236 99.3656 28.0483 99.3656 28.0483Z" fill="#24B24B"/>
<path d="M82.031 41.1262C82.184 41.2792 82.184 41.5268 82.031 41.6795C81.8784 41.8321 81.6304 41.8321 81.4778 41.6795C81.3251 41.5268 81.3251 41.2788 81.4778 41.1262C81.6307 40.9736 81.8784 40.9736 82.031 41.1262Z" fill="#24B24B"/>
<path d="M104.107 29.0007C104.107 29.2167 103.932 29.3921 103.716 29.3921C103.5 29.3921 103.324 29.2171 103.324 29.0007C103.324 28.7847 103.499 28.6094 103.716 28.6094C103.932 28.6094 104.107 28.7847 104.107 29.0007Z" fill="#24B24B"/>
<path d="M84.5037 42.412C84.5037 42.4671 84.4592 42.5115 84.4042 42.5115C84.3492 42.5115 84.3047 42.4671 84.3047 42.412C84.3047 42.357 84.3492 42.3125 84.4042 42.3125C84.4592 42.3125 84.5037 42.357 84.5037 42.412Z" fill="#24B24B"/>
<path d="M86.6248 31.4491C86.6248 31.5042 86.5803 31.5486 86.5253 31.5486C86.4703 31.5486 86.4258 31.5042 86.4258 31.4491C86.4258 31.3941 86.4703 31.3496 86.5253 31.3496C86.5803 31.3496 86.6248 31.3941 86.6248 31.4491Z" fill="#24B24B"/>
<path d="M102.14 36.7792C102.14 36.8342 102.096 36.8787 102.041 36.8787C101.986 36.8787 101.941 36.8342 101.941 36.7792C101.941 36.7242 101.986 36.6797 102.041 36.6797C102.096 36.68 102.14 36.7245 102.14 36.7792Z" fill="#24B24B"/>
<path d="M103.523 32.1425C103.523 32.1975 103.479 32.242 103.424 32.242C103.369 32.242 103.324 32.1975 103.324 32.1425C103.324 32.0874 103.369 32.043 103.424 32.043C103.479 32.043 103.523 32.0874 103.523 32.1425Z" fill="#24B24B"/>
<path d="M96.8219 38.967H95.5921V32.2742C95.5921 30.6989 94.3105 29.4173 92.7352 29.4173C91.1598 29.4173 89.8782 30.6989 89.8782 32.2742V38.967H88.6484V32.2742C88.6484 30.0208 90.4817 28.1875 92.7348 28.1875C94.988 28.1875 96.8216 30.0208 96.8216 32.2742V38.967H96.8219Z" fill="#24B24B"/>
<g opacity="0.3">
<path d="M96.8219 38.967H95.5921V32.2742C95.5921 30.6989 94.3105 29.4173 92.7352 29.4173C91.1598 29.4173 89.8782 30.6989 89.8782 32.2742V38.967H88.6484V32.2742C88.6484 30.0208 90.4817 28.1875 92.7348 28.1875C94.988 28.1875 96.8216 30.0208 96.8216 32.2742V38.967H96.8219Z" fill="black"/>
</g>
<path d="M97.5203 43.0568H87.9472C87.5491 43.0568 87.2266 42.7342 87.2266 42.3362V36.7109C87.2266 36.3128 87.5491 35.9902 87.9472 35.9902H97.5203C97.9184 35.9902 98.241 36.3128 98.241 36.7109V42.3362C98.241 42.7339 97.9184 43.0568 97.5203 43.0568Z" fill="#24B24B"/>
<g opacity="0.3">
<path d="M93.6538 38.6023C93.6538 38.0938 93.2416 37.6816 92.7331 37.6816C92.2247 37.6816 91.8125 38.0938 91.8125 38.6023C91.8125 39.0231 92.0963 39.3741 92.4819 39.4839V40.8602H92.9843V39.4839C93.3699 39.3741 93.6538 39.0231 93.6538 38.6023Z" fill="black"/>
</g>
<path d="M87.8153 42.387C87.79 42.387 87.7695 41.2085 87.7695 39.755C87.7695 38.3013 87.79 37.123 87.8153 37.123C87.8406 37.123 87.8611 38.3013 87.8611 39.755C87.8607 41.2085 87.8403 42.387 87.8153 42.387Z" fill="#FAFAFA"/>
<path d="M92.0106 39.7788C92.0077 39.7833 91.9674 39.7644 91.9028 39.7177C91.8378 39.6713 91.7514 39.5916 91.6653 39.4757C91.4935 39.2505 91.3367 38.8415 91.4385 38.3999C91.5453 37.9593 91.8692 37.6642 92.1236 37.5397C92.2522 37.4748 92.3652 37.4425 92.4442 37.43C92.5233 37.4172 92.5674 37.4185 92.5681 37.4236C92.5719 37.4409 92.3933 37.4575 92.1546 37.5964C91.9194 37.7292 91.626 38.0137 91.5274 38.4207C91.433 38.8284 91.5677 39.2146 91.7185 39.4386C91.8698 39.6703 92.0218 39.765 92.0106 39.7788Z" fill="#FAFAFA"/>
<path d="M109.086 55.4412H75.1728C73.5261 55.4412 72.1914 54.1065 72.1914 52.4598V52.0928C72.1914 50.446 73.5261 49.1113 75.1728 49.1113H109.086C110.733 49.1113 112.068 50.446 112.068 52.0928V52.4598C112.068 54.1062 110.733 55.4412 109.086 55.4412Z" fill="#F5F5F5"/>
<path d="M109.379 64.1209H75.4658C73.8191 64.1209 72.4844 62.7862 72.4844 61.1395V60.7725C72.4844 59.1257 73.8191 57.791 75.4658 57.791H109.379C111.026 57.791 112.361 59.1257 112.361 60.7725V61.1395C112.361 62.7862 111.026 64.1209 109.379 64.1209Z" fill="#F5F5F5"/>
<path d="M78.4922 52.2234V51.3066H78.8714V52.2094C78.8714 52.5204 79.0071 52.649 79.2362 52.649C79.4679 52.649 79.6013 52.5204 79.6013 52.2094V51.3066H79.9754V52.2234C79.9754 52.705 79.6995 52.9719 79.2343 52.9719C78.7683 52.9719 78.4922 52.7054 78.4922 52.2234Z" fill="#263238"/>
<path d="M80.1992 52.8283L80.3208 52.5662C80.4331 52.6389 80.6037 52.6878 80.7579 52.6878C80.9263 52.6878 80.9896 52.6433 80.9896 52.5733C80.9896 52.3675 80.2296 52.578 80.2296 52.075C80.2296 51.8363 80.445 51.668 80.812 51.668C80.9848 51.668 81.1768 51.7077 81.2962 51.7781L81.1746 52.0376C81.0504 51.9675 80.9266 51.9441 80.812 51.9441C80.6482 51.9441 80.5781 51.9956 80.5781 52.0613C80.5781 52.2763 81.3384 52.0683 81.3384 52.564C81.3384 52.7979 81.1208 52.964 80.7445 52.964C80.5311 52.964 80.316 52.9054 80.1992 52.8283Z" fill="#263238"/>
<path d="M82.7923 52.4187H81.8403C81.8752 52.5755 82.0083 52.6712 82.2003 52.6712C82.3338 52.6712 82.4298 52.6315 82.5162 52.5496L82.7101 52.7601C82.5933 52.8936 82.4176 52.9636 82.1907 52.9636C81.7559 52.9636 81.4727 52.69 81.4727 52.3156C81.4727 51.939 81.7603 51.668 82.1443 51.668C82.5136 51.668 82.7991 51.916 82.7991 52.3204C82.7994 52.3486 82.7946 52.3883 82.7923 52.4187ZM81.8359 52.2059H82.4557C82.4301 52.0468 82.3107 51.9438 82.1469 51.9438C81.9808 51.9438 81.8615 52.0443 81.8359 52.2059Z" fill="#263238"/>
<path d="M83.8244 51.668V52.0049C83.7937 52.0027 83.7707 52.0001 83.7425 52.0001C83.5412 52.0001 83.4078 52.1099 83.4078 52.3508V52.9448H83.043V51.6865H83.3914V51.8526C83.4801 51.731 83.6298 51.668 83.8244 51.668Z" fill="#263238"/>
<path d="M85.3255 52.2248V52.9451H84.9607V52.2808C84.9607 52.0773 84.8669 51.9838 84.7056 51.9838C84.5303 51.9838 84.4039 52.0913 84.4039 52.323V52.9451H84.0391V51.6869H84.3875V51.834C84.4858 51.7265 84.6333 51.668 84.8039 51.668C85.1011 51.6683 85.3255 51.8414 85.3255 52.2248Z" fill="#263238"/>
<path d="M86.7691 52.227V52.9451H86.428V52.7883C86.3601 52.9028 86.2293 52.9636 86.0443 52.9636C85.7496 52.9636 85.5742 52.7998 85.5742 52.5825C85.5742 52.3604 85.7307 52.2059 86.1144 52.2059H86.4043C86.4043 52.0491 86.3105 51.9579 86.1144 51.9579C85.9809 51.9579 85.843 52.0024 85.7518 52.075L85.6209 51.82C85.7589 51.7217 85.9621 51.668 86.1633 51.668C86.5467 51.668 86.7691 51.8456 86.7691 52.227ZM86.4043 52.5473V52.4187H86.1541C85.9835 52.4187 85.9297 52.4817 85.9297 52.5659C85.9297 52.6571 86.0069 52.7179 86.1355 52.7179C86.2568 52.7179 86.3621 52.6619 86.4043 52.5473Z" fill="#263238"/>
<path d="M89.2276 52.2248V52.9451H88.8628V52.2808C88.8628 52.0773 88.7716 51.9838 88.6241 51.9838C88.4603 51.9838 88.346 52.0891 88.346 52.3134V52.9451H87.9809V52.2808C87.9809 52.0773 87.8942 51.9838 87.7425 51.9838C87.5809 51.9838 87.4664 52.0891 87.4664 52.3134V52.9451H87.1016V51.6869H87.45V51.8318C87.5435 51.7243 87.6836 51.668 87.8452 51.668C88.0206 51.668 88.1704 51.7358 88.2593 51.8737C88.3598 51.7451 88.5233 51.668 88.7131 51.668C89.0126 51.6683 89.2276 51.8414 89.2276 52.2248Z" fill="#263238"/>
<path d="M90.792 52.4187H89.84C89.8749 52.5755 90.008 52.6712 90.2 52.6712C90.3334 52.6712 90.4294 52.6315 90.5158 52.5496L90.7098 52.7601C90.593 52.8936 90.4173 52.9636 90.1904 52.9636C89.7555 52.9636 89.4727 52.69 89.4727 52.3156C89.4727 51.939 89.76 51.668 90.144 51.668C90.5133 51.668 90.7987 51.916 90.7987 52.3204C90.7987 52.3486 90.7943 52.3883 90.792 52.4187ZM89.8355 52.2059H90.455C90.4294 52.0468 90.3101 51.9438 90.1463 51.9438C89.9805 51.9438 89.8611 52.0443 89.8355 52.2059Z" fill="#263238"/>
<path d="M93.2032 52.303C93.2032 52.7216 93.0116 52.9603 92.7239 52.9603C92.5648 52.9603 92.4525 52.8902 92.4036 52.7568C92.3216 52.888 92.1882 52.9603 92.0036 52.9603C91.7018 52.9603 91.4631 52.7216 91.4631 52.3686C91.4631 52.0176 91.6992 51.7792 92.0036 51.7792C92.1578 51.7792 92.2794 51.833 92.3639 51.9334V51.7952H92.6816V52.553C92.6816 52.6653 92.7309 52.7027 92.7943 52.7027C92.9018 52.7027 92.9674 52.5789 92.9674 52.3075C92.9674 51.833 92.6164 51.5053 92.097 51.5053C91.5754 51.5053 91.2269 51.8608 91.2269 52.3498C91.2269 52.848 91.5684 53.2013 92.0877 53.2013C92.2352 53.2013 92.401 53.1709 92.5485 53.0982L92.6231 53.3133C92.4807 53.3859 92.2724 53.4256 92.0874 53.4256C91.4116 53.4256 90.9648 52.967 90.9648 52.3498C90.9648 51.7392 91.416 51.2832 92.0967 51.2832C92.7543 51.2832 93.2032 51.7158 93.2032 52.303ZM92.3687 52.3686C92.3687 52.1651 92.2445 52.0506 92.0762 52.0506C91.9056 52.0506 91.7863 52.1699 91.7863 52.3686C91.7863 52.5696 91.9056 52.6912 92.0762 52.6912C92.2445 52.6912 92.3687 52.5744 92.3687 52.3686Z" fill="#263238"/>
<path d="M95.5909 52.2248V52.9451H95.2261V52.2808C95.2261 52.0773 95.1349 51.9838 94.9874 51.9838C94.8236 51.9838 94.7093 52.0891 94.7093 52.3134V52.9451H94.3442V52.2808C94.3442 52.0773 94.2575 51.9838 94.1058 51.9838C93.9442 51.9838 93.8296 52.0891 93.8296 52.3134V52.9451H93.4648V51.6869H93.8133V51.8318C93.9068 51.7243 94.0469 51.668 94.2085 51.668C94.3839 51.668 94.5336 51.7358 94.6226 51.8737C94.7231 51.7451 94.8866 51.668 95.0764 51.668C95.3759 51.6683 95.5909 51.8414 95.5909 52.2248Z" fill="#263238"/>
<path d="M97.0308 52.227V52.9451H96.6897V52.7883C96.6219 52.9028 96.491 52.9636 96.306 52.9636C96.0113 52.9636 95.8359 52.7998 95.8359 52.5825C95.8359 52.3604 95.9924 52.2059 96.3761 52.2059H96.666C96.666 52.0491 96.5726 51.9579 96.3761 51.9579C96.2427 51.9579 96.1047 52.0024 96.0135 52.075L95.8827 51.82C96.0206 51.7217 96.2238 51.668 96.4251 51.668C96.8087 51.668 97.0308 51.8456 97.0308 52.227ZM96.666 52.5473V52.4187H96.4158C96.2452 52.4187 96.1915 52.4817 96.1915 52.5659C96.1915 52.6571 96.2686 52.7179 96.3972 52.7179C96.5185 52.7179 96.6238 52.6619 96.666 52.5473Z" fill="#263238"/>
<path d="M97.3164 51.307C97.3164 51.1925 97.4076 51.1035 97.5433 51.1035C97.679 51.1035 97.7702 51.1877 97.7702 51.3C97.7702 51.4216 97.679 51.5106 97.5433 51.5106C97.4076 51.5106 97.3164 51.4216 97.3164 51.307ZM97.3606 51.6859H97.7254V52.9442H97.3606V51.6859Z" fill="#263238"/>
<path d="M98.0664 51.207H98.4312V52.9424H98.0664V51.207Z" fill="#263238"/>
<path d="M98.6797 52.7344C98.6797 52.5987 98.7802 52.5098 98.9066 52.5098C99.0333 52.5098 99.1334 52.5987 99.1334 52.7344C99.1334 52.8675 99.033 52.9635 98.9066 52.9635C98.7805 52.9635 98.6797 52.8675 98.6797 52.7344Z" fill="#263238"/>
<path d="M99.2734 52.3156C99.2734 51.9368 99.5659 51.668 99.9752 51.668C100.24 51.668 100.448 51.7825 100.539 51.9883L100.256 52.1403C100.188 52.0209 100.088 51.9672 99.9726 51.9672C99.788 51.9672 99.643 52.0958 99.643 52.3156C99.643 52.5355 99.788 52.6641 99.9726 52.6641C100.087 52.6641 100.188 52.6126 100.256 52.491L100.539 52.6452C100.448 52.8462 100.24 52.9633 99.9752 52.9633C99.5659 52.9636 99.2734 52.6945 99.2734 52.3156Z" fill="#263238"/>
<path d="M100.637 52.3156C100.637 51.9368 100.929 51.668 101.329 51.668C101.729 51.668 102.019 51.9368 102.019 52.3156C102.019 52.6945 101.729 52.9636 101.329 52.9636C100.929 52.9636 100.637 52.6945 100.637 52.3156ZM101.65 52.3156C101.65 52.098 101.512 51.9672 101.329 51.9672C101.147 51.9672 101.006 52.098 101.006 52.3156C101.006 52.5332 101.147 52.6641 101.329 52.6641C101.512 52.6641 101.65 52.5332 101.65 52.3156Z" fill="#263238"/>
<path d="M104.388 52.2248V52.9451H104.023V52.2808C104.023 52.0773 103.932 51.9838 103.784 51.9838C103.62 51.9838 103.506 52.0891 103.506 52.3134V52.9451H103.141V52.2808C103.141 52.0773 103.054 51.9838 102.903 51.9838C102.741 51.9838 102.627 52.0891 102.627 52.3134V52.9451H102.262V51.6869H102.61V51.8318C102.704 51.7243 102.844 51.668 103.005 51.668C103.181 51.668 103.331 51.7358 103.419 51.8737C103.52 51.7451 103.683 51.668 103.873 51.668C104.173 51.6683 104.388 51.8414 104.388 52.2248Z" fill="#263238"/>
<path d="M83.3825 60.9883L83.9748 61.3089L83.7085 61.7547L83.1108 61.4014L83.1217 62.059H82.6106L82.6164 61.3959L82.0186 61.7547L81.7578 61.3089L82.3501 60.9883L81.7578 60.6622L82.0186 60.2164L82.6164 60.5751L82.6106 59.9121H83.1217L83.1108 60.5751L83.7085 60.2164L83.9748 60.6622L83.3825 60.9883Z" fill="#263238"/>
<path d="M85.8473 60.9883L86.4396 61.3089L86.1734 61.7547L85.5756 61.4014L85.5865 62.059H85.0755L85.0812 61.3959L84.4835 61.7547L84.2227 61.3089L84.8153 60.9883L84.2227 60.6622L84.4835 60.2164L85.0812 60.5751L85.0755 59.9121H85.5865L85.5756 60.5751L86.1734 60.2164L86.4396 60.6622L85.8473 60.9883Z" fill="#263238"/>
<path d="M88.316 60.9883L88.9084 61.3089L88.6421 61.7547L88.0444 61.4014L88.0552 62.059H87.5442L87.55 61.3959L86.9522 61.7547L86.6914 61.3089L87.284 60.9883L86.6914 60.6622L86.9522 60.2164L87.55 60.5751L87.5442 59.9121H88.0552L88.0444 60.5751L88.6421 60.2164L88.9084 60.6622L88.316 60.9883Z" fill="#263238"/>
<path d="M90.7809 60.9883L91.3732 61.3089L91.107 61.7547L90.5092 61.4014L90.5201 62.059H90.0091L90.0148 61.3959L89.4171 61.7547L89.1562 61.3089L89.7489 60.9883L89.1562 60.6622L89.4171 60.2164L90.0148 60.5751L90.0091 59.9121H90.5201L90.5092 60.5751L91.107 60.2164L91.3732 60.6622L90.7809 60.9883Z" fill="#263238"/>
<path d="M93.2457 60.9883L93.8381 61.3089L93.5718 61.7547L92.9741 61.4014L92.9849 62.059H92.4739L92.4797 61.3959L91.8819 61.7547L91.6211 61.3089L92.2137 60.9883L91.6211 60.6622L91.8819 60.2164L92.4797 60.5751L92.4739 59.9121H92.9849L92.9741 60.5751L93.5718 60.2164L93.8381 60.6622L93.2457 60.9883Z" fill="#263238"/>
<path d="M95.7148 60.9883L96.3071 61.3089L96.0409 61.7547L95.4431 61.4014L95.454 62.059H94.943L94.9484 61.3959L94.3506 61.7547L94.0898 61.3089L94.6825 60.9883L94.0898 60.6622L94.3506 60.2164L94.9484 60.5751L94.943 59.9121H95.454L95.4431 60.5751L96.0409 60.2164L96.3071 60.6622L95.7148 60.9883Z" fill="#263238"/>
<path d="M98.1793 60.9883L98.7717 61.3089L98.5054 61.7547L97.9076 61.4014L97.9185 62.059H97.4075L97.4133 61.3959L96.8155 61.7547L96.5547 61.3089L97.1473 60.9883L96.5547 60.6622L96.8155 60.2164L97.4133 60.5751L97.4075 59.9121H97.9185L97.9076 60.5751L98.5054 60.2164L98.7717 60.6622L98.1793 60.9883Z" fill="#263238"/>
<path d="M100.644 60.9883L101.236 61.3089L100.97 61.7547L100.372 61.4014L100.383 62.059H99.8723L99.8781 61.3959L99.2803 61.7547L99.0195 61.3089L99.6122 60.9883L99.0195 60.6622L99.2803 60.2164L99.8781 60.5751L99.8723 59.9121H100.383L100.372 60.5751L100.97 60.2164L101.236 60.6622L100.644 60.9883Z" fill="#263238"/>
<path d="M127.612 107.4H79.9238C78.7967 107.4 77.8828 106.486 77.8828 105.359V80.6738C77.8828 79.5467 78.7964 78.6328 79.9238 78.6328H127.612C128.739 78.6328 129.653 79.5467 129.653 80.6738V105.359C129.653 106.486 128.739 107.4 127.612 107.4Z" fill="white"/>
<path d="M127.614 107.401C127.613 107.392 127.753 107.403 128.016 107.352C128.274 107.295 128.671 107.162 129.044 106.792C129.227 106.608 129.396 106.363 129.506 106.061C129.566 105.912 129.597 105.746 129.621 105.573C129.634 105.399 129.631 105.215 129.63 105.023C129.628 104.255 129.625 103.37 129.622 102.374C129.616 98.3837 129.607 92.6157 129.596 85.4893C129.595 84.5981 129.594 83.6861 129.593 82.7533C129.593 82.2871 129.592 81.8154 129.592 81.3389C129.58 80.8618 129.642 80.3738 129.447 79.9377C129.27 79.5009 128.93 79.1271 128.501 78.9117C128.286 78.8036 128.051 78.7348 127.81 78.7101C127.572 78.6922 127.313 78.7041 127.062 78.7009C126.051 78.7015 125.021 78.7025 123.974 78.7031C119.782 78.7053 115.304 78.7082 110.592 78.7108C101.167 78.7127 90.8055 78.7149 79.9293 78.7172C79.6026 78.7188 79.2788 78.8013 78.9917 78.954C78.7088 79.1133 78.4599 79.3364 78.2848 79.6093C78.112 79.8823 77.9965 80.1953 77.976 80.5188C77.96 80.842 77.9716 81.1882 77.968 81.521C77.968 82.8641 77.9677 84.1981 77.9677 85.5226C77.9674 88.1716 77.9668 90.7815 77.9664 93.3463C77.9658 95.9108 77.9652 98.4301 77.9642 100.897C77.9639 102.131 77.9632 103.351 77.9629 104.558C77.9652 104.858 77.9578 105.165 77.9674 105.457C77.9808 105.745 78.0586 106.029 78.1927 106.282C78.4621 106.79 78.961 107.163 79.5162 107.28C79.7904 107.345 80.0832 107.318 80.3783 107.324C80.6711 107.324 80.9629 107.324 81.2538 107.324C81.8356 107.325 82.4135 107.325 82.9876 107.325C84.1357 107.326 85.2685 107.326 86.3847 107.327C88.6173 107.329 90.785 107.33 92.8807 107.331C97.072 107.335 100.976 107.338 104.541 107.341C111.667 107.353 117.434 107.362 121.424 107.368C123.415 107.375 124.961 107.38 126.014 107.384C126.536 107.387 126.935 107.39 127.207 107.392C127.476 107.395 127.614 107.401 127.614 107.401C127.614 107.401 127.476 107.406 127.207 107.409C126.935 107.411 126.536 107.414 126.013 107.418C124.961 107.421 123.414 107.427 121.423 107.433C117.434 107.44 111.667 107.449 104.54 107.46C100.976 107.463 97.0717 107.466 92.8804 107.47C90.7847 107.471 88.617 107.473 86.3844 107.474C85.2679 107.475 84.1354 107.476 82.9872 107.476C82.4132 107.477 81.8352 107.477 81.2535 107.477C80.9626 107.477 80.6708 107.477 80.378 107.477C80.0893 107.471 79.7879 107.501 79.4842 107.431C78.8852 107.305 78.3469 106.904 78.0557 106.356C77.9108 106.082 77.8266 105.775 77.8119 105.465C77.8013 105.158 77.8087 104.862 77.8064 104.558C77.8061 103.352 77.8055 102.131 77.8052 100.898C77.8045 98.4305 77.8039 95.9111 77.8032 93.3466C77.8029 90.7821 77.8023 88.1719 77.802 85.5229C77.802 84.1985 77.8016 82.8644 77.8016 81.5213C77.8055 81.1828 77.793 80.8557 77.81 80.506C77.8324 80.1556 77.9572 79.8148 78.145 79.5188C78.3354 79.2225 78.6048 78.9802 78.912 78.8077C79.2234 78.642 79.576 78.5524 79.9293 78.5508C90.8052 78.553 101.167 78.5553 110.592 78.5572C115.304 78.5597 119.782 78.5623 123.974 78.5649C125.021 78.5655 126.052 78.5665 127.062 78.5671C127.317 78.5709 127.562 78.5588 127.823 78.5783C128.081 78.6049 128.332 78.6788 128.56 78.7946C129.018 79.025 129.379 79.4237 129.566 79.8893C129.661 80.1217 129.711 80.3706 129.716 80.6186C129.716 80.8599 129.717 81.0999 129.718 81.3386C129.717 81.8151 129.717 82.2865 129.717 82.753C129.716 83.6858 129.715 84.5981 129.714 85.489C129.702 92.6154 129.693 98.3834 129.687 102.373C129.684 103.369 129.682 104.255 129.679 105.022C129.679 105.214 129.681 105.398 129.666 105.578C129.64 105.755 129.607 105.924 129.545 106.076C129.43 106.382 129.256 106.63 129.067 106.816C128.684 107.187 128.28 107.317 128.02 107.368C127.886 107.389 127.785 107.401 127.716 107.399C127.648 107.402 127.614 107.401 127.614 107.401Z" fill="#263238"/>
<path d="M95.9198 88.798V89.1574H94.4219V87.2227H95.8836V87.582H94.8667V88.0022H95.7649V88.3507H94.8667V88.798H95.9198Z" fill="#263238"/>
<path d="M98.0517 87.2227V89.1574H97.6844L96.7196 87.9827V89.1574H96.2773V87.2227H96.6476L97.6095 88.3974V87.2227H98.0517Z" fill="#263238"/>
<path d="M98.9122 87.5878H98.293V87.2227H99.979V87.5878H99.3598V89.1574H98.9122V87.5878Z" fill="#263238"/>
<path d="M101.717 88.798V89.1574H100.219V87.2227H101.681V87.582H100.664V88.0022H101.562V88.3507H100.664V88.798H101.717Z" fill="#263238"/>
<path d="M103.307 89.1574L102.933 88.6182H102.912H102.522V89.1574H102.074V87.2227H102.912C103.428 87.2227 103.752 87.4908 103.752 87.9247C103.752 88.2147 103.605 88.4275 103.354 88.5353L103.787 89.1571H103.307V89.1574ZM102.887 87.5875H102.522V88.2617H102.887C103.16 88.2617 103.299 88.1343 103.299 87.9244C103.299 87.7119 103.16 87.5875 102.887 87.5875Z" fill="#263238"/>
<path d="M104.766 88.1901C104.766 87.607 105.213 87.1895 105.816 87.1895C106.15 87.1895 106.429 87.311 106.612 87.5322L106.324 87.7975C106.194 87.648 106.031 87.5709 105.838 87.5709C105.476 87.5709 105.218 87.825 105.218 88.1901C105.218 88.5549 105.476 88.8093 105.838 88.8093C106.031 88.8093 106.194 88.7319 106.324 88.5799L106.612 88.8451C106.429 89.0688 106.15 89.1904 105.813 89.1904C105.213 89.1904 104.766 88.7731 104.766 88.1901Z" fill="#263238"/>
<path d="M106.75 88.1901C106.75 87.615 107.198 87.1895 107.809 87.1895C108.417 87.1895 108.867 87.6122 108.867 88.1901C108.867 88.7677 108.417 89.1904 107.809 89.1904C107.198 89.1904 106.75 88.7648 106.75 88.1901ZM108.414 88.1901C108.414 87.8224 108.154 87.5709 107.808 87.5709C107.463 87.5709 107.203 87.8221 107.203 88.1901C107.203 88.5574 107.463 88.8093 107.808 88.8093C108.154 88.8093 108.414 88.5578 108.414 88.1901Z" fill="#263238"/>
<path d="M109.207 87.2227H110.086C110.719 87.2227 111.153 87.6041 111.153 88.19C111.153 88.7759 110.719 89.1571 110.086 89.1571H109.207V87.2227ZM110.064 88.7897C110.448 88.7897 110.7 88.5602 110.7 88.19C110.7 87.8198 110.448 87.5903 110.064 87.5903H109.655V88.7897H110.064Z" fill="#263238"/>
<path d="M112.986 88.798V89.1574H111.488V87.2227H112.95V87.582H111.933V88.0022H112.831V88.3507H111.933V88.798H112.986Z" fill="#263238"/>
<path d="M88.5807 102.093H83.8818C83.1833 102.093 82.6172 101.527 82.6172 100.829V93.5107C82.6172 92.8122 83.1833 92.2461 83.8818 92.2461H88.5807C89.2793 92.2461 89.8453 92.8125 89.8453 93.5107V100.829C89.8453 101.527 89.2789 102.093 88.5807 102.093Z" fill="#EBEBEB"/>
<path d="M97.6041 102.091H92.9053C92.2067 102.091 91.6406 101.525 91.6406 100.827V93.5088C91.6406 92.8102 92.2067 92.2441 92.9053 92.2441H97.6041C98.3027 92.2441 98.8688 92.8105 98.8688 93.5088V100.827C98.8688 101.525 98.3027 102.091 97.6041 102.091Z" fill="#EBEBEB"/>
<path d="M106.635 102.091H101.937C101.238 102.091 100.672 101.525 100.672 100.827V93.5088C100.672 92.8102 101.238 92.2441 101.937 92.2441H106.635C107.334 92.2441 107.9 92.8105 107.9 93.5088V100.827C107.9 101.525 107.334 102.091 106.635 102.091Z" fill="#EBEBEB"/>
<path d="M115.659 102.093H110.96C110.261 102.093 109.695 101.527 109.695 100.829V93.5107C109.695 92.8122 110.262 92.2461 110.96 92.2461H115.659C116.357 92.2461 116.923 92.8125 116.923 93.5107V100.829C116.923 101.527 116.357 102.093 115.659 102.093Z" fill="#EBEBEB"/>
<path d="M124.686 102.091H119.987C119.289 102.091 118.723 101.525 118.723 100.827V93.5088C118.723 92.8102 119.289 92.2441 119.987 92.2441H124.686C125.385 92.2441 125.951 92.8105 125.951 93.5088V100.827C125.951 101.525 125.385 102.091 124.686 102.091Z" fill="#EBEBEB"/>
<path d="M87.8077 97.9306C87.8077 98.6336 87.2641 99.0896 86.5277 99.0896C85.5172 99.0896 84.9844 98.3645 84.9844 97.1616C84.9844 95.8599 85.6765 95.1895 86.6929 95.1895C87.0221 95.1895 87.33 95.2445 87.5661 95.3872L87.4506 95.6125C87.2532 95.4861 86.9837 95.4365 86.6929 95.4365C85.8305 95.4365 85.2644 96.0026 85.2644 97.1175C85.2644 97.2327 85.2701 97.4032 85.2977 97.5789C85.457 97.0736 85.9402 96.7879 86.5226 96.7879C87.2916 96.7879 87.8077 97.2384 87.8077 97.9306ZM87.5274 97.9357C87.5274 97.3866 87.1322 97.0295 86.4839 97.0295C85.8519 97.0295 85.418 97.4304 85.418 97.9469C85.418 98.3971 85.7972 98.8474 86.5169 98.8474C87.1156 98.8477 87.5274 98.4909 87.5274 97.9357Z" fill="#24B24B"/>
<path d="M96.7349 97.9947H95.9275V99.0603H95.6529V97.9947H93.4609V97.7912L95.5483 95.2148H95.8613L93.8126 97.7473H95.6584V96.8078H95.9275V97.7473H96.7349V97.9947Z" fill="#24B24B"/>
<path d="M106.045 99.6066C106.045 99.6527 105.295 99.6898 104.371 99.6898C103.445 99.6898 102.695 99.6524 102.695 99.6066C102.695 99.5606 103.445 99.5234 104.371 99.5234C105.295 99.5234 106.045 99.5609 106.045 99.6066Z" fill="#24B24B"/>
<path d="M81.1704 82.2881C81.6032 82.2881 81.9541 81.9372 81.9541 81.5044C81.9541 81.0716 81.6032 80.7207 81.1704 80.7207C80.7376 80.7207 80.3867 81.0716 80.3867 81.5044C80.3867 81.9372 80.7376 82.2881 81.1704 82.2881Z" fill="#263238"/>
<path d="M84.2119 81.5044C84.2119 81.9373 83.8612 82.2881 83.4282 82.2881C82.9952 82.2881 82.6445 81.937 82.6445 81.5044C82.6445 81.0717 82.9952 80.7207 83.4282 80.7207C83.8612 80.7207 84.2119 81.0714 84.2119 81.5044Z" fill="#263238"/>
<path d="M85.647 82.2881C86.0798 82.2881 86.4306 81.9372 86.4306 81.5044C86.4306 81.0716 86.0798 80.7207 85.647 80.7207C85.2141 80.7207 84.8633 81.0716 84.8633 81.5044C84.8633 81.9372 85.2141 82.2881 85.647 82.2881Z" fill="#263238"/>
<path d="M129.732 83.7121C129.732 83.7582 118.141 83.7953 103.846 83.7953C89.5458 83.7953 77.957 83.7579 77.957 83.7121C77.957 83.666 89.5455 83.6289 103.846 83.6289C118.141 83.6286 129.732 83.666 129.732 83.7121Z" fill="#263238"/>
<path d="M71.5827 43.3125H46.656C45.9399 43.3125 45.3594 43.893 45.3594 44.6091V55.965C45.3594 56.6811 45.9399 57.2616 46.656 57.2616H57.1133L59.3344 60.1099L61.1856 57.2616H71.5831C72.2992 57.2616 72.8797 56.6811 72.8797 55.965V44.6091C72.8794 43.893 72.2989 43.3125 71.5827 43.3125Z" fill="white"/>
<path d="M71.5841 43.3126C71.5841 43.3126 71.6253 43.3103 71.7073 43.3123C71.7882 43.3206 71.9117 43.3321 72.0628 43.3913C72.2125 43.4483 72.3943 43.5475 72.5559 43.7247C72.7197 43.8969 72.8589 44.1529 72.8973 44.4655C72.9213 45.7027 72.9172 47.5004 72.9274 49.7788C72.9303 50.9177 72.9335 52.1753 72.9367 53.5395C72.938 54.2217 72.9396 54.9308 72.9409 55.6652C72.9377 55.8463 72.9543 56.0351 72.9156 56.2313C72.8785 56.4236 72.7959 56.6083 72.6785 56.7683C72.4461 57.0918 72.0573 57.3081 71.6449 57.3228C68.5089 57.3273 64.9917 57.3327 61.1866 57.3382L61.2509 57.3033C60.6698 58.199 60.042 59.1663 59.402 60.1529L59.3412 60.2463L59.2727 60.1583C58.5713 59.2598 57.8173 58.2937 57.0503 57.3113L57.1143 57.3427C54.234 57.3433 51.2199 57.3439 48.1274 57.3446C47.7665 57.3446 47.4065 57.3446 47.0477 57.3446C46.8653 57.3414 46.6964 57.3526 46.5015 57.3353C46.3124 57.3142 46.1281 57.2527 45.9645 57.1567C45.6359 56.9667 45.3937 56.6371 45.3121 56.2684C45.2673 56.0815 45.2794 55.8943 45.2775 55.7225V55.1942C45.2778 53.7881 45.2785 52.4025 45.2788 51.0409C45.2794 49.6793 45.2801 48.342 45.2807 47.0323C45.281 46.3775 45.2817 45.7295 45.282 45.0889L45.2823 44.6099C45.2833 44.4412 45.3143 44.2729 45.3751 44.1167C45.4954 43.8031 45.7335 43.5404 46.0282 43.3891C46.1754 43.3132 46.3357 43.263 46.4996 43.246C46.6676 43.2307 46.817 43.2387 46.9725 43.2367C47.2813 43.2371 47.5882 43.2374 47.8929 43.2377C48.5025 43.2383 49.1037 43.239 49.6964 43.2396C50.8817 43.2412 52.0324 43.2425 53.1447 43.2438C55.3693 43.2476 57.442 43.2508 59.3345 43.254C63.1146 43.2652 66.1754 43.2742 68.297 43.2806C69.3511 43.2873 70.1709 43.2927 70.7338 43.2963C71.0084 43.2998 71.2193 43.3027 71.3674 43.3046C71.5111 43.3068 71.5841 43.3126 71.5841 43.3126C71.5841 43.3126 71.5108 43.3183 71.3681 43.3212C71.2196 43.3231 71.009 43.326 70.7345 43.3295C70.1716 43.3331 69.3517 43.3385 68.2977 43.3452C66.1761 43.3516 63.1153 43.3606 59.3351 43.3718C57.4426 43.375 55.37 43.3782 53.1453 43.382C52.0327 43.3833 50.882 43.3846 49.697 43.3862C49.1044 43.3868 48.5031 43.3875 47.8935 43.3881C47.5889 43.3884 47.282 43.3887 46.9732 43.3891C46.8202 43.391 46.6593 43.3843 46.5175 43.398C46.3719 43.4134 46.2298 43.4582 46.0993 43.5257C45.8378 43.6607 45.6266 43.8943 45.5207 44.1727C45.4673 44.3116 45.4397 44.4604 45.4391 44.6105L45.4394 45.0895C45.4397 45.7302 45.4404 46.3782 45.4407 47.0329C45.4413 48.3427 45.442 49.6799 45.4426 51.0415C45.4429 52.4031 45.4436 53.7887 45.4439 55.1948V55.7231C45.4455 55.903 45.4353 56.0732 45.4746 56.2326C45.5463 56.5564 45.7597 56.8463 46.0487 57.0134C46.1927 57.0975 46.3543 57.1516 46.5207 57.1702C46.682 57.1852 46.8721 57.1756 47.0484 57.1785C47.4071 57.1785 47.7671 57.1785 48.1281 57.1785C51.2205 57.1791 54.2346 57.1798 57.1149 57.1804H57.1546L57.1789 57.2118C57.945 58.1951 58.698 59.1619 59.3985 60.0611L59.2692 60.0665C59.9108 59.0809 60.5399 58.1145 61.1223 57.2198L61.145 57.1846H61.1866C64.9895 57.1881 68.5047 57.1913 71.6391 57.1942C72.0129 57.182 72.3655 56.9875 72.5777 56.6943C72.6849 56.5491 72.7607 56.382 72.7949 56.2073C72.8311 56.0355 72.8164 55.8502 72.8202 55.6652C72.8218 54.9308 72.8231 54.2217 72.8244 53.5395C72.8279 52.1753 72.8311 50.918 72.8337 49.7788C72.8397 47.5071 72.8445 45.7081 72.8477 44.471C72.8145 44.1699 72.6842 43.9199 72.5277 43.75C72.3738 43.5753 72.1988 43.4745 72.0532 43.4147C71.7565 43.2979 71.5815 43.3257 71.5841 43.3126Z" fill="#263238"/>
<path d="M54.4525 46.5174V46.9379H54.1779V46.5145L53.7188 45.752H54.0103L54.3271 46.2787L54.6439 45.752H54.9133L54.4525 46.5174Z" fill="#263238"/>
<path d="M54.9062 46.3436C54.9062 45.9916 55.1808 45.7305 55.5552 45.7305C55.928 45.7305 56.2042 45.9897 56.2042 46.3436C56.2042 46.6978 55.928 46.957 55.5552 46.957C55.1808 46.957 54.9062 46.6962 54.9062 46.3436ZM55.9261 46.3436C55.9261 46.1183 55.767 45.9641 55.5549 45.9641C55.343 45.9641 55.1837 46.118 55.1837 46.3436C55.1837 46.5689 55.343 46.7234 55.5549 46.7234C55.767 46.7231 55.9261 46.5689 55.9261 46.3436Z" fill="#263238"/>
<path d="M56.4023 46.416V45.752H56.6769V46.406C56.6769 46.6313 56.7751 46.7244 56.9412 46.7244C57.1089 46.7244 57.2055 46.6313 57.2055 46.406V45.752H57.4766V46.416C57.4766 46.7651 57.2766 46.958 56.9393 46.958C56.6023 46.958 56.4023 46.7648 56.4023 46.416Z" fill="#263238"/>
<path d="M58.5019 46.9379L58.2731 46.6076H58.2597H58.0207V46.9379H57.7461V45.752H58.2597C58.5765 45.752 58.7746 45.9164 58.7746 46.1824C58.7746 46.3603 58.6847 46.4908 58.5307 46.5568L58.7967 46.9379H58.5019ZM58.2443 45.9753H58.0207V46.3888H58.2443C58.412 46.3888 58.4968 46.311 58.4968 46.182C58.4968 46.0515 58.4123 45.9753 58.2443 45.9753Z" fill="#263238"/>
<path d="M59.3984 46.3436C59.3984 45.9861 59.673 45.7305 60.0423 45.7305C60.2474 45.7305 60.4183 45.8047 60.5303 45.9404L60.354 46.1029C60.2743 46.0117 60.1741 45.9641 60.0557 45.9641C59.834 45.9641 59.6762 46.1199 59.6762 46.3436C59.6762 46.5673 59.834 46.7234 60.0557 46.7234C60.1744 46.7234 60.2743 46.6761 60.354 46.5829L60.5303 46.7455C60.4183 46.8831 60.2474 46.9573 60.0407 46.9573C59.673 46.957 59.3984 46.701 59.3984 46.3436Z" fill="#263238"/>
<path d="M60.6133 46.3436C60.6133 45.9916 60.8878 45.7305 61.2622 45.7305C61.635 45.7305 61.9112 45.9897 61.9112 46.3436C61.9112 46.6978 61.635 46.957 61.2622 46.957C60.8878 46.957 60.6133 46.6962 60.6133 46.3436ZM61.6334 46.3436C61.6334 46.1183 61.4741 45.9641 61.2622 45.9641C61.0504 45.9641 60.891 46.118 60.891 46.3436C60.891 46.5689 61.0504 46.7234 61.2622 46.7234C61.4741 46.7231 61.6334 46.5689 61.6334 46.3436Z" fill="#263238"/>
<path d="M62.1211 45.752H62.66C63.0481 45.752 63.3141 45.9855 63.3141 46.3446C63.3141 46.7039 63.0481 46.9379 62.66 46.9379H62.1211V45.752ZM62.6465 46.7126C62.8821 46.7126 63.0363 46.5721 63.0363 46.3446C63.0363 46.1177 62.8821 45.9772 62.6465 45.9772H62.3957V46.7126H62.6465Z" fill="#263238"/>
<path d="M64.4418 46.7174V46.9379H63.5234V45.752H64.4198V45.9721H63.7964V46.2297H64.3471V46.4432H63.7964V46.7174H64.4418Z" fill="#263238"/>
<path d="M69.1506 54.6908H49.0875C48.461 54.6908 47.9531 54.183 47.9531 53.5564V49.318C47.9531 48.6914 48.461 48.1836 49.0875 48.1836H69.1506C69.7771 48.1836 70.285 48.6914 70.285 49.318V53.5564C70.285 54.1826 69.7771 54.6908 69.1506 54.6908Z" fill="#F5F5F5"/>
<path d="M52.4936 51.8362C52.4936 52.4126 52.0478 52.7863 51.4446 52.7863C50.6162 52.7863 50.1797 52.1921 50.1797 51.2058C50.1797 50.139 50.7467 49.5898 51.5797 49.5898C51.8498 49.5898 52.1019 49.635 52.2955 49.7518L52.2008 49.9364C52.0389 49.833 51.8181 49.7924 51.5797 49.7924C50.8731 49.7924 50.4091 50.2561 50.4091 51.17C50.4091 51.2647 50.4136 51.4039 50.436 51.5482C50.5666 51.1342 50.9627 50.9002 51.4398 50.9002C52.0706 50.8999 52.4936 51.2692 52.4936 51.8362ZM52.2642 51.841C52.2642 51.3908 51.94 51.0983 51.4088 51.0983C50.891 51.0983 50.5355 51.4266 50.5355 51.8503C50.5355 52.2193 50.8462 52.5886 51.4357 52.5886C51.9266 52.5882 52.2642 52.2958 52.2642 51.841Z" fill="#24B24B"/>
<path d="M56.6754 51.8891H56.0136V52.7627H55.7883V51.8891H53.9922V51.7227L55.7029 49.6113H55.9595L54.2802 51.6865H55.7928V50.9166H56.0133V51.6865H56.6751L56.6754 51.8891Z" fill="#24B24B"/>
<path d="M60.176 51.8756C60.176 52.3979 59.7977 52.7851 59.0729 52.7851C58.6093 52.7851 58.1814 52.6142 57.9609 52.3621L58.0781 52.1864C58.2717 52.4069 58.6406 52.5736 59.0729 52.5736C59.6403 52.5736 59.9417 52.3035 59.9417 51.8756C59.9417 51.4526 59.6537 51.1777 59.0233 51.1777H58.8253V51.0113L59.7571 49.8181H58.0777V49.6113H60.0541V49.7733L59.1088 50.9844C59.8246 51.0024 60.176 51.3627 60.176 51.8756Z" fill="#24B24B"/>
<path d="M63.9864 49.6113V49.7733L62.6312 52.7627H62.379L63.7208 49.8184H61.9515V50.4219H61.7266V49.6117H63.9864V49.6113Z" fill="#24B24B"/>
<path d="M65.5898 51.1899C65.5898 50.204 66.0986 49.5918 66.8231 49.5918C67.5479 49.5918 68.0567 50.204 68.0567 51.1899C68.0567 52.1758 67.5479 52.788 66.8231 52.788C66.0986 52.788 65.5898 52.1758 65.5898 51.1899ZM67.8273 51.1899C67.8273 50.3121 67.4177 49.8033 66.8231 49.8033C66.2289 49.8033 65.8193 50.3121 65.8193 51.1899C65.8193 52.0676 66.2289 52.5764 66.8231 52.5764C67.4177 52.5764 67.8273 52.0676 67.8273 51.1899Z" fill="#24B24B"/>
<path d="M134.207 133.599C138.396 131.821 143.247 128.323 145.41 124.033C140.892 125.849 136.907 129.251 134.207 133.599Z" fill="#263238"/>
<path d="M135.098 126.943C139.287 125.164 144.137 121.666 146.301 117.377C141.782 119.193 137.797 122.595 135.098 126.943Z" fill="#263238"/>
<path d="M136.305 120.474C140.494 118.696 145.344 115.198 147.508 110.908C142.989 112.724 139.004 116.126 136.305 120.474Z" fill="#263238"/>
<path d="M137.832 113.694C141.784 111.349 146.19 107.21 147.831 102.662C143.556 105.09 139.999 109.014 137.832 113.694Z" fill="#263238"/>
<path d="M139.453 108.503C142.333 104.736 145.018 99.131 144.983 94.2734C141.829 98.2488 139.863 103.31 139.453 108.503Z" fill="#263238"/>
<path d="M138.649 110.971C138.068 105.878 136.086 99.4738 132.723 95.6543C133.257 101.112 135.365 106.56 138.649 110.971Z" fill="#263238"/>
<path d="M137.292 116.545C136.266 111.294 133.675 104.799 129.855 101.115C130.861 106.75 133.506 112.239 137.292 116.545Z" fill="#263238"/>
<path d="M135.741 123.342C134.716 118.091 132.124 111.596 128.305 107.912C129.31 113.547 131.955 119.036 135.741 123.342Z" fill="#263238"/>
<path d="M134.487 131.682C133.462 126.431 130.87 119.935 127.051 116.252C128.057 121.887 130.702 127.375 134.487 131.682Z" fill="#263238"/>
<path d="M139.65 107.506C139.647 107.505 139.636 107.532 139.617 107.584C139.597 107.646 139.57 107.723 139.538 107.819C139.468 108.039 139.371 108.343 139.247 108.728C138.996 109.517 138.655 110.666 138.256 112.093C137.855 113.519 137.414 115.227 136.958 117.132C136.511 119.039 136.056 121.144 135.636 123.365C135.221 125.588 134.881 127.715 134.606 129.655C134.337 131.595 134.129 133.347 133.985 134.821C133.838 136.295 133.738 137.49 133.686 138.316C133.66 138.72 133.64 139.038 133.626 139.268C133.621 139.37 133.617 139.451 133.614 139.516C133.613 139.572 133.613 139.601 133.616 139.601C133.619 139.601 133.624 139.573 133.631 139.517C133.638 139.452 133.647 139.371 133.658 139.271C133.68 139.041 133.71 138.724 133.749 138.322C133.82 137.497 133.938 136.305 134.1 134.834C134.259 133.362 134.478 131.613 134.755 129.676C135.038 127.739 135.382 125.615 135.796 123.395C136.216 121.177 136.667 119.073 137.105 117.166C137.552 115.261 137.981 113.552 138.368 112.123C138.752 110.694 139.076 109.54 139.309 108.746C139.419 108.357 139.506 108.051 139.569 107.829C139.595 107.731 139.616 107.652 139.633 107.589C139.647 107.535 139.653 107.507 139.65 107.506Z" fill="#263238"/>
<path d="M132.163 136.38C133.939 132.66 135.232 127.429 134.359 123.346C132.389 127.293 131.607 131.929 132.163 136.38Z" fill="#455A64"/>
<path d="M129.21 131.56C130.986 127.84 132.278 122.609 131.406 118.525C129.436 122.473 128.654 127.109 129.21 131.56Z" fill="#455A64"/>
<path d="M126.557 126.662C128.333 122.941 129.626 117.71 128.754 113.627C126.783 117.574 126.002 122.211 126.557 126.662Z" fill="#455A64"/>
<path d="M123.944 121.382C125.265 117.444 125.929 112.076 124.58 108.148C123.093 112.339 122.867 117.046 123.944 121.382Z" fill="#455A64"/>
<path d="M122.249 117.055C122.119 112.865 120.887 107.617 118.285 104.523C118.348 109.015 119.758 113.472 122.249 117.055Z" fill="#455A64"/>
<path d="M123.031 119.128C119.949 116.22 115.263 113.333 111.051 112.955C114.295 116.126 118.556 118.321 123.031 119.128Z" fill="#455A64"/>
<path d="M125.114 123.536C121.66 120.8 116.529 118.231 112.094 118.221C115.739 121.215 120.37 123.105 125.114 123.536Z" fill="#455A64"/>
<path d="M127.712 128.849C124.258 126.112 119.127 123.543 114.691 123.533C118.336 126.528 122.967 128.418 127.712 128.849Z" fill="#455A64"/>
<path d="M131.321 134.97C127.867 132.233 122.736 129.664 118.301 129.654C121.946 132.649 126.577 134.539 131.321 134.97Z" fill="#455A64"/>
<path d="M121.848 116.293C121.846 116.294 121.852 116.317 121.868 116.362C121.887 116.415 121.911 116.48 121.939 116.559C122.01 116.744 122.106 116.995 122.228 117.313C122.48 117.966 122.864 118.905 123.357 120.056C124.343 122.359 125.803 125.502 127.618 128.869C128.528 130.551 129.438 132.129 130.291 133.55C131.153 134.965 131.95 136.226 132.646 137.269C133.338 138.313 133.913 139.148 134.322 139.716C134.521 139.992 134.679 140.21 134.795 140.37C134.845 140.438 134.887 140.493 134.921 140.538C134.95 140.576 134.966 140.594 134.968 140.592C134.97 140.591 134.959 140.569 134.934 140.529C134.904 140.481 134.866 140.423 134.821 140.352C134.711 140.188 134.561 139.964 134.373 139.682C133.978 139.103 133.418 138.259 132.738 137.209C132.055 136.16 131.268 134.894 130.415 133.476C129.569 132.053 128.664 130.475 127.755 128.795C125.944 125.433 124.47 122.302 123.459 120.012C122.953 118.867 122.553 117.937 122.284 117.29C122.151 116.977 122.046 116.729 121.968 116.548C121.934 116.471 121.905 116.408 121.882 116.356C121.862 116.313 121.851 116.292 121.848 116.293Z" fill="#263238"/>
<path d="M123.707 136.822H141.359V140.225H139.545L138.017 149.927H127.106L125.535 140.225H123.707V136.822Z" fill="#24B24B"/>
<path d="M123.707 140.158C123.707 140.113 127.63 140.076 132.469 140.076C137.309 140.076 141.231 140.113 141.231 140.158C141.231 140.203 137.309 140.24 132.469 140.24C127.63 140.24 123.707 140.203 123.707 140.158Z" fill="#263238"/>
<path d="M22.5953 149.94H19.7304L18.668 137.043H22.0417L22.5953 149.94Z" fill="#263238"/>
<path d="M47.4258 149.94H50.2911L51.3531 137.043H47.9794L47.4258 149.94Z" fill="#263238"/>
<path d="M53.3227 138.675L16.4472 139.541L15.3249 115.723C15.2152 113.39 17.0763 111.439 19.411 111.439H50.8292C53.1998 111.439 55.074 113.448 54.9099 115.813L53.3227 138.675Z" fill="#24B24B"/>
<path d="M55.2132 115.643C55.2132 115.646 55.1783 115.649 55.1101 115.652C55.033 115.655 54.9335 115.657 54.8077 115.661C54.5309 115.665 54.1415 115.671 53.6455 115.679C52.625 115.683 51.1671 115.688 49.3706 115.694C45.7613 115.7 40.7745 115.66 35.2708 115.787C29.7639 115.97 24.7732 115.939 21.1645 115.884C19.3597 115.856 17.8996 115.821 16.8906 115.79C16.3949 115.773 16.0058 115.76 15.729 115.751C15.6036 115.744 15.5041 115.74 15.4269 115.736C15.3588 115.732 15.3242 115.728 15.3242 115.725C15.3242 115.722 15.3591 115.72 15.4273 115.719C15.5044 115.718 15.6042 115.718 15.7297 115.717C16.0065 115.719 16.3959 115.721 16.8919 115.725C17.9124 115.735 19.3697 115.749 21.1658 115.766C24.7751 115.791 29.7607 115.803 35.2666 115.62C40.7748 115.493 45.762 115.552 49.3709 115.576C51.1674 115.591 52.6247 115.605 53.6455 115.613C54.1415 115.619 54.5309 115.624 54.8077 115.627C54.9332 115.63 55.033 115.632 55.1101 115.634C55.1783 115.638 55.2132 115.64 55.2132 115.643Z" fill="#263238"/>
<path d="M28.7766 111.812C28.7869 111.868 27.6211 111.888 26.3824 112.53C25.1344 113.156 24.4346 114.089 24.3955 114.048C24.3808 114.037 24.5318 113.791 24.8521 113.455C25.1705 113.119 25.6736 112.706 26.3069 112.382C26.9411 112.06 27.5702 111.895 28.0291 111.834C28.489 111.772 28.7766 111.794 28.7766 111.812Z" fill="#263238"/>
<path d="M43.9464 68.5078L48.4546 76.7424L55.0581 73.0489L58.2693 74.1088C58.2693 74.1088 50.1676 82.8931 48.853 83.3405C47.5388 83.7878 45.0495 83.8694 43.6261 82.0886C42.3301 80.4672 38.5586 71.9526 38.5586 71.9526L43.9464 68.5078Z" fill="#FFBE9D"/>
<path d="M62.5002 63.1355C62.3827 62.9902 62.1981 62.9169 62.0131 62.9425L58.8727 63.3745C58.5971 63.4171 58.353 63.5749 58.201 63.8085L51.6797 73.8315L52.1811 74.1118L55.6534 74.0027L62.5987 63.2584L62.5002 63.1355Z" fill="#263238"/>
<path d="M60.2753 64.4292C60.3421 64.4881 60.4599 64.4631 60.5383 64.3738C60.6164 64.2845 60.6257 64.1646 60.5588 64.106C60.4919 64.0474 60.3741 64.0721 60.2957 64.1614C60.2173 64.2506 60.2084 64.3706 60.2753 64.4292Z" fill="white"/>
<path d="M62.5965 63.2561C62.5981 63.2692 62.3818 63.3111 61.9894 63.3761C61.5648 63.4417 61.0038 63.5287 60.3251 63.6337C59.9702 63.6858 59.5856 63.7421 59.1747 63.8026C58.977 63.8205 58.8016 63.9226 58.6893 64.0884C58.5686 64.2756 58.4448 64.4676 58.3178 64.6644C57.8042 65.4564 57.2422 66.3223 56.6525 67.2314C55.4662 69.0503 54.3837 70.6909 53.592 71.873C53.2064 72.442 52.8877 72.9121 52.6464 73.2679C52.4195 73.5949 52.289 73.7725 52.2781 73.7652C52.2672 73.7581 52.377 73.5671 52.5846 73.2276C52.8131 72.8634 53.1149 72.3821 53.48 71.8001C54.2429 70.5991 55.3078 68.9469 56.4941 67.1281C57.0883 66.2218 57.6544 65.3585 58.1718 64.569C58.3018 64.3729 58.4285 64.1812 58.552 63.9943C58.6896 63.7885 58.9306 63.6625 59.1494 63.6474C59.5619 63.5953 59.9485 63.5463 60.3046 63.5012C60.9875 63.4202 61.552 63.3533 61.9792 63.3028C62.375 63.2609 62.5946 63.2433 62.5965 63.2561Z" fill="#455A64"/>
<path d="M59.118 66.834C59.118 66.834 58.838 66.7837 58.6847 67.5495C58.5314 68.3152 58.038 70.5114 58.038 70.5114L56.5714 69.7322L54.7369 69.9712C54.7369 69.9712 54.3365 70.3412 54.63 70.5421C54.9237 70.7428 56.0834 70.9501 56.0834 70.9501L56.9388 72.1799L54.4841 70.9965C54.4841 70.9965 53.6652 71.21 53.9049 71.7098C54.1449 72.2096 55.7999 73.7735 55.7999 73.7735L54.5701 73.6804L53.1077 72.7924C53.1077 72.7924 52.6591 72.8128 52.8265 73.1949C52.9938 73.577 54.5145 74.9578 54.5145 74.9578L56.3586 75.8525C56.3586 75.8525 57.3653 75.7735 57.462 75.4778C57.5586 75.1821 57.5833 74.7604 57.5833 74.7604C57.5833 74.7604 58.1177 74.6164 58.2175 74.3572C58.3173 74.098 58.253 73.688 58.253 73.688C58.253 73.688 59.0917 73.8352 59.1961 73.3677C59.3004 72.9002 59.2127 71.9789 59.1282 71.6192C59.0437 71.2596 59.486 67.9162 59.4514 67.8154C59.4169 67.714 59.6437 66.6128 59.118 66.834Z" fill="#FFBE9D"/>
<path d="M57.5254 75.482C57.5315 75.5037 57.3532 75.5821 57.0444 75.6314C56.7366 75.6816 56.2963 75.6864 55.8291 75.576C55.3619 75.464 54.9708 75.2612 54.719 75.0778C54.4652 74.8948 54.3414 74.7444 54.3567 74.7277C54.3916 74.6804 54.9756 75.1863 55.8729 75.392C56.7657 75.6125 57.5155 75.4237 57.5254 75.482Z" fill="#EB996E"/>
<path d="M57.0892 74.8176C57.0604 74.8602 56.7337 74.689 56.3849 74.4026C56.0355 74.1165 55.8035 73.8298 55.8396 73.7933C55.8768 73.7555 56.1625 73.9766 56.5046 74.2566C56.8464 74.537 57.119 74.7738 57.0892 74.8176Z" fill="#EB996E"/>
<path d="M58.0631 73.2319C58.0353 73.2745 57.7108 73.1075 57.3837 72.8044C57.0557 72.5023 56.8634 72.1923 56.9037 72.1612C56.9453 72.1279 57.1959 72.375 57.5121 72.6659C57.8269 72.9577 58.0932 73.1878 58.0631 73.2319Z" fill="#EB996E"/>
<path d="M59.0812 71.95C59.0309 71.9715 58.8457 71.6252 58.5532 71.2483C58.2639 70.8687 57.9772 70.6009 58.0105 70.5577C58.0389 70.5167 58.3957 70.7311 58.7029 71.1331C59.0127 71.5334 59.1282 71.9331 59.0812 71.95Z" fill="#EB996E"/>
<path d="M60.3232 131.302C60.3341 131.301 60.3447 131.193 60.3143 130.998C60.2826 130.806 60.2036 130.525 60.0077 130.227C59.9575 130.154 59.9076 130.076 59.825 130.004C59.7469 129.933 59.6119 129.878 59.4816 129.926C59.417 129.947 59.3524 130.006 59.33 130.079C59.3056 130.153 59.3178 130.226 59.337 130.285C59.3796 130.407 59.4432 130.494 59.4967 130.595C59.6157 130.795 59.714 130.994 59.866 131.22C59.9428 131.335 60.1156 131.43 60.2733 131.403C60.4285 131.383 60.554 131.309 60.6669 131.229C60.8861 131.07 61.0791 130.889 61.2452 130.696C61.328 130.6 61.4039 130.5 61.473 130.399C61.5383 130.3 61.6151 130.198 61.6442 130.059C61.6736 129.925 61.6228 129.748 61.4704 129.687C61.3159 129.631 61.1901 129.709 61.104 129.77C60.9293 129.915 60.8244 130.064 60.7178 130.207C60.5146 130.495 60.4026 130.758 60.3392 130.942C60.2772 131.127 60.2624 131.235 60.2733 131.238C60.3047 131.251 60.4087 130.823 60.8208 130.284C60.9232 130.156 61.0503 130 61.192 129.892C61.2644 129.84 61.3549 129.807 61.4096 129.835C61.4676 129.855 61.4996 129.942 61.4807 130.026C61.4628 130.112 61.3978 130.205 61.3306 130.301C61.2637 130.396 61.1904 130.489 61.1111 130.58C60.952 130.761 60.7674 130.932 60.561 131.082C60.4615 131.153 60.3536 131.212 60.2528 131.224C60.1517 131.237 60.0724 131.197 60.0058 131.11C59.8794 130.927 59.7581 130.7 59.6413 130.511C59.5853 130.412 59.5178 130.317 59.4884 130.234C59.4576 130.148 59.4746 130.092 59.5351 130.068C59.674 130.01 59.809 130.167 59.9028 130.3C60.2928 130.854 60.2877 131.313 60.3232 131.302Z" fill="#263238"/>
<path d="M52.4597 131.57L48.555 140.033L42.2539 137.122L46.2926 126.648L52.4597 131.57Z" fill="#FFBE9D"/>
<path d="M49.2962 139.474L47.0149 143.825C47.0149 143.825 52.8546 149.863 52.3061 151.212L38.5781 144.63L42.3496 135.904L49.2962 139.474Z" fill="#455A64"/>
<path d="M43.0623 141.194C42.7618 141.139 42.4351 141.35 42.3679 141.648C42.301 141.946 42.5122 142.28 42.8117 142.34C43.1112 142.4 43.5112 142.159 43.5445 141.856C43.5778 141.552 43.308 141.173 43.0031 141.187" fill="#E0E0E0"/>
<g opacity="0.6">
<path d="M38.5781 144.618L39.1493 143.523L52.0981 150.243C52.0981 150.243 52.582 150.802 52.3064 151.2L38.5781 144.618Z" fill="white"/>
</g>
<path d="M47.2732 143.848C47.2389 143.914 46.8892 143.784 46.4559 143.841C46.0213 143.887 45.7119 144.096 45.6629 144.04C45.6076 143.997 45.8994 143.644 46.4252 143.584C46.9503 143.519 47.3173 143.793 47.2732 143.848Z" fill="#263238"/>
<path d="M48.4142 145.141C48.3985 145.213 48.0536 145.188 47.6897 145.362C47.3211 145.526 47.1166 145.805 47.0513 145.77C46.9832 145.751 47.1252 145.336 47.5812 145.128C48.0356 144.915 48.4433 145.076 48.4142 145.141Z" fill="#263238"/>
<path d="M48.4142 147.25C48.3464 147.235 48.4139 146.856 48.762 146.571C49.1083 146.284 49.4939 146.291 49.4955 146.36C49.507 146.434 49.2091 146.533 48.9268 146.771C48.6388 147.002 48.484 147.276 48.4142 147.25Z" fill="#263238"/>
<path d="M47.9208 142.172C47.8635 142.22 47.6002 141.98 47.2088 141.824C46.8207 141.66 46.4648 141.646 46.4575 141.572C46.4418 141.505 46.8488 141.394 47.3071 141.585C47.7666 141.771 47.9791 142.135 47.9208 142.172Z" fill="#263238"/>
<path d="M50.5794 138.34L60.8719 112.581C60.8719 112.581 60.6405 108.186 59.8309 106.799C59.0213 105.411 34.5026 97.3148 34.5026 97.3148C34.5026 97.3148 28.2572 95.8111 24.0936 97.3148C19.9301 98.8181 16.8072 104.023 17.3855 106.914C17.9637 109.806 20.404 111.93 20.404 111.93L38.4348 112.466L48.2623 116.051L41.644 135.018L50.5794 138.34Z" fill="#263238"/>
<path d="M59.7336 120.733L59.9659 130.05L53.027 130.22L52.0273 119.039L59.7336 120.733Z" fill="#FFBE9D"/>
<path d="M60.3757 129.217L60.249 134.127C60.249 134.127 68.1542 136.967 68.2582 138.421L53.0346 138.575L52.5664 129.08L60.3757 129.217Z" fill="#455A64"/>
<path d="M55.5349 133.515C55.2411 133.599 55.0408 133.932 55.1121 134.229C55.1835 134.526 55.5208 134.733 55.8161 134.654C56.1112 134.576 56.364 134.183 56.26 133.896C56.1557 133.609 55.7464 133.388 55.4789 133.535" fill="#E0E0E0"/>
<g opacity="0.6">
<path d="M53.043 138.578L53.0724 137.344L67.6577 137.657C67.6577 137.657 68.3383 137.945 68.2667 138.423L53.043 138.578Z" fill="white"/>
</g>
<path d="M60.4963 134.043C60.4947 134.117 60.1232 134.155 59.76 134.398C59.3904 134.631 59.2048 134.955 59.1363 134.926C59.0675 134.912 59.1741 134.467 59.6192 134.181C60.0615 133.89 60.5117 133.975 60.4963 134.043Z" fill="#263238"/>
<path d="M62.1047 134.697C62.1223 134.769 61.8017 134.899 61.5524 135.216C61.2938 135.525 61.2337 135.866 61.1594 135.863C61.0897 135.876 61.034 135.441 61.3515 135.053C61.6654 134.662 62.1025 134.626 62.1047 134.697Z" fill="#263238"/>
<path d="M63.0221 136.589C62.9546 136.606 62.8474 136.235 63.0343 135.826C63.2183 135.416 63.5671 135.252 63.5991 135.313C63.6416 135.374 63.4183 135.595 63.2701 135.933C63.1143 136.268 63.096 136.581 63.0221 136.589Z" fill="#263238"/>
<path d="M60.3475 132.26C60.3171 132.328 59.9751 132.229 59.5552 132.262C59.1347 132.286 58.8093 132.43 58.7696 132.367C58.7261 132.313 59.0426 132.035 59.5376 132.004C60.0323 131.968 60.3837 132.201 60.3475 132.26Z" fill="#263238"/>
<path d="M55.6837 94.8685C55.6837 94.8685 59.8412 94.536 60.3036 99.0467C60.7663 103.557 61.2204 124.607 61.2204 124.607L51.5052 125.417L50.0018 103.905L34.5039 97.3123C34.5039 97.3123 52.9081 94.2902 55.6837 94.8685Z" fill="#263238"/>
<path d="M38.5472 88.7812C38.5472 88.7812 41.0704 95.8552 40.5898 96.6436C40.1091 97.4321 33.6211 100.676 33.6211 100.676L17.3863 106.911C17.3863 106.911 15.7188 104.259 15.7188 100.184C15.7188 96.1102 21.3658 88.7812 21.3658 88.7812H38.5472Z" fill="#263238"/>
<path d="M33.7383 96.9515C33.7373 96.9541 33.7629 96.9678 33.8145 96.9925C33.874 97.02 33.9498 97.0552 34.0449 97.099C34.2589 97.1944 34.5594 97.3278 34.9441 97.499C35.7412 97.8462 36.8858 98.3448 38.3188 98.9691C41.2145 100.216 45.273 101.963 49.9697 103.984L49.9172 103.911C50.0644 106.035 50.2237 108.33 50.3885 110.705C50.7834 116.255 51.1476 121.373 51.4356 125.421L51.4407 125.495L51.5137 125.488C54.4685 125.229 56.8932 125.016 58.5911 124.867C59.426 124.789 60.0817 124.728 60.5399 124.685C60.7556 124.663 60.9246 124.645 61.049 124.632C61.1639 124.619 61.2228 124.61 61.2225 124.607C61.2221 124.603 61.1626 124.605 61.0471 124.61C60.922 124.618 60.7524 124.629 60.5361 124.642C60.0772 124.676 59.4202 124.724 58.5841 124.785C56.8849 124.92 54.4583 125.111 51.5012 125.344L51.5793 125.411C51.3012 121.362 50.9501 116.243 50.569 110.692C50.402 108.318 50.2404 106.023 50.0906 103.899L50.0868 103.846L50.0378 103.825C45.3309 101.827 41.2634 100.1 38.3617 98.8686C36.9201 98.2641 35.7687 97.7813 34.9671 97.4453C34.5777 97.2856 34.2737 97.1608 34.0567 97.0715C33.9591 97.0331 33.881 97.0024 33.8202 96.9787C33.7671 96.9582 33.7393 96.9493 33.7383 96.9515Z" fill="#455A64"/>
<path d="M20.8243 97.6591C20.8285 97.6709 20.9907 97.6258 21.28 97.5346C21.6025 97.4306 22.0125 97.2984 22.5024 97.1403C23.5337 96.8133 24.9648 96.357 26.5933 96.1068C28.2217 95.8556 29.7286 95.933 30.7811 96.1605C31.8384 96.3791 32.4461 96.6808 32.4595 96.6466C32.464 96.637 32.3171 96.5541 32.0371 96.4328C31.7577 96.3106 31.3401 96.1624 30.8086 96.0351C29.7485 95.7717 28.2147 95.6725 26.5661 95.9272C24.9181 96.181 23.4841 96.66 22.4611 97.0188C21.9491 97.2005 21.5385 97.3564 21.256 97.4677C20.9741 97.5797 20.8201 97.6472 20.8243 97.6591Z" fill="#455A64"/>
<path d="M23.1133 93.9283C23.1178 93.9571 23.657 93.8518 24.5328 93.9203C24.9699 93.9507 25.4903 94.0179 26.0695 94.0848C26.6477 94.1536 27.2826 94.2313 27.9399 94.3558C29.2589 94.5907 30.3939 95.0505 31.121 95.536C31.8551 96.0137 32.1991 96.4492 32.224 96.4246C32.2311 96.4188 32.1568 96.302 31.9882 96.1193C31.8199 95.9372 31.5591 95.6844 31.1927 95.4297C30.4695 94.9062 29.3091 94.415 27.9738 94.1779C27.3082 94.0518 26.6682 93.9785 26.0877 93.9187C25.5075 93.8608 24.9837 93.8067 24.5392 93.792C24.0954 93.776 23.7344 93.8016 23.4887 93.8387C23.2426 93.8761 23.1111 93.9177 23.1133 93.9283Z" fill="#455A64"/>
<path d="M30.2878 37.0834C28.4196 36.766 26.7777 37.4854 25.202 38.5382C23.6266 39.5913 22.4401 41.1804 21.7553 42.9471C21.0337 44.8079 20.8583 46.9017 21.4126 48.8191C21.9671 50.7362 23.2801 52.4524 25.0596 53.3564C27.4897 54.5907 30.5972 54.1602 32.7713 52.5164C34.9454 50.8726 36.1882 48.1548 36.2926 45.4313C36.3642 43.5551 35.9159 41.6355 34.8676 40.0777C33.819 38.5203 32.1457 37.3564 30.2878 37.0834Z" fill="#263238"/>
<path d="M24.9769 43.4378C25.2502 42.7232 25.1443 41.9252 25.2525 41.1677C25.4905 39.4999 26.8345 38.1623 28.3888 37.512C29.8345 36.9072 31.6006 37.0391 33.3424 37.6023C34.5363 37.9882 35.6601 38.6612 36.456 39.6311C37.5123 40.9184 37.8848 42.737 37.4189 44.3357L28.8851 43.0928C28.0861 43.754 27.2681 44.426 26.2992 44.7946C26.0147 44.9028 25.7088 44.984 25.4083 44.9367C25.1078 44.889 24.8157 44.6848 24.7446 44.3888C24.6669 44.066 24.8582 43.7485 24.9769 43.4378Z" fill="#263238"/>
<path d="M33.5265 39.9572L26.0759 41.5358C25.3553 41.5838 24.7911 42.1755 24.7773 42.8977L24.8669 59.0212C24.873 60.1227 25.2423 61.1915 25.9172 62.0616L26.6276 62.978C28.2477 65.0673 31.5293 64.8568 32.7668 62.5208C32.8532 62.3576 32.913 62.2145 32.9383 62.0987C32.9633 61.9537 33.0017 61.8581 33.0084 61.7348L33.1505 60.163C33.2231 58.7275 33.233 57.2686 33.2333 57.282C33.2333 57.282 36.2823 56.8968 37.0634 52.9684C37.4519 51.0148 37.4785 47.788 37.4145 45.147C37.3572 42.7694 35.8989 39.7988 33.5265 39.9572Z" fill="#FFBE9D"/>
<path d="M36.2908 48.179C36.2898 48.4471 36.062 48.6673 35.7823 48.6715C35.5029 48.6756 35.2764 48.4622 35.2773 48.194C35.2783 47.9259 35.5061 47.7054 35.7855 47.7012C36.0655 47.6974 36.2917 47.9111 36.2908 48.179Z" fill="#263238"/>
<path d="M36.6588 46.8049C36.5935 46.8686 36.2204 46.5694 35.6748 46.5495C35.1302 46.522 34.719 46.7873 34.6623 46.7182C34.6342 46.6874 34.7033 46.5706 34.8822 46.4503C35.0588 46.3306 35.3561 46.2193 35.6959 46.2337C36.0358 46.2487 36.3167 46.385 36.4761 46.5194C36.6386 46.6548 36.6908 46.7764 36.6588 46.8049Z" fill="#263238"/>
<path d="M31.3998 48.042C31.3989 48.3101 31.171 48.5303 30.8914 48.5344C30.612 48.5386 30.3858 48.3252 30.3867 48.0573C30.3877 47.7892 30.6155 47.5687 30.8949 47.5645C31.1746 47.56 31.4008 47.7738 31.3998 48.042Z" fill="#263238"/>
<path d="M31.4598 46.6545C31.3942 46.7182 31.0208 46.419 30.4755 46.3994C29.9309 46.3719 29.5197 46.6369 29.463 46.5678C29.4352 46.537 29.5034 46.4202 29.6832 46.3002C29.8598 46.1806 30.1571 46.0689 30.497 46.0833C30.8365 46.0983 31.1174 46.2346 31.2771 46.369C31.4394 46.5044 31.4918 46.626 31.4598 46.6545Z" fill="#263238"/>
<path d="M33.0994 50.8185C33.0981 50.7874 33.4392 50.742 33.9915 50.693C34.1314 50.6841 34.2645 50.6617 34.2914 50.5673C34.3282 50.4678 34.2757 50.3154 34.2146 50.151C34.0968 49.8089 33.9733 49.4502 33.8437 49.0742C33.3304 47.542 32.9643 46.2841 33.0264 46.2639C33.0882 46.2438 33.5547 47.4694 34.068 49.0018C34.1912 49.3794 34.309 49.7398 34.4213 50.0841C34.468 50.2444 34.5515 50.4274 34.4725 50.6335C34.4309 50.7362 34.3256 50.8076 34.2354 50.8284C34.1451 50.8521 34.0667 50.8505 33.9976 50.8521C33.4434 50.8604 33.1003 50.8495 33.0994 50.8185Z" fill="#263238"/>
<path d="M33.2387 57.2758C33.2387 57.2758 30.5728 57.344 28 55.6582C28 55.6582 29.2246 58.446 33.1952 58.2297L33.2387 57.2758Z" fill="#EB996E"/>
<path d="M32.8284 52.1204C32.6421 51.8535 32.3042 51.6977 31.9615 51.7211C31.7237 51.7374 31.4802 51.842 31.3288 52.0295C31.1775 52.2167 31.1368 52.4894 31.2603 52.6782C31.3995 52.891 31.7052 52.9505 31.9685 52.8868C32.2319 52.8228 32.4623 52.6603 32.6818 52.4977C32.7426 52.4526 32.8047 52.4059 32.8437 52.3425C32.8831 52.2791 32.8943 52.195 32.8508 52.1396" fill="#EB996E"/>
<path d="M31.4911 51.1154C31.58 51.1134 31.558 51.7058 32.0488 52.1458C32.5381 52.587 33.172 52.5451 33.1733 52.628C33.18 52.6654 33.0284 52.7378 32.7618 52.7346C32.5 52.7333 32.1218 52.6347 31.8216 52.3656C31.5224 52.0958 31.4028 51.7467 31.3922 51.5032C31.3791 51.2542 31.4508 51.1102 31.4911 51.1154Z" fill="#263238"/>
<path d="M31.4366 45.0451C31.3771 45.1914 30.835 45.0999 30.1921 45.1523C29.5479 45.1917 29.0247 45.3591 28.9447 45.2227C28.9092 45.1575 29.0049 45.0218 29.219 44.8861C29.4315 44.7507 29.7668 44.6272 30.1524 44.5994C30.5383 44.5722 30.8878 44.6467 31.1172 44.7507C31.3486 44.8544 31.4622 44.9757 31.4366 45.0451Z" fill="#263238"/>
<path d="M36.5762 44.4136C36.4754 44.5336 36.1048 44.3905 35.653 44.3668C35.2021 44.3275 34.8152 44.4177 34.7323 44.2846C34.6962 44.2203 34.7611 44.0984 34.933 43.9876C35.1022 43.8772 35.3816 43.7924 35.6917 43.8139C36.0018 43.836 36.2664 43.9585 36.4187 44.0916C36.5736 44.2248 36.621 44.3547 36.5762 44.4136Z" fill="#263238"/>
<path d="M23.6154 42.2851C24.3879 40.0163 27.7604 36.9251 30.1473 37.1395L33.9188 39.5049C33.6618 40.8009 32.6349 41.9136 31.3636 42.2732C30.6845 42.4652 29.8708 42.5056 29.458 43.078C29.0362 43.6624 29.2586 44.5302 28.865 45.1337C28.3194 45.9702 26.8753 45.9014 26.4605 46.8099C26.2794 47.207 26.3604 47.687 26.1719 48.0806C25.921 48.6051 24.5681 49.2492 24.0173 49.0627C23.4669 48.8761 23.4839 47.9324 23.3127 47.4345C23.0199 46.5836 23.1562 46.1484 23.2676 45.6787C23.5309 44.5657 23.2471 43.3673 23.6154 42.2851Z" fill="#263238"/>
<path d="M25.6396 49.561C25.6502 49.2666 25.3369 48.5594 25.048 48.5028C24.2764 48.3517 22.8748 48.3597 22.7852 50.3306C22.663 53.025 25.3932 52.592 25.4016 52.5149C25.4076 52.4548 25.6025 50.5773 25.6396 49.561Z" fill="#FFBE9D"/>
<path d="M24.624 51.4633C24.6125 51.4541 24.5757 51.4941 24.4948 51.5267C24.4157 51.5584 24.2816 51.5769 24.1434 51.5181C23.8634 51.4006 23.6442 50.9379 23.6532 50.4518C23.6573 50.2061 23.7194 49.975 23.8151 49.7856C23.9063 49.5923 24.04 49.4601 24.1844 49.4416C24.3284 49.415 24.426 49.5053 24.4554 49.5827C24.488 49.6598 24.4685 49.7129 24.4826 49.7181C24.4896 49.7254 24.5424 49.6755 24.5258 49.5635C24.5168 49.5094 24.4884 49.4445 24.4276 49.3897C24.3652 49.3344 24.2714 49.303 24.1709 49.3094C23.9626 49.3145 23.7668 49.4969 23.6618 49.7049C23.5453 49.9133 23.4698 50.1728 23.465 50.4486C23.4576 50.9923 23.7124 51.5129 24.097 51.6432C24.2842 51.7011 24.4452 51.6512 24.5296 51.5913C24.6164 51.5283 24.633 51.4688 24.624 51.4633Z" fill="#EB996E"/>
<path d="M23.0349 41.586C23.0439 40.7432 21.9911 40.1918 21.17 40.0008C20.3489 39.81 19.4807 40.0596 18.7415 40.4648C18.3089 40.7016 17.8733 41.0388 17.7767 41.5224C17.6797 42.0059 18.1453 42.5822 18.6071 42.4091C17.7223 42.7118 17.2737 43.8936 17.7345 44.7073C18.1953 45.5211 19.4394 45.7441 20.154 45.1412C19.9233 45.9134 19.4196 46.6011 18.753 47.0539C20.1389 47.2513 21.6106 46.6596 22.4737 45.5572C23.337 44.4548 23.5588 42.8843 23.0349 41.586Z" fill="#263238"/>
<path d="M21.1604 45.8715C21.1412 45.8744 21.0692 45.5688 21.0596 45.0629C21.0487 44.5585 21.1236 43.8533 21.37 43.1185C21.6186 42.3841 21.986 41.7774 22.2996 41.3825C22.6132 40.9854 22.8554 40.7857 22.8692 40.7995C22.9188 40.8344 22.0148 41.7297 21.5393 43.1755C21.0433 44.6136 21.2212 45.8737 21.1604 45.8715Z" fill="#24B24B"/>
<path d="M33.1289 38.6909C33.3769 39.7879 35.0441 41.1946 35.7759 42.0487C37.1724 43.6781 37.4476 44.2193 37.4339 47.8621C38.0931 46.6039 38.598 45.3713 38.5475 43.9517C38.4969 42.5322 37.974 41.1101 36.9871 40.0887C36.0006 39.0669 34.5347 38.4871 33.1289 38.6909Z" fill="#263238"/>
<path d="M44.5623 68.6672C44.5623 68.6672 41.6583 63.8252 40.8526 62.8457C40.097 61.9273 39.1236 61.3859 38.4737 61.1014C38.1121 60.9433 37.7319 60.8345 37.3431 60.767L33.1668 59.8422C33.1668 59.8422 33.1594 62.6928 30.1726 62.8691C27.1857 63.0454 24.6708 58.8848 24.6708 58.8848C24.6708 58.8848 19.8458 59.631 18.6913 60.2249C17.5367 60.8188 15.7223 61.5731 14.7242 66.5724L14.0234 71.4633L22.3431 72.2323L23.1393 84.5952L27.2654 87.4684C27.2654 87.4684 38.7041 90.4422 39.435 90.639C40.1658 90.8355 40.4081 72.2323 40.4081 72.2323C40.4081 72.2323 43.3463 70.3328 44.5623 68.6672Z" fill="#263238"/>
<path d="M39.0839 66.588C39.0948 66.5838 39.1515 66.7109 39.2446 66.9448C39.3396 67.1778 39.4609 67.5211 39.5959 67.9505C39.867 68.8085 40.1643 70.0216 40.3326 71.3867C40.4983 72.7525 40.5025 74.0017 40.4465 74.8997C40.419 75.3486 40.3841 75.7112 40.3479 75.9601C40.3137 76.2094 40.2894 76.3464 40.2782 76.3451C40.2667 76.3438 40.2692 76.2046 40.2836 75.9544C40.2999 75.7045 40.3166 75.3419 40.3287 74.8949C40.3543 74.0005 40.3316 72.7624 40.1671 71.4072C40.0001 70.0529 39.7236 68.8459 39.4827 67.9842C39.363 67.5531 39.2593 67.2056 39.1831 66.9665C39.1092 66.7265 39.0731 66.5918 39.0839 66.588Z" fill="#455A64"/>
<path d="M38.7296 86.8378L23.0649 83.4282L22.3411 72.2317L15.375 71.5879C15.375 71.5879 15.6326 79.242 15.9008 81.5178C16.286 84.7904 18.2208 89.2564 19.3523 90.1488C20.4841 91.041 39.4329 90.6388 39.4329 90.6388L38.7296 86.8378Z" fill="#FFBE9D"/>
<path d="M47.62 88.8684C47.51 89.0869 47.2808 89.2293 47.037 89.2082C46.9884 89.2041 46.9375 89.1944 46.8853 89.1775C46.5388 89.0665 46.5714 88.3608 46.5714 88.3608L44.9112 88.0898C44.9112 88.0898 42.7525 89.4818 41.9845 90.4047C41.2165 91.3272 39.2572 90.58 39.2572 90.58L38.5781 87.0418L41.6338 84.2786C41.6338 84.2786 41.4463 84.4431 41.6568 83.9263C41.8677 83.4095 42.8277 83.605 42.8277 83.605C42.9772 83.3493 43.6044 83.2578 43.6044 83.2578L46.2847 83.5666C46.837 83.6303 47.3308 83.9407 47.6277 84.4104L48.7612 86.2047C48.7612 86.2047 49.3599 87.4962 49.2636 87.7967C49.1183 88.2498 48.6389 88.149 48.6389 88.149C48.6389 88.149 48.5071 88.9983 48.284 89.0277C48.061 89.0572 47.62 88.8684 47.62 88.8684Z" fill="#FFBE9D"/>
<path d="M41.918 86.3281C41.9209 86.3562 42.2773 86.3233 42.8498 86.3479C43.421 86.3758 44.2111 86.4759 45.037 86.7572C45.4498 86.8961 45.8306 87.0638 46.1647 87.2394C46.4885 87.4218 46.8265 87.5716 46.9301 87.8074C46.9823 87.923 46.9589 88.0404 46.901 88.1268C46.8444 88.2132 46.7673 88.2698 46.6988 88.2977C46.558 88.3556 46.4668 88.3159 46.4639 88.3322C46.4572 88.3361 46.5471 88.4058 46.7205 88.3604C46.8044 88.3377 46.9013 88.2817 46.9791 88.1818C47.0588 88.0871 47.1045 87.9178 47.0425 87.7623C46.9845 87.6062 46.8514 87.4852 46.709 87.3857C46.5631 87.29 46.4102 87.1924 46.2399 87.1006C45.9026 86.9134 45.5145 86.7374 45.0918 86.595C44.2463 86.307 43.4332 86.2238 42.8524 86.2266C42.269 86.2334 41.9151 86.3095 41.918 86.3281Z" fill="#EB996E"/>
<path d="M41.7305 88.0385C41.7337 88.0894 42.8242 88.0436 44.1644 88.1224C45.5052 88.196 46.5836 88.3646 46.5922 88.3147C46.5961 88.2926 46.3308 88.2219 45.8943 88.1451C45.4582 88.0683 44.8498 87.9902 44.174 87.9515C43.4985 87.9134 42.8854 87.922 42.4431 87.9489C42.0009 87.9761 41.7292 88.0161 41.7305 88.0385Z" fill="#EB996E"/>
<path d="M47.6093 88.8011C47.6182 88.7995 47.6301 88.7007 47.6429 88.5157C47.6541 88.3314 47.6653 88.0632 47.6445 87.7307C47.6333 87.5647 47.6154 87.3819 47.5696 87.1871C47.5271 86.9912 47.4336 86.7851 47.3062 86.6031C47.0646 86.2376 46.729 85.8587 46.3018 85.5746C45.8762 85.2939 45.4506 85.0568 45.0199 84.9266C44.5923 84.7973 44.1926 84.7653 43.8621 84.7503C43.5306 84.7387 43.2637 84.7458 43.0794 84.7528C42.895 84.7605 42.7933 84.7701 42.793 84.7819C42.7917 84.8095 43.2016 84.8232 43.8544 84.8709C44.1792 84.9007 44.5674 84.9451 44.9728 85.0767C45.3751 85.2056 45.7933 85.4437 46.2048 85.7151C46.617 85.9906 46.9306 86.3375 47.1763 86.692C47.4355 87.0299 47.4839 87.4178 47.5239 87.741C47.5888 88.3903 47.5725 88.8021 47.6093 88.8011Z" fill="#EB996E"/>
<path d="M43.7344 83.9364C43.7341 83.962 44.1353 83.9726 44.776 84.0462C45.3926 84.1406 46.3795 84.186 46.9417 85.0359C47.5504 85.809 48.0681 86.5393 48.2944 87.1383C48.5344 87.7332 48.5133 88.1447 48.5481 88.1419C48.5574 88.1422 48.5731 88.0411 48.5638 87.8577C48.5561 87.6747 48.5168 87.4078 48.4077 87.0964C48.2019 86.4644 47.6873 85.7067 47.0752 84.9291C46.919 84.7339 46.7501 84.5486 46.5542 84.4023C46.359 84.2532 46.1321 84.1665 45.9235 84.106C45.5008 83.9867 45.112 83.9518 44.7875 83.9255C44.1366 83.8823 43.7341 83.915 43.7344 83.9364Z" fill="#EB996E"/>
<path d="M42.5742 89.8331C42.5777 89.837 42.6324 89.7954 42.7332 89.7115C42.8481 89.6194 42.9969 89.5 43.1819 89.3512C43.5777 89.045 44.1662 88.6095 44.9435 88.1378L44.9054 88.1451C45.4004 88.2293 45.9588 88.3247 46.5636 88.4274L46.5067 88.3573C46.5031 88.4927 46.5108 88.6251 46.5377 88.7627C46.5655 88.8978 46.6087 89.0434 46.7259 89.1618C46.7867 89.2194 46.874 89.2536 46.946 89.2629C47.0199 89.2818 47.0999 89.2891 47.1793 89.2767C47.3377 89.2539 47.4865 89.1707 47.5921 89.0482C47.6193 89.0181 47.6427 88.9845 47.6644 88.9499L47.6795 88.9234L47.6868 88.9099L47.6907 88.9032L47.691 88.9022C47.7124 88.8939 47.5057 88.9698 47.5937 88.9378L47.5956 88.9384L47.5991 88.9397L47.6516 88.9611C47.7217 88.989 47.7927 89.0143 47.866 89.037C47.9393 89.0597 48.0142 89.0799 48.0932 89.0936C48.1329 89.1003 48.1732 89.1061 48.2164 89.1071C48.2567 89.1087 48.3054 89.1099 48.37 89.0773C48.4635 89.0107 48.4971 88.932 48.5326 88.8578C48.5659 88.7826 48.5927 88.7064 48.6151 88.6296C48.6609 88.4757 48.6942 88.3208 48.7217 88.1599L48.6247 88.2271C48.8401 88.2648 49.0939 88.213 49.243 88.0162C49.3102 87.9247 49.3652 87.8117 49.3569 87.6821C49.3515 87.5659 49.3255 87.4642 49.298 87.3611C49.1819 86.9541 49.0177 86.5634 48.8404 86.1675L48.8382 86.163L48.835 86.1579C48.6423 85.8526 48.4375 85.5285 48.2308 85.2008C48.1022 84.997 47.9742 84.7951 47.8475 84.5944C47.7201 84.4002 47.6059 84.1816 47.427 84.0069C47.2548 83.8328 47.0481 83.6968 46.8254 83.6072C46.6043 83.5118 46.3585 83.4882 46.1419 83.4651C45.2539 83.3653 44.4071 83.2699 43.6155 83.181L43.6046 83.1797L43.5956 83.1813C43.4404 83.2075 43.2951 83.244 43.1524 83.2981C43.0135 83.3541 42.8663 83.4174 42.7675 83.5672L42.8603 83.5381C42.5764 83.4216 42.2478 83.4203 41.9995 83.5861C41.7499 83.7503 41.6347 84.0155 41.5735 84.2648L41.5937 84.2299C40.7163 85.0191 40.0001 85.6629 39.4878 86.1237C39.2516 86.3413 39.0628 86.515 38.9204 86.6463C38.7921 86.7675 38.7265 86.8331 38.7307 86.8379C38.7348 86.8427 38.8084 86.7858 38.9447 86.6738C39.0929 86.549 39.2891 86.3835 39.5345 86.1765C40.0558 85.7263 40.7844 85.0965 41.6775 84.325L41.6919 84.3125L41.6977 84.2898C41.754 84.0699 41.8673 83.828 42.0734 83.7007C42.2737 83.5656 42.5614 83.5698 42.7991 83.6693L42.8577 83.6939L42.8923 83.6402C42.9495 83.5509 43.0769 83.4837 43.2046 83.437C43.3339 83.389 43.4766 83.3544 43.6174 83.3317L43.5979 83.332C44.3889 83.4255 45.2353 83.5253 46.1227 83.6299C46.3489 83.6549 46.5604 83.6757 46.7623 83.763C46.9636 83.8446 47.1505 83.9682 47.306 84.1259C47.4641 84.2786 47.5716 84.4837 47.7031 84.6853C47.8299 84.8859 47.9575 85.0882 48.0862 85.292C48.2935 85.6197 48.4983 85.9438 48.691 86.2488L48.6859 86.2392C48.8603 86.6264 49.0247 87.0178 49.1364 87.4053C49.1627 87.5013 49.1867 87.6005 49.1905 87.6885C49.1995 87.7646 49.1607 87.8469 49.1115 87.916C49.0151 88.052 48.8209 88.0949 48.6574 88.0683L48.5739 88.0546L48.5604 88.1352C48.5351 88.2869 48.5031 88.4402 48.4609 88.5845C48.4209 88.7211 48.3611 88.8875 48.2875 88.9432C48.2836 88.9451 48.2551 88.9541 48.2199 88.9506C48.1876 88.9502 48.1527 88.9458 48.1185 88.94C48.0494 88.9285 47.9793 88.9103 47.9105 88.8895C47.8417 88.8687 47.7732 88.845 47.7067 88.8191L47.6574 88.7992L47.6545 88.7979L47.6532 88.7973C47.7406 88.7653 47.5332 88.8405 47.5547 88.8331L47.5543 88.8338L47.5515 88.8392L47.5457 88.8498L47.5342 88.8709C47.5172 88.8981 47.499 88.9247 47.4779 88.9487C47.3953 89.0463 47.2788 89.1115 47.1579 89.1301C47.0974 89.1403 47.0366 89.1349 46.9755 89.1195C46.9092 89.1103 46.8651 89.0917 46.8238 89.0562C46.6657 88.8914 46.643 88.5973 46.642 88.363L46.6417 88.3016L46.5851 88.2926C45.979 88.1979 45.4193 88.1106 44.923 88.0331L44.9015 88.0299L44.8846 88.0405C44.1073 88.5298 43.5287 88.98 43.1425 89.3029C42.9502 89.4655 42.8059 89.596 42.7115 89.6872C42.618 89.7797 42.5703 89.8293 42.5742 89.8331Z" fill="#EB996E"/>
<path d="M67.9434 78.5781L47.3101 78.7458C46.6407 78.7458 46.0013 79.0674 45.9008 79.7292L43.6458 94.7676H33.018C32.6759 94.7676 32.3984 95.045 32.3984 95.3871C32.3984 95.7292 32.6759 96.0066 33.018 96.0066H43.4599H45.442H66.9616L69.2813 80.1349C69.4061 79.3157 68.7719 78.5781 67.9434 78.5781Z" fill="#E0E0E0"/>
<path d="M67.9452 78.579C67.9452 78.579 68.0575 78.5646 68.2703 78.6094C68.4767 78.6574 68.8021 78.785 69.0584 79.1319C69.1861 79.3018 69.2834 79.5287 69.3135 79.7905C69.3471 80.0561 69.2709 80.3364 69.2376 80.6391C69.1512 81.2468 69.0517 81.947 68.94 82.7335C68.486 85.8865 67.8316 90.4302 67.0268 96.0164L67.0188 96.0708H66.9634C58.18 96.0759 46.6373 96.083 34.0328 96.0903C33.7368 96.0903 33.4415 96.0903 33.1464 96.0903C33.0098 96.0961 32.8194 96.0881 32.6776 96.001C32.5311 95.9204 32.4172 95.785 32.3602 95.6286C32.2367 95.3137 32.3842 94.9281 32.6805 94.7716C32.822 94.6862 33.0104 94.6788 33.1455 94.6842H33.582C34.7445 94.6845 35.8952 94.6846 37.0309 94.6849C39.3026 94.6855 41.5151 94.6865 43.6472 94.6871L43.5679 94.7556C44.3794 89.37 45.1365 84.346 45.8159 79.8388C45.8392 79.5534 45.9685 79.2446 46.1976 79.0532C46.4216 78.8545 46.7052 78.7489 46.9864 78.705C47.2735 78.6615 47.5468 78.6849 47.8184 78.6756C48.0908 78.6737 48.3608 78.6718 48.6287 78.6702C49.7 78.6628 50.7362 78.6561 51.7349 78.6494C53.7317 78.6366 55.5784 78.625 57.2556 78.6145C60.6056 78.5972 63.276 78.5838 65.1148 78.5742C66.0284 78.5726 66.7343 78.5713 67.2175 78.5703C67.4533 78.5716 67.6338 78.5722 67.7605 78.5729C67.8828 78.5748 67.9452 78.579 67.9452 78.579C67.9452 78.579 67.8831 78.5841 67.7608 78.5876C67.6341 78.5902 67.454 78.594 67.2181 78.5988C66.7352 78.6058 66.0293 78.6161 65.1157 78.6292C63.277 78.6497 60.6066 78.6794 57.2568 78.7166C55.58 78.7332 53.7333 78.7514 51.7365 78.7713C50.7378 78.7809 49.7016 78.7908 48.6303 78.8007C48.3624 78.8033 48.0924 78.8058 47.82 78.8084C47.5487 78.8177 47.2693 78.7966 47.0085 78.8382C46.7461 78.8794 46.4863 78.9786 46.2888 79.1556C46.086 79.3322 45.9788 79.5783 45.9532 79.8599C45.2805 84.3681 44.5311 89.393 43.7272 94.7799L43.717 94.8484H43.6479C41.5157 94.849 39.3029 94.85 37.0316 94.8506C35.8959 94.851 34.7452 94.8509 33.5826 94.8513H33.1461C32.9922 94.8471 32.8773 94.8532 32.7618 94.9178C32.5356 95.0375 32.4229 95.3316 32.5173 95.5716C32.5605 95.6906 32.6476 95.7946 32.7596 95.8558C32.8757 95.9217 32.9916 95.9281 33.1474 95.9236C33.4421 95.9236 33.7375 95.9236 34.0338 95.9236C46.6383 95.931 58.181 95.938 66.9644 95.9431L66.9013 95.9975C67.7292 90.4148 68.4028 85.8737 68.87 82.7226C68.988 81.9367 69.093 81.2378 69.1842 80.6308C69.2207 80.3268 69.2988 80.0481 69.2684 79.795C69.2421 79.5415 69.1509 79.3204 69.029 79.1534C68.7842 78.8119 68.4687 78.6807 68.2664 78.6273C68.0575 78.5777 67.9445 78.5873 67.9452 78.579Z" fill="#263238"/>
<path d="M56.7489 88.3903C57.4623 88.3903 58.0407 87.8119 58.0407 87.0985C58.0407 86.385 57.4623 85.8066 56.7489 85.8066C56.0354 85.8066 55.457 86.385 55.457 87.0985C55.457 87.8119 56.0354 88.3903 56.7489 88.3903Z" fill="white"/>
<path d="M44.4776 95.8664C44.5067 95.8712 45.1636 92.0417 45.9441 87.3144C46.7252 82.5854 47.3345 78.7493 47.3054 78.7441C47.2763 78.7393 46.6196 82.5678 45.8385 87.2968C45.058 92.0245 44.4484 95.8616 44.4776 95.8664Z" fill="#263238"/>
</svg>
