<svg width="160" height="160" viewBox="0 0 160 160" fill="none" xmlns="http://www.w3.org/2000/svg">
<path d="M33.3744 119.604L26.977 119.7C24.8285 119.732 22.6634 119.748 20.5005 119.752L20.3536 119.752L20.353 119.604L20.3405 116.024L20.3398 115.863L20.5002 115.864L26.937 115.886L30.1555 115.916L33.3741 115.954L33.4445 115.955L33.4432 116.024L33.3744 119.604ZM33.3744 119.604L33.3053 116.024L33.3744 116.093L30.1558 116.131L26.9373 116.161L20.5005 116.184L20.6602 116.024L20.6477 119.605L20.5005 119.458C22.6288 119.461 24.7552 119.477 26.8979 119.509L33.3744 119.604Z" fill="#EBEBEB"/>
<path d="M26.1942 120.539H13.3203V124.12H26.1942V120.539Z" fill="#EBEBEB"/>
<path d="M95.7099 133.439H82.8359V137.02H95.7099V133.439Z" fill="#EBEBEB"/>
<path d="M146.683 90.3926H133.809V93.9734H146.683V90.3926Z" fill="#EBEBEB"/>
<path d="M111.558 17.6649L105.161 17.7606C103.012 17.7926 100.847 17.8086 98.6841 17.8121L98.5372 17.8125L98.5366 17.6649L98.5241 14.0841L98.5234 13.9238L98.6838 13.9245L105.121 13.9469L108.339 13.9766L111.558 14.0153L111.628 14.0163L111.627 14.0845L111.558 17.6649ZM111.558 17.6649L111.489 14.0841L111.558 14.1533L108.339 14.192L105.121 14.2217L98.6841 14.2441L98.8438 14.0845L98.8313 17.6653L98.6841 17.5181C100.812 17.5219 102.939 17.5376 105.082 17.5696L111.558 17.6649Z" fill="#EBEBEB"/>
<path d="M118.741 18.5977H105.867V22.1785H118.741V18.5977Z" fill="#EBEBEB"/>
<path d="M26.1944 17.6649L19.797 17.7606C17.6485 17.7926 15.4837 17.8086 13.3205 17.8121L13.1736 17.8125L13.1733 17.6649L13.1608 14.0841L13.1602 13.9238L13.3205 13.9245L19.7573 13.9469L22.9758 13.9766L26.1944 14.0153L26.2648 14.0163L26.2635 14.0841L26.1944 17.6649ZM26.1944 17.6649L26.1253 14.0841L26.1944 14.1533L22.9758 14.192L19.7573 14.2217L13.3205 14.2441L13.4802 14.0845L13.4677 17.6649L13.3205 17.5177C15.4488 17.5216 17.5752 17.5373 19.7179 17.5693L26.1944 17.6649Z" fill="#EBEBEB"/>
<path d="M84.3349 66.2617H71.4609V69.8425H84.3349V66.2617Z" fill="#EBEBEB"/>
<path d="M142.747 16.3086H121.117V42.5457H142.747V16.3086Z" fill="#EBEBEB"/>
<path d="M140.277 18.7031H123.59V40.1508H140.277V18.7031Z" fill="white"/>
<path d="M124.241 18.7031H123.59V40.1508H124.241V18.7031Z" fill="#C7C7C7"/>
<path d="M143.397 16.3086H142.746V42.5457H143.397V16.3086Z" fill="#C7C7C7"/>
<path d="M132.304 35.3848H136.238V23.6622H132.304V35.3848Z" fill="#EBEBEB"/>
<path d="M127.466 27.4023H137.957V21.659H127.466V27.4023Z" stroke="#EBEBEB" stroke-width="0.48" stroke-miterlimit="10"/>
<path d="M142.747 80.9668H121.117V107.204H142.747V80.9668Z" fill="#EBEBEB"/>
<path d="M140.277 83.3613H123.59V104.809H140.277V83.3613Z" fill="white"/>
<path d="M124.241 83.3613H123.59V104.809H124.241V83.3613Z" fill="#C7C7C7"/>
<path d="M143.397 80.9668H142.746V107.204H143.397V80.9668Z" fill="#C7C7C7"/>
<path d="M133.114 88.3203H129.18V100.043H133.114V88.3203Z" fill="#EBEBEB"/>
<path d="M137.956 86.3184H127.465V92.0617H137.956V86.3184Z" stroke="#EBEBEB" stroke-width="0.48" stroke-miterlimit="10"/>
<path d="M142.747 48.7559H121.117V74.993H142.747V48.7559Z" fill="#EBEBEB"/>
<path d="M140.277 51.1504H123.59V72.5981H140.277V51.1504Z" fill="white"/>
<path d="M124.241 51.1504H123.59V72.5981H124.241V51.1504Z" fill="#C7C7C7"/>
<path d="M143.397 48.7559H142.746V74.993H143.397V48.7559Z" fill="#C7C7C7"/>
<path d="M133.687 56.6934H130.316V65.2162H133.687V56.6934Z" fill="#EBEBEB"/>
<path d="M137.235 61.875H128.18V67.7502H137.235V61.875Z" stroke="#DBDBDB" stroke-width="0.48" stroke-miterlimit="10"/>
<path d="M24.8923 110.001C30.1887 115.186 31.0776 123.208 29.9615 130.234C29.9327 130.393 29.6859 130.35 29.6859 130.2C29.6859 128.6 29.7343 127.015 29.7295 125.435C29.7007 125.363 29.6763 125.295 29.6472 125.222C28.2651 124.217 26.9944 123.082 26.2066 121.526C25.3224 119.786 24.9743 117.824 24.2978 116.007C24.2351 115.833 24.4203 115.885 24.5419 115.974C27.7634 118.35 28.7906 120.907 29.7151 124.324C29.6715 122.55 29.5362 120.777 29.1544 119.004C28.4584 115.761 27.0811 112.548 24.7522 110.141C24.6651 110.049 24.8005 109.909 24.8923 110.001Z" fill="#263238"/>
<path d="M23.8992 110.605C22.9882 110.636 22.417 112.092 21.7069 112.517C21.3312 112.743 20.9655 112.729 20.7015 112.359C19.9978 111.377 20.9632 110.165 21.8711 109.488C21.2218 109.755 20.6832 110.224 19.9834 110.357C19.5594 110.435 19.2298 110.277 19.1309 109.846C18.8224 108.507 20.5018 107.912 21.6541 107.884C21.0954 107.495 19.4944 106.439 20.345 105.92C21.2071 105.399 23.0858 106.909 23.6986 107.406C24.5991 108.136 25.6733 109.229 25.714 110.372C25.7668 111.706 24.6007 110.885 23.8992 110.605Z" fill="#24B24B"/>
<path opacity="0.1" d="M23.8992 110.605C22.9882 110.636 22.417 112.092 21.7069 112.517C21.3312 112.743 20.9655 112.729 20.7015 112.359C19.9978 111.377 20.9632 110.165 21.8711 109.488C21.2218 109.755 20.6832 110.224 19.9834 110.357C19.5594 110.435 19.2298 110.277 19.1309 109.846C18.8224 108.507 20.5018 107.912 21.6541 107.884C21.0954 107.495 19.4944 106.439 20.345 105.92C21.2071 105.399 23.0858 106.909 23.6986 107.406C24.5991 108.136 25.6733 109.229 25.714 110.372C25.7668 111.706 24.6007 110.885 23.8992 110.605Z" fill="black"/>
<path d="M24.1611 110.829C22.9963 110.3 20.7583 111.062 20.5679 110.621C20.1823 109.724 21.9704 109.108 22.9359 108.989C22.0469 108.748 20.3435 108.364 20.3957 107.507C20.4597 106.46 23.0082 107.36 24.2984 108.349C25.9237 109.596 25.9131 110.798 25.6443 111.039C25.276 111.369 24.3535 110.917 24.1611 110.829Z" fill="#24B24B"/>
<path d="M36.9568 109.488C31.4672 114.468 30.2736 122.45 31.122 129.514C31.1447 129.674 31.3927 129.64 31.3984 129.491C31.4592 127.892 31.4714 126.307 31.536 124.728C31.5677 124.656 31.5946 124.59 31.6263 124.518C33.0455 123.567 34.3588 122.48 35.2052 120.955C36.1549 119.251 36.5773 117.303 37.3223 115.513C37.3917 115.342 37.2045 115.386 37.0797 115.471C33.77 117.722 32.6468 120.239 31.593 123.618C31.7037 121.847 31.9066 120.08 32.3556 118.322C33.1741 115.109 34.6727 111.95 37.0919 109.634C37.1821 109.545 37.0522 109.4 36.9568 109.488Z" fill="#263238"/>
<path d="M37.928 110.13C38.8371 110.195 39.3526 111.672 40.0461 112.124C40.4128 112.364 40.7789 112.364 41.0569 112.004C41.7974 111.05 40.879 109.802 39.9974 109.091C40.6361 109.382 41.1561 109.871 41.8505 110.031C42.2713 110.124 42.6064 109.98 42.7216 109.553C43.0806 108.227 41.4253 107.568 40.2749 107.496C40.8477 107.129 42.488 106.135 41.6579 105.584C40.8163 105.03 38.8816 106.467 38.2502 106.941C37.3225 107.637 36.2077 108.687 36.1235 109.828C36.0198 111.159 37.2166 110.383 37.928 110.13Z" fill="#24B24B"/>
<path opacity="0.1" d="M37.928 110.13C38.8371 110.195 39.3526 111.672 40.0461 112.124C40.4128 112.364 40.7789 112.364 41.0569 112.004C41.7974 111.05 40.879 109.802 39.9974 109.091C40.6361 109.382 41.1561 109.871 41.8505 110.031C42.2713 110.124 42.6064 109.98 42.7216 109.553C43.0806 108.227 41.4253 107.568 40.2749 107.496C40.8477 107.129 42.488 106.135 41.6579 105.584C40.8163 105.03 38.8816 106.467 38.2502 106.941C37.3225 107.637 36.2077 108.687 36.1235 109.828C36.0198 111.159 37.2166 110.383 37.928 110.13Z" fill="black"/>
<path d="M37.6562 110.344C38.8405 109.859 41.0478 110.706 41.2546 110.272C41.6741 109.39 39.9106 108.707 38.9506 108.551C39.8482 108.344 41.565 108.026 41.5451 107.167C41.5211 106.118 38.94 106.921 37.6133 107.86C35.9419 109.044 35.9067 110.246 36.1662 110.497C36.5214 110.841 37.4606 110.424 37.6562 110.344Z" fill="#24B24B"/>
<path d="M31.3441 122.639C30.9387 125.264 30.4363 127.977 29.6395 130.513C29.5633 130.744 29.2206 130.685 29.2558 130.435C29.6164 128.009 30.2737 125.627 30.6344 123.201C31.0008 120.746 31.1966 118.257 31.0561 115.773C30.8248 111.684 29.7144 107.335 27.0465 104.136C26.988 104.06 27.1124 103.953 27.1726 104.023C32.5144 110.251 31.6644 117.888 31.6596 118.572C32.4158 115.994 33.195 113.038 36.0558 110.413C36.179 110.299 36.2753 110.353 36.2548 110.546C35.7432 115.329 34.4136 117.825 31.6408 120.382C31.5624 121.14 31.4648 121.894 31.3441 122.639Z" fill="#263238"/>
<path d="M26.9982 104.852C26.0373 104.426 24.7118 105.649 23.7611 105.733C23.2574 105.778 22.885 105.58 22.7973 105.063C22.5614 103.689 24.173 102.918 25.4562 102.672C24.6482 102.622 23.8533 102.838 23.0603 102.624C22.5813 102.491 22.3186 102.162 22.4328 101.665C22.787 100.12 24.8293 100.347 26.0389 100.899C25.6549 100.214 24.525 98.3129 25.669 98.2025C26.8254 98.0956 28.0152 100.607 28.4008 101.432C28.9675 102.643 29.5323 104.317 28.9989 105.523C28.3819 106.934 27.5851 105.495 26.9982 104.852Z" fill="#24B24B"/>
<path opacity="0.1" d="M26.9982 104.852C26.0373 104.426 24.7118 105.649 23.7611 105.733C23.2574 105.778 22.885 105.58 22.7973 105.063C22.5614 103.689 24.173 102.918 25.4562 102.672C24.6482 102.622 23.8533 102.838 23.0603 102.624C22.5813 102.491 22.3186 102.162 22.4328 101.665C22.787 100.12 24.8293 100.347 26.0389 100.899C25.6549 100.214 24.525 98.3129 25.669 98.2025C26.8254 98.0956 28.0152 100.607 28.4008 101.432C28.9675 102.643 29.5323 104.317 28.9989 105.523C28.3819 106.934 27.5851 105.495 26.9982 104.852Z" fill="black"/>
<path d="M27.1587 105.218C26.2166 104.082 23.511 103.746 23.5353 103.193C23.5868 102.068 25.7523 102.329 26.8137 102.691C26.0124 101.994 24.4384 100.738 24.9241 99.8751C25.5174 98.821 27.7088 101.038 28.5494 102.714C29.6083 104.825 28.9923 106.067 28.592 106.182C28.0435 106.339 27.3142 105.406 27.1587 105.218Z" fill="#24B24B"/>
<path d="M34.8552 124.079L37.211 142.08H22.875C23.1704 140.485 25.8385 124.059 25.8385 124.059L34.8552 124.079Z" fill="#24B24B"/>
<path d="M58.8875 68.1334C58.5633 67.0704 58.1125 66.0317 57.4677 65.1213C56.8161 64.2009 56.0497 63.3901 55.1992 62.6512C51.7973 59.6915 47.1096 58.5437 42.6773 58.8483C40.6661 58.9885 38.6529 59.4477 36.8216 60.3062C35.9147 60.7312 35.0955 61.2678 34.3461 61.9315C33.6577 62.5411 32.8814 63.2928 32.564 64.1728C32.5121 64.3171 32.6888 64.4339 32.8056 64.3392C33.2113 64.015 33.556 63.6173 33.9416 63.2656C34.3297 62.9113 34.7473 62.5881 35.1851 62.295C36.0277 61.7309 36.9643 61.2544 37.9048 60.8749C41.7089 59.3395 46.2347 59.3763 50.0721 60.7667C51.9317 61.4416 53.659 62.471 55.1432 63.776C55.844 64.3923 56.499 65.0832 57.0747 65.8153C57.6773 66.583 58.2785 67.3286 58.7797 68.1699C58.8097 68.223 58.9077 68.2022 58.8875 68.1334Z" fill="#263238"/>
<path d="M56.0721 62.0684C55.658 61.4665 55.235 60.8956 54.6426 60.4524C54.0618 60.0147 53.4244 59.6412 52.7822 59.3014C50.4135 58.0435 47.7777 57.1753 45.1041 56.9094C43.8263 56.7811 42.4686 56.8147 41.2148 57.0985C40.6074 57.2368 40.0129 57.4048 39.4257 57.6092C38.8436 57.8092 38.2414 58.0278 37.7438 58.3923C37.6782 58.439 37.7348 58.5462 37.8081 58.5315C38.4929 58.3907 39.1482 58.1366 39.8372 58.0057C40.5015 57.8828 41.1681 57.8473 41.841 57.7852C49.7006 57.0566 55.3898 61.9145 55.9454 62.208C56.0391 62.2576 56.1342 62.1616 56.0721 62.0684Z" fill="#263238"/>
<path d="M28.8694 86.9677C30.471 87.9994 32.3642 87.2436 33.6192 86.0317C34.9254 84.7725 35.8154 83.1213 36.5002 81.4605C37.1235 79.9412 37.5888 78.3594 38.0845 76.7936C38.5776 75.2304 39.0291 73.5946 39.8502 72.1616C40.6285 70.8013 41.8387 69.7802 43.3552 69.3428C44.9798 68.8752 46.7021 69.0903 48.2294 69.7818C49.025 70.1428 49.7786 70.6365 50.3843 71.2688C50.967 71.8759 51.3686 72.6074 51.6806 73.3844C52.3546 75.0743 52.6957 76.8727 53.104 78.6365C53.441 80.0964 54.1366 81.4106 55.5056 82.1316C56.6704 82.7463 58.1018 82.9319 59.2861 82.2695C59.3635 82.2256 59.3274 82.1002 59.2346 82.1165C57.7536 82.3604 56.1501 82.017 55.04 80.9636C54.4198 80.376 54.0896 79.6247 53.8714 78.8119C53.6141 77.8471 53.423 76.8621 53.161 75.8973C52.7261 74.2938 52.2925 72.5456 51.2448 71.2154C50.2333 69.9284 48.6714 69.0007 47.1072 68.5655C45.5408 68.1277 43.8854 68.1706 42.3664 68.7722C40.8227 69.3844 39.6765 70.5469 38.9094 72.0048C37.3965 74.8855 36.911 78.1693 35.7453 81.184C35.1779 82.6535 34.4426 84.1034 33.385 85.2832C32.3194 86.472 30.6074 87.3572 29.0131 86.6931C28.8486 86.6234 28.7229 86.872 28.8694 86.9677Z" fill="#263238"/>
<path d="M28.5214 81.9246C29.2574 82.0234 29.9326 81.4689 30.2753 80.8631C30.7578 80.0145 31.0788 79.0353 31.3393 78.0964C31.8906 76.1185 32.4318 74.1473 33.2513 72.2551C34.5428 69.2746 36.5268 66.4001 39.3953 64.7495C42.2689 63.0967 45.7601 62.7319 48.8846 63.8775C50.3489 64.4132 51.7178 65.2522 52.8452 66.3335C54.0324 67.4714 54.939 68.8586 55.6244 70.3486C56.3377 71.9006 56.7854 73.5313 57.2545 75.1658C57.443 75.8222 57.7079 76.618 58.3441 76.9745C58.8305 77.2471 59.4919 77.2161 59.85 76.7562C59.8839 76.7146 59.826 76.6702 59.7882 76.697C59.419 76.9774 58.9524 76.8558 58.6052 76.6007C58.2369 76.3303 58.0788 75.8958 57.9738 75.4641C57.7601 74.5793 57.5876 73.6897 57.3422 72.81C56.8449 71.034 56.1447 69.3038 55.129 67.7578C53.4078 65.1438 50.6423 63.2801 47.5911 62.6122C44.354 61.9047 40.8714 62.5719 38.131 64.4308C35.3678 66.305 33.4942 69.1959 32.2564 72.2449C31.5834 73.9086 31.1054 75.6298 30.6458 77.362C30.4132 78.235 30.1972 79.1162 29.8673 79.9572C29.7198 80.3303 29.5511 80.69 29.3543 81.0385C29.179 81.3521 28.9249 81.6052 28.547 81.6215C28.355 81.6295 28.3223 81.8983 28.5214 81.9246Z" fill="#263238"/>
<path d="M29.4152 88.3507C29.4059 88.425 29.453 88.4906 29.5269 88.5072C29.8178 88.5725 30.0789 88.6122 30.3195 88.6263C30.4447 88.6336 30.5631 88.6333 30.677 88.6279C32.0875 88.5562 33.5528 87.7556 35.0331 86.2506C36.2642 84.9991 37.2856 83.5319 38.0709 81.8893C38.7298 80.5072 39.1023 79.024 39.4594 77.5927C39.5634 77.1808 39.6674 76.7664 39.7762 76.3549C40.1263 75.0442 40.7589 73.1651 42.1899 71.9642C43.1557 71.1536 44.3749 70.8461 45.7122 71.0746C47.5256 71.3843 49.3938 72.6903 50.3631 74.3251C51.1698 75.6871 51.4514 77.2259 51.1765 78.7754C50.8354 80.7123 49.7259 82.2371 48.8543 83.1741C47.7787 84.3309 46.3797 85.3143 44.5797 86.1747C43.901 86.4995 43.004 86.9181 42.0802 87.2599C41.9048 87.3245 41.7272 87.3888 41.5519 87.4535C40.8827 87.6992 40.1912 87.9511 39.5266 88.2403C39.4347 88.2807 39.3925 88.3824 39.4229 88.4807C39.4559 88.5792 39.549 88.6355 39.6469 88.6147C40.1093 88.5162 40.5688 88.3885 40.9941 88.264C44.0811 87.3754 47.9275 85.9418 50.2709 82.7066C51.0466 81.6384 51.9807 79.9319 52.037 77.8621C52.0824 76.2701 51.5909 74.7261 50.6159 73.3907C49.3973 71.7219 47.4623 70.5207 45.5621 70.2544C44.141 70.0525 42.8191 70.3879 41.7477 71.2237C40.5653 72.1424 39.6939 73.6035 39.0879 75.6919C38.924 76.2621 38.7762 76.8429 38.6319 77.4048C38.2901 78.7354 37.9387 80.1114 37.349 81.3885C36.5816 83.0563 35.4898 84.6112 34.197 85.8858C33.1247 86.9437 31.4536 88.201 29.5762 88.2016C29.4939 88.2007 29.4248 88.2666 29.4152 88.3507Z" fill="#263238"/>
<path d="M28.812 83.7635C29.628 83.9782 30.4536 83.7056 31.0978 83.1875C31.8002 82.6272 32.1618 81.6963 32.4495 80.8726C33.1186 78.9453 33.636 76.9677 34.3004 75.04C35.3352 72.0298 36.8469 68.9654 39.5708 67.1469C41.9749 65.5437 45.149 65.025 47.9285 65.8362C49.4751 66.287 50.9074 67.1155 52.0127 68.2899C53.0655 69.4102 53.8268 70.7597 54.4156 72.1693C54.7141 72.8851 54.9708 73.6154 55.198 74.3562C55.4325 75.1312 55.6252 75.9254 55.9384 76.6758C56.4632 77.9389 57.7855 79.4522 59.308 78.8288C59.4245 78.7802 59.3845 78.599 59.2642 78.5894C58.4127 78.5248 57.6194 78.0458 57.1311 77.3523C56.5912 76.5907 56.3807 75.6483 56.1356 74.7638C55.6789 73.1229 55.0933 71.4912 54.2405 70.0131C53.484 68.7024 52.5151 67.5146 51.2946 66.6141C49.9999 65.6608 48.4703 65.0464 46.8892 64.777C43.9944 64.2854 40.8962 65.0333 38.5458 66.7891C35.91 68.7555 34.4114 71.8422 33.382 74.8842C32.8031 76.5923 32.3548 78.337 31.8258 80.0598C31.4223 81.3722 30.7071 83.5894 28.9176 83.2883C28.6444 83.2438 28.5477 83.6947 28.812 83.7635Z" fill="#263238"/>
<path d="M28.6667 85.0196C28.875 85.2567 29.1368 85.4506 29.4184 85.593C30.0049 85.8884 30.8661 85.7917 31.4552 85.5533C32.1902 85.2557 32.7669 84.6567 33.1992 84.0032C33.6689 83.289 34.0129 82.4951 34.3393 81.7072C34.7057 80.8202 35.0251 79.9088 35.3393 78.9994C35.9688 77.1735 36.5531 75.3306 37.244 73.5252C37.8574 71.9277 38.6238 70.4 39.908 69.2336C42.2462 67.1072 45.6174 66.4864 48.5387 67.7143C50.0101 68.3325 51.2734 69.3636 52.1419 70.7024C53.0901 72.1645 53.5381 73.8701 53.9621 75.538C54.3384 77.0244 54.643 78.625 55.5918 79.872C56.3835 80.9117 58.0677 81.7332 59.1777 80.6509C59.2267 80.6007 59.1765 80.5108 59.1067 80.5453C58.3128 80.9408 57.3813 80.6711 56.7195 80.1341C56.0805 79.6205 55.6859 78.8941 55.3941 78.1424C54.7377 76.4439 54.4782 74.6141 53.8789 72.8922C53.3473 71.37 52.5637 69.9466 51.3749 68.8378C50.2638 67.801 48.9237 67.0093 47.4536 66.6138C44.4801 65.8154 41.1301 66.6983 38.9499 68.8874C37.7301 70.1108 36.9649 71.658 36.3493 73.2551C35.6763 75.0036 35.1329 76.8029 34.5237 78.577C34.2117 79.4864 33.8805 80.3901 33.5307 81.2877C33.2325 82.0458 32.9493 82.8314 32.5217 83.5287C32.1179 84.1936 31.6005 84.7309 30.8747 85.0314C30.2382 85.296 29.4017 85.2612 28.8657 84.802C28.7345 84.6903 28.5579 84.8973 28.6667 85.0196Z" fill="#263238"/>
<path d="M59.5693 75.7826C59.5866 75.3657 59.5965 74.9506 59.5629 74.5356C59.2954 71.159 57.6983 67.8319 55.3927 65.3743C53.1873 63.0217 50.2967 61.3922 47.1009 60.8876C44.0007 60.3983 40.7495 60.9151 37.9306 62.2956C35.0845 63.6866 32.7965 65.9417 31.2663 68.7052C29.7418 71.4546 28.9818 74.5535 29.2535 77.6985C29.2593 77.7641 29.3613 77.7532 29.3649 77.693C29.602 74.3628 30.6314 70.99 32.5431 68.2319C34.2353 65.7945 36.5639 63.8364 39.3236 62.7231C42.026 61.6354 45.1015 61.3161 47.9463 61.9983C50.9271 62.7126 53.5549 64.4521 55.4817 66.8201C56.5069 68.079 57.3268 69.502 57.9319 71.0066C58.5514 72.551 58.9412 74.1782 59.3175 75.7951C59.3505 75.9292 59.5607 75.927 59.5693 75.7826Z" fill="#263238"/>
<path d="M54.6826 87.3273C55.0362 86.807 55.7914 87.2646 56.1802 87.4835C56.7677 87.814 57.3965 88.2422 58.1066 88.1312C58.161 88.1225 58.1811 88.1935 58.1357 88.2201C57.6775 88.4851 57.1408 88.4176 56.6647 88.2371C56.4115 88.1411 56.1744 88.0147 55.9335 87.8928C55.7101 87.7798 55.4685 87.6419 55.2215 87.592C55.1767 87.583 55.1277 87.5747 55.0823 87.5798C55.0339 87.5852 55.049 87.584 55.0426 87.5958C54.9975 87.68 55.0688 87.854 55.0915 87.9376C55.1511 88.1539 55.2368 88.3631 55.3402 88.5622C55.5539 88.9737 55.8499 89.3382 56.1741 89.6678C56.361 89.8579 56.5584 90.039 56.7667 90.2057C56.9779 90.3747 57.2269 90.5046 57.4288 90.6816C57.4909 90.736 57.4435 90.8268 57.3629 90.8073C57.1223 90.7488 56.8842 90.5955 56.6711 90.472C56.4416 90.3392 56.2199 90.1932 56.0157 90.0239C55.6099 89.6876 55.2685 89.287 55.008 88.8284C54.8784 88.6006 54.7744 88.3606 54.6938 88.111C54.6131 87.8627 54.5216 87.5644 54.6826 87.3273Z" fill="#263238"/>
<path d="M55.7584 88.3313C56.1443 88.4986 56.4934 88.7415 56.8186 89.0049C56.9619 89.1211 57.1094 89.2356 57.2608 89.3412C57.3341 89.3924 57.4115 89.4379 57.4886 89.4833C57.5664 89.5291 57.6509 89.5537 57.7322 89.5915C57.8 89.6228 57.7946 89.7179 57.72 89.7364C57.3392 89.8315 56.9389 89.5812 56.6522 89.363C56.2973 89.0926 55.9565 88.7889 55.6915 88.4273C55.6586 88.3822 55.6989 88.3057 55.7584 88.3313Z" fill="#263238"/>
<path d="M30.7426 89.494C30.7422 89.5011 30.7416 89.511 30.7435 89.5183C30.7499 89.5718 30.7886 89.6153 30.8411 89.6255C30.9362 89.6505 31.0322 89.6633 31.1285 89.6691C31.4536 89.6883 31.7909 89.6211 32.1314 89.542C32.5624 89.4419 33.0066 89.2867 33.4536 89.0787C34.1912 88.7404 34.9362 88.2358 35.7333 87.5385C38.0539 85.51 39.6856 82.6198 40.5858 78.9443C40.6437 78.7011 40.7016 78.4556 40.7595 78.2102C41.067 76.8847 41.3845 75.5142 42.1362 74.3599C42.5426 73.7388 43.0725 73.231 43.6722 72.8966C44.3394 72.5225 44.9874 72.4739 45.7669 72.4473C45.8491 72.4451 45.9176 72.391 45.9342 72.3145C45.9509 72.2358 45.9118 72.1609 45.8366 72.1228C45.0078 71.7142 43.9778 72.0979 43.573 72.2819C42.8978 72.59 42.2661 73.0966 41.7422 73.7446C40.7854 74.9327 40.4254 76.4553 40.0779 77.9257L39.9909 78.295C39.5266 80.2297 38.9851 81.7561 38.2894 83.1046C37.5208 84.5887 36.4517 85.9635 35.1998 87.0764C34.5038 87.695 33.8434 88.1612 33.1758 88.5014C32.8222 88.6812 32.4408 88.8399 32.0117 88.9839C31.8786 89.0294 31.741 89.0671 31.6011 89.1049C31.3384 89.1763 31.0635 89.2495 30.8168 89.3779C30.7746 89.3993 30.7451 89.4457 30.7426 89.494Z" fill="#263238"/>
<path d="M38.7698 87.6915C38.7669 87.7399 38.7906 87.7895 38.835 87.816C38.8558 87.8295 38.8773 87.8378 38.899 87.8391C38.9448 87.8419 38.9896 87.8202 39.0187 87.7786C39.245 87.4269 39.6731 87.2083 40.0882 87.0151C40.4635 86.8391 40.8565 86.6858 41.2373 86.5389L41.413 86.4695C42.459 86.0599 43.3093 85.6944 44.0901 85.3197C47.5512 83.6605 49.6181 81.5082 50.2338 78.9277C50.5774 77.4787 50.4098 76.0602 49.748 74.8253C49.0642 73.5504 47.995 72.6685 46.741 72.3434C46.6626 72.3219 46.5778 72.3651 46.5467 72.4407C46.516 72.5114 46.5429 72.5879 46.6082 72.6279C47.8942 73.3994 48.8994 74.5482 49.3656 75.7789C50.0683 77.6323 49.7278 80.6666 46.4594 83.1226C45.2155 84.057 43.78 84.7216 42.5323 85.2714C41.8402 85.576 41.059 85.9194 40.3106 86.3175C40.0162 86.4743 39.7042 86.6467 39.4277 86.8647C39.1362 87.0989 38.9534 87.3706 38.7909 87.6269C38.7771 87.6487 38.771 87.6701 38.7698 87.6915Z" fill="#263238"/>
<path d="M29.7198 90.1427C30.219 90.4451 30.7499 90.5802 31.2702 90.6109C32.4693 90.6813 33.6094 90.1952 34.1576 89.9133C35.3784 89.2867 36.5698 88.3831 37.6936 87.2266C37.7912 87.1261 37.8869 87.0205 37.98 86.9149L38.0677 86.8211C38.0901 86.8103 38.1102 86.7946 38.1282 86.7763C38.9394 85.9686 40.0456 85.5216 41.1125 85.0867C41.4862 84.9373 41.8722 84.7811 42.235 84.6115C44.0235 83.7818 45.2414 82.9568 46.1813 81.9322C47.1829 80.841 47.7765 79.5856 47.8955 78.3024C48.0062 77.12 47.7288 75.4682 46.5851 74.7002C45.451 73.9376 43.9982 74.4778 43.149 75.4042C42.1624 76.4819 41.6597 78.0058 41.2542 79.231L41.1128 79.6624C40.7154 80.8714 40.3061 82.1181 39.7 83.264C39.0613 84.4707 38.269 85.5744 37.3467 86.5494C36.3886 87.5562 35.3358 88.4051 34.2168 89.0714C32.7019 89.9754 31.2235 90.2531 29.8309 89.9005C29.8213 89.8976 29.8117 89.897 29.8046 89.8967C29.7467 89.8931 29.6917 89.9286 29.6667 89.9827C29.6411 90.0438 29.6638 90.1104 29.7198 90.1427ZM39.4142 85.1267C39.644 84.7946 39.8462 84.4803 40.0261 84.1722C40.6302 83.1421 41.1285 81.985 41.6382 80.4253C41.7061 80.2166 41.7717 80.0077 41.8395 79.7968C42.2075 78.632 42.5902 77.4272 43.2638 76.4083C43.6802 75.7827 44.1339 75.3795 44.6507 75.1779C44.893 75.0835 45.1864 75.0259 45.4802 75.0432C45.8005 75.0621 46.1227 75.168 46.3886 75.4157C47.3627 76.3114 47.4088 77.9523 47.02 79.1834C46.669 80.303 45.8811 81.3731 44.7458 82.2752C43.5595 83.2179 42.1547 83.848 40.9189 84.4035L40.8024 84.4547C40.3381 84.664 39.8616 84.8774 39.4142 85.1267Z" fill="#263238"/>
<path d="M41.4994 82.9893C41.484 83.044 41.5045 83.1055 41.5531 83.1448C41.5784 83.1656 41.6069 83.1769 41.6357 83.1788C41.6741 83.181 41.7138 83.1666 41.7445 83.1343C41.8139 83.061 42.3333 82.693 42.5826 82.5215C42.6629 82.468 42.7435 82.4149 42.8242 82.3592C42.9951 82.246 43.1711 82.1308 43.3381 82.0028C43.8616 81.6034 44.3311 81.1842 44.7378 80.7586C45.5775 79.8776 45.9698 78.997 45.8997 78.1378C45.861 77.6476 45.6271 77.2687 45.2735 77.1199C44.7547 76.9032 44.2488 77.2069 43.9733 77.5314C43.6616 77.8997 43.4712 78.3839 43.3013 78.8088C43.1538 79.182 43.0223 79.5679 42.8917 79.9397L42.7871 80.2405C42.4987 81.0741 41.6168 82.7183 41.5295 82.8463C41.4936 82.878 41.4837 82.9256 41.4994 82.9893ZM43.1349 80.7756C43.4482 80.0088 43.7701 79.2181 44.1979 78.4773L44.2168 78.4447C44.3272 78.253 44.5855 77.8044 44.8351 77.7538C44.8546 77.7503 44.8741 77.749 44.8907 77.75C44.9387 77.7528 44.9861 77.7724 45.0322 77.8092C45.2517 77.9791 45.22 78.4338 45.1163 78.8024C44.8802 79.6536 44.1656 80.3436 43.5915 80.8972C43.4431 81.0405 43.2943 81.1842 43.1461 81.3253C42.9925 81.4709 42.8415 81.6168 42.6904 81.7624C42.8703 81.4101 43.0187 81.0636 43.1349 80.7756Z" fill="#263238"/>
<path d="M43.5002 97.4247C42.9601 98.5139 42.4583 99.6493 42.0337 100.789C42.0196 100.824 42.0711 100.852 42.0922 100.819C42.7172 99.8893 43.2346 98.8999 43.8221 97.9488C44.2042 97.3287 44.9002 95.8883 45.8362 96.1197C46.2292 96.2154 46.5127 96.6525 46.729 96.9623C47.0253 97.3856 47.3169 97.8112 47.6567 98.1984C48.1687 98.7795 49.129 99.5415 49.97 99.3347C50.0068 99.3248 50.0295 99.2656 49.9895 99.2464C49.7671 99.1271 49.5297 99.0551 49.3101 98.9239C49.0717 98.784 48.8445 98.6259 48.6458 98.4304C48.2506 98.0423 47.9178 97.5783 47.6167 97.1133C47.1361 96.3699 46.5751 95.392 45.5338 95.512C44.5581 95.624 43.898 96.6218 43.5002 97.4247Z" fill="#263238"/>
<path d="M29.6735 90.9717C30.6873 92.3048 32.5036 92.0709 33.8163 91.358C34.5849 90.9416 35.27 90.3877 35.9449 89.8402C36.6652 89.2591 37.3913 88.7074 38.2006 88.2575C38.238 88.238 38.222 88.1791 38.1782 88.1861C36.5561 88.4434 35.3855 89.7759 34.0646 90.6287C32.8236 91.4303 31.0223 91.9068 29.743 90.8988C29.6947 90.8594 29.6422 90.9288 29.6735 90.9717Z" fill="#263238"/>
<path d="M56.0934 93.4993C56.1945 93.5029 56.2377 93.3461 56.1331 93.3205C54.4925 92.9121 53.1993 91.6837 52.4083 90.2235C51.6934 88.9032 51.272 87.3998 51.1936 85.9019C51.1549 85.1627 51.2061 84.4142 51.3577 83.6885C51.4406 83.3067 51.5523 82.9291 51.6873 82.5627C51.8137 82.2222 51.9565 81.8513 52.2249 81.5989C52.496 81.3441 52.9053 81.2449 53.1776 81.5486C53.3773 81.7681 53.4854 82.067 53.6496 82.3134C54.0224 82.8741 54.5309 83.3512 55.1152 83.6875C55.6995 84.0238 56.3501 84.2193 57.0227 84.2417C57.7677 84.2686 58.4198 84.0702 59.0665 83.7121C59.1091 83.6881 59.0896 83.6072 59.0381 83.6235C57.3238 84.1365 55.3421 83.6091 54.2323 82.1835C53.8413 81.6821 53.6288 80.9035 52.8854 80.8478C52.1277 80.7886 51.6214 81.3848 51.3267 82.003C50.6349 83.4533 50.5126 85.1614 50.7318 86.7329C51.1241 89.5393 52.8185 93.348 56.0934 93.4993Z" fill="#263238"/>
<path d="M44.2497 99.735C44.1751 100.016 44.0756 100.355 44.114 100.645C44.1185 100.691 44.1764 100.695 44.2023 100.665C44.3668 100.457 44.4468 100.162 44.539 99.9117C44.6398 99.6374 44.7402 99.3629 44.8554 99.0918C44.9703 98.823 45.1114 98.5584 45.2663 98.3113C45.3223 98.2227 45.3841 98.0742 45.4698 98.0141C45.4823 98.0077 45.4874 98.0032 45.4926 97.9984C45.5108 98.0141 45.5294 98.0294 45.545 98.0499C45.593 98.0963 45.6359 98.1472 45.6788 98.1981C46.0382 98.6179 46.3191 99.1008 46.7268 99.48C47.0452 99.7766 47.5553 100.101 48.0132 100C48.0426 99.9949 48.0574 99.9497 48.0292 99.9337C47.7697 99.7833 47.538 99.656 47.3236 99.4429C47.1204 99.2425 46.9527 99.0102 46.7876 98.7782C46.6065 98.5283 46.4433 98.2627 46.2449 98.0214C46.0647 97.7981 45.8254 97.4723 45.5089 97.4707C45.2094 97.4701 45.0426 97.7549 44.9159 97.9817C44.7646 98.2557 44.6391 98.5382 44.5326 98.8313C44.4254 99.1293 44.3303 99.4281 44.2497 99.735Z" fill="#263238"/>
<path d="M56.8561 91.7739C56.9178 91.7944 56.9514 91.7166 56.9054 91.6776C56.5153 91.3284 56.1454 91.002 55.8167 90.5889C55.4974 90.1835 55.2161 89.7515 54.9396 89.3172C54.4394 88.5364 53.9054 87.7582 53.5697 86.8904C53.4145 86.4897 53.2375 86.0081 53.2775 85.5707C53.3354 84.9169 53.9786 85.3969 54.257 85.6379C54.586 85.9208 54.8814 86.2401 55.2494 86.4743C55.6033 86.7006 55.9854 86.8609 56.393 86.9524C56.7889 87.0411 57.1927 87.0744 57.5966 87.0305C58.0295 86.9809 58.3399 86.7988 58.7271 86.6235C58.8065 86.587 58.7476 86.4798 58.6689 86.5041C58.3806 86.6008 58.0161 86.5915 57.714 86.5953C57.4481 86.5966 57.1806 86.5857 56.9194 86.546C56.3806 86.4635 55.8449 86.2484 55.4017 85.9348C54.8567 85.5476 53.858 84.2468 53.0961 84.8763C52.4385 85.4174 52.9466 86.675 53.2129 87.2872C53.6241 88.227 54.2033 89.0971 54.8023 89.9249C55.321 90.6398 55.9866 91.4811 56.8561 91.7739Z" fill="#263238"/>
<path d="M31.7159 94.2224C32.4141 94.3891 33.1325 94.2115 33.7537 93.8784C33.8836 93.8086 34.0065 93.7289 34.1319 93.6492C34.0669 93.7251 34.002 93.8012 33.9421 93.8774C33.5255 94.4304 33.1988 95.0563 33.1479 95.7564C33.1453 95.7996 33.202 95.8224 33.226 95.7852C33.5869 95.2361 33.9527 94.6851 34.3645 94.1731C34.7815 93.654 35.2497 93.1766 35.6573 92.6496C35.7306 92.5523 35.633 92.4041 35.5133 92.4284C34.8327 92.5792 34.3258 93.0617 33.7245 93.3888C33.0932 93.7308 32.4097 93.9734 31.7194 94.1648C31.6945 94.1728 31.6823 94.2153 31.7159 94.2224Z" fill="#263238"/>
<path d="M39.1423 97.2164C38.798 97.8967 38.4351 98.5978 38.1804 99.315C38.1519 99.3905 38.262 99.4478 38.3119 99.3809C38.8553 98.6468 39.2947 97.8343 39.7983 97.0737C40.286 96.339 40.807 95.6206 41.3574 94.9281C42.2367 93.8199 43.2723 92.8154 44.4918 92.0462C44.8003 91.8516 45.1273 91.6753 45.4623 91.5233C45.8076 91.3649 46.1871 91.1937 46.5798 91.2145C47.2902 91.2538 47.7503 91.9332 48.0671 92.4618C48.831 93.7293 49.4854 95.0919 50.6675 96.0676C51.1907 96.4996 51.7955 96.8129 52.4787 96.945C52.7129 96.9902 53.1366 97.0586 53.3548 96.9217C53.4403 96.8663 53.4956 96.785 53.4083 96.7098C53.3782 96.6865 53.335 96.7249 53.3526 96.755C53.3919 96.825 52.9395 96.7114 52.9206 96.7054C52.8303 96.6782 52.7375 96.6558 52.6473 96.6289C52.4527 96.569 52.2639 96.4929 52.0857 96.3978C51.7455 96.2231 51.4227 96.0062 51.1299 95.7642C50.471 95.218 49.9862 94.5057 49.5622 93.7873C49.1929 93.1639 48.8662 92.514 48.4572 91.9101C48.1171 91.4093 47.6847 90.9127 47.071 90.7098C46.3433 90.4714 45.6028 90.7345 44.9452 91.0318C44.3049 91.3204 43.7036 91.681 43.1478 92.098C42.0076 92.9562 41.0233 94.0388 40.2652 95.2193C39.8505 95.8615 39.487 96.5361 39.1423 97.2164Z" fill="#263238"/>
<path d="M40.9768 98.6459C40.7739 99.18 40.5695 99.7358 40.5042 100.312C40.4994 100.353 40.5586 100.375 40.58 100.338C40.9074 99.7822 41.1253 99.162 41.4575 98.6065C41.7845 98.0603 42.0882 97.4983 42.4312 96.9652C43.0402 96.0225 43.7211 95.0839 44.5026 94.2865C44.8703 93.9118 45.3045 93.5918 45.8418 93.6596C46.3429 93.723 46.7919 94.0609 47.1275 94.4359C47.8507 95.2468 48.1842 96.3537 48.9298 97.1515C49.6117 97.8801 50.5967 98.2644 51.5714 98.1284C51.6056 98.1233 51.6139 98.0609 51.5759 98.0513C50.9541 97.8987 50.3637 97.6273 49.8533 97.2251C49.3362 96.8155 48.9791 96.2747 48.6527 95.6999C48.1035 94.7278 47.5672 93.6983 46.5298 93.2167C46.0709 93.0062 45.5471 92.9585 45.0706 93.1284C44.5547 93.3108 44.1525 93.7051 43.7832 94.106C42.9704 94.9838 42.2776 95.9601 41.7003 97.0206C41.4136 97.5454 41.1887 98.083 40.9768 98.6459Z" fill="#263238"/>
<path d="M36.3441 98.1036C36.3291 98.1558 36.3547 98.213 36.4065 98.2354C36.4206 98.2412 36.4324 98.2441 36.4472 98.245C36.4833 98.2473 36.5182 98.23 36.5393 98.1974C36.9828 97.5154 37.5054 96.7273 38.1121 95.9823C38.6436 95.3273 39.2628 94.6582 40.004 93.9311C41.0577 92.901 42.25 91.7314 43.5435 90.7737C44.2433 90.2566 44.8964 89.8722 45.5412 89.5938C46.218 89.3001 47.1454 88.9004 47.7764 89.4694C48.162 89.8134 48.4056 90.3158 48.6427 90.8034C48.7332 90.99 48.8216 91.1692 48.9156 91.3391C49.3809 92.1759 49.8142 92.8223 50.2817 93.3791C50.8347 94.0425 51.4366 94.5708 52.0692 94.951C52.7713 95.3766 53.4564 95.6002 54.2267 95.6553C54.2795 95.6633 54.33 95.6226 54.3406 95.5679C54.3534 95.5154 54.3249 95.4655 54.2731 95.4454C52.1448 94.7017 50.7787 93.0726 50.0104 91.8383C49.794 91.4898 49.6007 91.1183 49.4167 90.7596C49.2347 90.4057 49.0459 90.0396 48.8296 89.6934C48.364 88.941 47.7707 88.5558 47.0712 88.534C46.234 88.5138 45.3646 88.8758 44.7009 89.1919C44.0097 89.5209 43.3198 89.9538 42.6513 90.4777C41.2452 91.5814 39.994 92.8898 39.0619 93.9078C37.9243 95.1474 36.8097 96.5122 36.3441 98.1036Z" fill="#263238"/>
<path d="M56.3217 92.8268C56.425 92.8787 56.4897 92.7206 56.409 92.6579C55.3677 91.8332 54.3837 90.8595 53.6775 89.7231C53.0682 88.7449 52.6634 87.6604 52.4497 86.5292C52.3389 85.9452 52.2791 85.3619 52.2778 84.7699C52.2765 84.3372 52.1668 83.246 52.8001 83.2444C53.3921 83.2431 53.7825 84.0006 54.1524 84.3654C54.577 84.7865 55.0609 85.1436 55.6122 85.3839C56.7617 85.8863 57.9901 85.7462 58.9604 84.9455C58.9933 84.9183 58.9578 84.8633 58.9207 84.8828C57.5117 85.6675 55.6653 85.0562 54.577 84.0063C54.1357 83.5817 53.7754 82.9708 53.1498 82.8012C52.5956 82.6527 52.0404 82.8883 51.8858 83.4614C51.7319 84.0249 51.7469 84.6735 51.778 85.255C51.8074 85.8633 51.8951 86.47 52.0513 87.0591C52.6673 89.3932 54.1181 91.7139 56.3217 92.8268Z" fill="#263238"/>
<path d="M35.4433 95.83C35.1947 96.2793 34.9908 96.7458 34.8769 97.2441C34.8507 97.3634 34.9156 97.4879 35.0289 97.5381C35.0548 97.5468 35.0788 97.5532 35.1028 97.5545C35.1799 97.5589 35.2519 97.5221 35.2999 97.4476C35.4887 97.1567 35.6679 96.8604 35.8471 96.5663C36.235 95.9269 36.6388 95.2645 37.1259 94.6674C37.7614 93.8882 38.5076 93.1106 39.4043 92.2885C40.1499 91.6076 42.3351 89.9481 44.5707 88.4585C47.121 86.7554 48.8871 85.854 49.2916 86.0421C49.5646 86.1695 49.5787 86.6268 49.5908 86.9948C49.5934 87.1157 49.5962 87.2293 49.6078 87.3218C49.6718 87.838 49.7665 88.3628 49.8881 88.8799C50.1518 89.9826 50.5111 90.8978 50.9873 91.6748C51.4919 92.502 52.1403 93.1874 52.8593 93.6575C53.2759 93.9285 54.3537 94.5404 55.346 94.35C55.4097 94.3369 55.4561 94.2863 55.4622 94.2239C55.4686 94.1589 55.4308 94.0988 55.3719 94.0761C55.209 94.0108 55.0481 93.9532 54.8871 93.8953C54.5393 93.7685 54.2129 93.6501 53.8875 93.4764C53.4331 93.2348 52.9927 92.9116 52.609 92.5385C51.8753 91.8261 51.3022 90.8911 50.9047 89.7609C50.5447 88.7321 50.3911 87.6501 50.265 86.6303C50.2129 86.2044 50.1006 85.7314 49.6791 85.4578C49.2999 85.2108 48.6519 85.3804 48.3297 85.5186C46.4929 86.3045 40.5931 90.0748 38.2417 92.2585C37.5745 92.8789 36.9313 93.6287 36.2731 94.5493C35.9825 94.958 35.6916 95.3855 35.4433 95.83Z" fill="#263238"/>
<path d="M30.7708 92.817C32.0054 93.3536 33.4643 92.8304 34.5875 92.2611C35.6732 91.7114 36.6336 90.9536 37.6886 90.3536C37.9587 90.2003 38.2329 90.057 38.5136 89.9261C38.655 89.8621 38.799 89.8003 38.942 89.7459C39.0137 89.7187 39.1014 89.6634 39.1798 89.6874C39.2608 89.6679 39.2716 89.688 39.2099 89.7495C39.1891 89.7773 39.1705 89.8026 39.1494 89.8304C38.7843 90.2848 38.2118 90.6112 37.7718 90.9866C36.8787 91.7507 36.0582 92.5939 35.3417 93.5232C34.6643 94.4016 33.9548 95.4131 33.7468 96.5245C33.7363 96.5795 33.8124 96.5984 33.8416 96.5591C34.2723 95.9706 34.6339 95.3299 35.0624 94.7389C35.4832 94.1597 35.9523 93.6192 36.4556 93.1127C36.9075 92.6586 37.3756 92.2195 37.855 91.7936C38.319 91.3811 38.8342 91.0032 39.2617 90.5523C39.5577 90.2413 40.0915 89.5888 39.5065 89.2643C39.0361 89.0071 38.3411 89.4445 37.9251 89.6522C36.7475 90.2426 35.6883 91.0381 34.5369 91.6733C33.9427 92.0007 33.3273 92.2714 32.6716 92.4551C32.0428 92.6307 31.4278 92.6935 30.7779 92.7303C30.7299 92.7325 30.7331 92.8003 30.7708 92.817Z" fill="#263238"/>
<path d="M45.4663 99.057C45.4708 99.0451 45.475 99.0336 45.4807 99.0221C45.5047 98.9744 45.5505 98.959 45.5975 98.9856C45.6065 98.9907 45.6148 98.9965 45.6231 99.0022C45.7332 99.0426 45.8068 99.2077 45.8487 99.3024C45.9009 99.4218 45.9543 99.5405 46.0094 99.6586C46.1159 99.888 46.21 100.125 46.3204 100.352C46.3419 100.396 46.2881 100.442 46.2481 100.413C46.0193 100.251 45.8289 100.067 45.6788 99.8285C45.6087 99.7171 45.5508 99.6022 45.5022 99.48C45.4727 99.4064 45.4459 99.3229 45.4401 99.2432C45.4356 99.1802 45.4331 99.1107 45.4663 99.057Z" fill="#263238"/>
<path d="M19.9219 64.5383V53.7988H30.6614" stroke="#24B24B" stroke-width="1.44" stroke-miterlimit="10"/>
<path d="M68.2838 91.4219V102.161H57.5469" stroke="#24B24B" stroke-width="1.44" stroke-miterlimit="10"/>
<path d="M19.9219 91.4219V102.161H30.6614" stroke="#24B24B" stroke-width="1.44" stroke-miterlimit="10"/>
<path d="M57.5469 53.7988H68.2838V64.5383" stroke="#24B24B" stroke-width="1.44" stroke-miterlimit="10"/>
<path d="M71.1166 104.354V104.994H70.4766" stroke="#24B24B" stroke-width="0.36" stroke-miterlimit="10"/>
<path d="M69.1884 104.994H18.3711" stroke="#24B24B" stroke-width="0.36" stroke-miterlimit="10" stroke-dasharray="1.93 1.93"/>
<path d="M17.7298 104.994H17.0898V104.354" stroke="#24B24B" stroke-width="0.36" stroke-miterlimit="10"/>
<path d="M17.0898 103.067V52.25" stroke="#24B24B" stroke-width="0.36" stroke-miterlimit="10" stroke-dasharray="1.93 1.93"/>
<path d="M17.0898 51.6068V50.9668H17.7298" stroke="#24B24B" stroke-width="0.36" stroke-miterlimit="10"/>
<path d="M19.0156 50.9668H69.8329" stroke="#24B24B" stroke-width="0.36" stroke-miterlimit="10" stroke-dasharray="1.93 1.93"/>
<path d="M70.4766 50.9668H71.1166V51.6068" stroke="#24B24B" stroke-width="0.36" stroke-miterlimit="10"/>
<path d="M71.1172 52.8926V103.71" stroke="#24B24B" stroke-width="0.36" stroke-miterlimit="10" stroke-dasharray="1.93 1.93"/>
<path d="M86.8359 142.066H116.382C116.625 141.115 116.862 140.179 117.097 139.258C117.367 138.198 117.633 137.165 117.887 136.158C117.944 135.933 118.004 135.708 118.06 135.487C118.254 134.716 118.445 133.964 118.632 133.233C118.745 132.788 118.857 132.35 118.966 131.915C119.082 131.473 119.19 131.039 119.299 130.616C119.329 130.504 119.355 130.391 119.385 130.283C119.415 130.159 119.445 130.039 119.475 129.92C119.512 129.77 119.55 129.628 119.587 129.482V129.478C119.628 129.324 119.666 129.174 119.703 129.025C119.778 128.74 119.849 128.459 119.917 128.186C120.022 127.782 120.122 127.385 120.22 126.999C120.261 126.831 120.306 126.662 120.347 126.497C120.418 126.228 120.486 125.966 120.55 125.707C120.594 125.535 120.636 125.366 120.677 125.202C120.853 124.524 121.014 123.887 121.164 123.292C121.205 123.135 121.242 122.982 121.284 122.832C121.347 122.574 121.411 122.326 121.471 122.087C121.512 121.937 121.55 121.791 121.583 121.649C121.714 121.14 121.834 120.675 121.935 120.267C121.965 120.158 121.991 120.054 122.018 119.952C122.085 119.683 122.149 119.443 122.201 119.23C122.223 119.144 122.242 119.061 122.265 118.987C122.287 118.901 122.306 118.822 122.325 118.751C122.336 118.698 122.351 118.646 122.362 118.601C122.381 118.526 122.399 118.459 122.415 118.399C122.422 118.365 122.43 118.335 122.437 118.309C122.482 118.133 122.504 118.043 122.504 118.043H93.7444C93.7444 118.043 92.7972 121.308 91.2807 126.573C90.9735 127.643 90.6404 128.8 90.2849 130.029C89.2772 133.536 88.1015 137.633 86.8359 142.066Z" fill="#37474F"/>
<path d="M111.543 142.066H112.281C113.374 137.539 114.441 133.005 115.459 128.462C115.706 127.358 115.95 126.253 116.193 125.145C116.216 125.04 116.238 124.939 116.261 124.834C116.272 124.778 116.19 124.756 116.175 124.812C116.163 124.845 116.156 124.879 116.145 124.913C115.811 126.1 115.478 127.291 115.152 128.481C113.906 132.997 112.711 137.528 111.543 142.066Z" fill="#263238"/>
<path d="M94.6758 118.043L95.9452 124.397L96.9862 129.609L98.7574 138.491L98.9407 139.401L99.2441 140.918L99.4726 142.067H116.386C116.625 141.112 116.865 140.176 117.097 139.259C117.366 138.199 117.632 137.166 117.887 136.158C117.943 135.934 118.003 135.709 118.059 135.488C118.254 134.717 118.445 133.965 118.632 133.234C118.744 132.789 118.857 132.351 118.965 131.916C119.081 131.474 119.19 131.04 119.298 130.617C119.328 130.505 119.355 130.392 119.384 130.284C119.414 130.16 119.444 130.04 119.474 129.921C119.512 129.771 119.549 129.629 119.587 129.483V129.479C119.628 129.325 119.665 129.175 119.703 129.026C119.778 128.741 119.849 128.46 119.916 128.187C120.021 127.782 120.122 127.386 120.219 127C120.264 126.828 120.306 126.663 120.347 126.498C120.418 126.229 120.485 125.967 120.549 125.708C120.594 125.536 120.635 125.367 120.676 125.203C120.852 124.525 121.013 123.888 121.163 123.293C121.204 123.136 121.242 122.982 121.283 122.833C121.347 122.574 121.411 122.327 121.47 122.088C121.512 121.938 121.549 121.792 121.583 121.65C121.714 121.141 121.834 120.676 121.935 120.268C121.965 120.159 121.991 120.054 122.017 119.953C122.085 119.684 122.148 119.444 122.201 119.231C122.223 119.145 122.242 119.062 122.264 118.988C122.287 118.902 122.306 118.823 122.324 118.752C122.335 118.699 122.35 118.647 122.362 118.602C122.38 118.527 122.399 118.46 122.414 118.4C122.421 118.366 122.429 118.336 122.436 118.31C122.481 118.134 122.504 118.044 122.504 118.044H94.6758V118.043Z" fill="#263238"/>
<path d="M94.6758 118.031C94.6758 118.031 94.6758 118.035 94.6758 118.042C94.687 118.2 94.7955 119.915 95.0726 122.532C95.1513 123.296 95.2447 124.135 95.3535 125.033C95.5219 126.452 95.7318 128.017 95.99 129.673C96.4319 132.559 97.0086 135.708 97.7574 138.786C98.0233 139.895 98.3155 140.992 98.6262 142.066L135.751 142.079C135.313 136.422 134.912 131.305 134.594 127.272C134.148 121.596 133.864 118.042 133.864 118.042L100.187 118.031H94.6758Z" fill="#37474F"/>
<path d="M94.7539 121.442C94.7952 122.772 94.8512 124.097 94.9373 125.419C95.0272 126.853 95.1581 128.283 95.3453 129.714C95.3491 129.766 95.3565 129.819 95.3642 129.871C95.5402 131.211 95.7385 132.548 95.967 133.881C96.1805 135.124 96.3376 136.465 96.888 137.614C97.0941 138.049 97.3897 138.464 97.7568 138.786C98.0976 139.086 98.4944 139.311 98.9437 139.401C99.0147 139.419 99.0896 139.43 99.1645 139.438C99.1833 139.442 99.2057 139.438 99.2281 139.442C99.2019 139.461 99.1833 139.483 99.1869 139.521C99.2019 139.966 99.1907 140.419 99.2393 140.861C99.2432 140.88 99.2432 140.898 99.2467 140.917C99.2915 141.303 99.3629 141.685 99.4339 142.067H100.07C100.067 142.059 100.067 142.052 100.063 142.044C99.9507 141.625 99.8573 141.202 99.7523 140.779C99.64 140.348 99.4976 139.925 99.3968 139.487C99.3929 139.468 99.3779 139.457 99.3667 139.446C100.175 139.457 100.992 139.026 101.284 138.244C101.497 137.674 101.4 137.083 101.314 136.499C101.198 135.739 101.085 134.978 100.969 134.218C100.752 132.822 100.471 131.44 100.224 130.051C100.187 129.842 100.149 129.628 100.112 129.418C99.6141 126.592 99.0934 123.765 98.4681 120.964C98.4457 120.848 98.4195 120.732 98.3933 120.616C98.3782 120.537 98.2509 120.56 98.2585 120.634C98.2774 120.822 98.296 121.013 98.3184 121.2C98.4269 122.274 98.5542 123.346 98.704 124.412C98.8838 125.667 99.0073 126.929 99.1833 128.183C99.2432 128.61 99.3033 129.037 99.3667 129.464C99.655 131.527 99.9545 133.59 100.307 135.645C100.471 136.6 101.067 138.311 99.6925 138.607C99.3517 138.682 99.0371 138.626 98.76 138.491C98.1498 138.187 97.704 137.491 97.4832 136.877C97.0937 135.784 96.9552 134.578 96.7529 133.44C96.5283 132.182 96.3299 130.923 96.1539 129.662V129.658C95.9293 128.082 95.6973 126.509 95.4499 124.936C95.3264 124.135 95.199 123.334 95.0717 122.532C95.0118 122.162 94.952 121.791 94.8918 121.42C94.8777 121.341 94.7539 121.364 94.7539 121.442Z" fill="#263238"/>
<path d="M127.606 131.312C126.06 131.306 124.521 131.081 123.026 130.696C122.336 130.518 121.654 130.298 120.977 130.076C120.327 129.863 119.653 129.601 119.129 129.149C118.088 128.251 117.603 126.836 117.151 125.581C116.64 124.163 116.271 122.72 115.951 121.249C115.935 121.177 115.829 121.201 115.827 121.269C115.777 122.918 116.013 124.597 116.45 126.187C116.823 127.544 117.326 129.059 118.423 130.011C119.577 131.012 121.143 131.363 122.62 131.546C124.287 131.752 125.949 131.703 127.61 131.477C127.712 131.463 127.714 131.312 127.606 131.312Z" fill="#263238"/>
<path d="M130.18 121.293C130.262 123.371 130.348 125.453 130.442 127.531C130.655 132.376 130.891 137.221 131.142 142.066H131.838C131.52 137.21 131.187 132.357 130.831 127.508C130.677 125.434 130.52 123.363 130.359 121.289C130.348 121.173 130.176 121.18 130.18 121.293Z" fill="#263238"/>
<path d="M98.7961 75.2524C84.1708 88.4348 70.6134 102.868 69.552 110.237C68.0822 120.438 74.3571 123.268 77.168 123.295C84.8217 123.37 98.7312 92.35 103.569 80.5061C108.266 69.006 102.008 72.3577 98.7961 75.2524Z" fill="#FFBF9D"/>
<path d="M76.7227 96.3457L92.9844 105.186C92.9844 105.186 103.096 86.5101 105.425 77.8529C107.755 69.1956 104.275 69.4465 96.6225 76.1793C88.97 82.9117 76.7227 96.3457 76.7227 96.3457Z" fill="#C7C7C7"/>
<path d="M76.7227 96.3457L92.9844 105.186C92.9844 105.186 103.096 86.5101 105.425 77.8529C107.755 69.1956 104.275 69.4465 96.6225 76.1793C88.97 82.9117 76.7227 96.3457 76.7227 96.3457Z" fill="#24B24B"/>
<path opacity="0.1" d="M105.423 77.8505C103.094 86.5103 92.9835 105.189 92.9835 105.189L78.1758 97.1356L105.445 71.5059C106.355 72.2025 106.393 74.2604 105.423 77.8505Z" fill="black"/>
<path d="M80.0676 93.8523C86.338 98.0936 92.4148 100.852 93.6327 101.553C93.6903 101.586 93.737 101.489 93.6772 101.459C92.4468 100.834 85.7729 96.6792 80.1169 93.7493C80.0513 93.7154 80.0074 93.8114 80.0676 93.8523Z" fill="#263238"/>
<path d="M89.3187 129.572L136.939 129.71C136.939 129.71 132.785 93.8795 115.301 72.7147C111.254 67.8155 104.738 70.4782 101.992 73.0782C95.0166 79.6823 89.1843 129.4 89.3187 129.572Z" fill="#24B24B"/>
<path d="M105.7 70.7656C106.844 71.6008 107.937 72.5208 109.04 73.3749C110.106 74.2037 111.171 75.0293 112.236 75.8549C113.21 76.6082 114.164 77.4527 115.249 78.0482C116.229 78.5871 117.372 78.8267 118.425 78.3445C118.683 78.228 118.923 78.0735 119.144 77.8971C119.181 77.9538 119.219 78.0107 119.254 78.0674C118.718 78.4991 118.075 78.7858 117.36 78.8299C116.307 78.8898 115.324 78.4107 114.47 77.8341C113.402 77.1125 112.406 76.2741 111.385 75.4863C109.403 73.9515 107.449 72.3538 105.413 70.8853C105.507 70.8443 105.602 70.8034 105.7 70.7656ZM124.693 99.2725C126.391 99.2946 128.074 99.3861 129.716 99.7199C129.678 99.6063 129.637 99.493 129.593 99.3794C128.15 99.0959 126.672 98.9951 125.181 98.9666C120.87 98.8879 115.103 99.1557 112.497 94.933C111.47 93.2658 111.139 91.0568 112.267 89.3519C113.263 87.8456 115.122 87.1963 116.865 87.212C117.772 87.2184 118.677 87.3947 119.518 87.7384C120.53 88.1544 121.418 88.8319 122.247 89.5346C123.798 90.8549 125.241 92.3992 127.179 93.1333C127.129 93.0104 127.078 92.8875 127.025 92.7615C126.435 92.5093 125.881 92.1848 125.395 91.8319C123.593 90.5272 122.137 88.7247 120.133 87.7067C118.623 86.9378 116.814 86.7173 115.17 87.1141C113.562 87.5016 112.147 88.5416 111.555 90.1237C110.896 91.8917 111.41 93.9147 112.462 95.421C115.163 99.2853 120.492 99.2191 124.693 99.2725ZM117.385 82.8069C118.642 82.2367 119.931 81.6472 121.271 81.269C121.211 81.1746 121.154 81.0767 121.094 80.9823C118.021 81.8427 115.182 83.7871 112.015 84.3288C108.214 84.9813 104.2 84.0863 100.947 82.0472C100.046 81.4831 99.2015 80.8309 98.4358 80.0933C98.398 80.1941 98.3631 80.2981 98.3286 80.4053C99.0566 81.0955 99.8537 81.7131 100.701 82.2552C103.85 84.2626 107.694 85.2018 111.41 84.7448C113.524 84.4834 115.459 83.6767 117.385 82.8069ZM120.262 116.807C122.597 117.68 125.024 118.329 127.444 118.899C130.145 119.536 133.488 120.078 135.669 121.905C135.64 121.748 135.609 121.593 135.578 121.433C133.397 119.772 130.271 119.243 127.671 118.634C125.241 118.061 122.805 117.408 120.461 116.542C118.435 115.795 116.43 114.793 114.949 113.179C113.673 111.796 112.973 109.94 113.099 108.052C113.225 106.164 114.3 104.444 116.159 103.858C118.154 103.224 120.375 103.968 122.039 105.106C123.943 106.407 125.307 108.361 126.77 110.104C128.156 111.765 129.691 113.29 131.717 114.141C132.476 114.459 133.296 114.661 134.112 114.702C134.09 114.607 134.068 114.509 134.042 114.415C132.426 114.311 130.844 113.517 129.59 112.546C127.743 111.119 126.416 109.13 124.897 107.384C123.504 105.783 121.913 104.362 119.858 103.697C118.078 103.121 116.033 103.177 114.529 104.403C113.218 105.478 112.695 107.22 112.786 108.869C112.887 110.684 113.669 112.354 114.942 113.643C116.411 115.13 118.324 116.085 120.262 116.807ZM114.473 124.956C114.133 126.503 114.293 128.082 114.202 129.645H114.495C114.495 129.642 114.495 129.642 114.495 129.639C114.605 127.726 114.303 125.712 115.1 123.904C115.507 122.983 116.241 122.23 117.221 121.934C118.267 121.622 119.421 121.82 120.388 122.29C122.455 123.298 123.562 125.482 124.567 127.433C124.954 128.18 125.354 128.952 125.818 129.68H126.162C125.024 127.953 124.296 125.98 123.067 124.304C121.882 122.69 120.095 121.379 118 121.521C116.061 121.65 114.864 123.163 114.473 124.956ZM95.8076 129.592H96.1859C96.6175 128.851 96.9075 128.019 97.087 127.181C97.5471 125.056 97.4147 122.857 97.2604 120.708C96.9075 115.725 96.047 110.636 97.1375 105.685C97.582 103.675 98.3193 101.708 99.4665 99.9877C100.645 98.2261 102.353 96.5717 104.405 95.9003C105.501 95.541 106.718 95.5032 107.761 96.0578C108.65 96.5272 109.318 97.3311 109.74 98.2322C110.78 100.448 110.137 102.953 109.145 105.058C107.2 109.177 104.052 112.637 102.486 116.948C101.077 120.821 101.373 125.138 103.248 128.807C103.387 129.078 103.535 129.349 103.693 129.613L104.039 129.616C103.27 128.353 102.697 126.973 102.338 125.542C101.824 123.506 101.736 121.357 102.139 119.293C102.574 117.062 103.57 114.994 104.714 113.05C105.874 111.077 107.191 109.202 108.338 107.223C109.498 105.222 110.601 103.003 110.575 100.633C110.553 98.8024 109.702 96.8645 108.082 95.9064C106.17 94.7688 103.863 95.541 102.183 96.7384C98.8774 99.0987 97.198 103.057 96.5865 106.961C95.7862 112.054 96.7881 117.203 97.0278 122.302C97.1254 124.335 97.1193 126.44 96.407 128.378C96.2489 128.807 96.0473 129.216 95.8076 129.592ZM100.582 86.5823C99.5327 85.6683 98.2499 85.2431 96.9171 85.1611C96.895 85.2463 96.8729 85.3346 96.8476 85.4194C97.1628 85.4351 97.4809 85.4728 97.7993 85.5359C99.7657 85.9266 101.754 87.4581 101.779 89.6168C101.808 91.9679 99.8099 93.7167 97.878 94.6872C96.7436 95.2575 95.5587 95.6987 94.3958 96.1903C94.3769 96.2911 94.3548 96.3919 94.3359 96.4959C95.0703 96.1807 95.8201 95.9003 96.5609 95.5947C98.5619 94.7755 100.579 93.6789 101.575 91.6587C102.454 89.8847 102.079 87.8901 100.582 86.5823Z" fill="white"/>
<path d="M118.64 74.3106C132.508 84.9583 146.969 103.028 147.185 113.462C147.398 123.767 141.611 122.739 140.635 122.436C130.332 119.229 117.91 90.645 113.317 79.005C108.757 67.4501 115.211 71.6777 118.64 74.3106Z" fill="#FFBF9D"/>
<path d="M140.921 95.0794L124.82 104.209C124.82 104.209 114.377 85.7168 111.893 77.1024C109.409 68.488 112.892 68.6765 120.664 75.2717C128.436 81.8666 140.921 95.0794 140.921 95.0794Z" fill="#24B24B"/>
<path d="M137.53 92.6488C131.336 97.0018 125.309 99.868 124.105 100.591C124.048 100.625 123.999 100.529 124.058 100.498C125.277 99.8504 131.876 95.5774 137.479 92.5467C137.544 92.5115 137.59 92.6069 137.53 92.6488Z" fill="#263238"/>
<path d="M125.858 103.58C125.753 103.589 125.036 103.938 124.887 104.013C123.34 100.936 123.621 101.642 122.046 98.5789C121.274 97.0781 120.499 95.5783 119.729 94.0759C118.929 92.5136 118.212 90.8868 117.327 89.3709C117.301 89.3261 117.24 89.3588 117.257 89.4061C117.77 90.8864 118.464 92.3191 119.122 93.7453C118.976 93.5242 118.838 93.298 118.679 93.0845C118.324 92.6064 117.976 92.1287 117.66 91.624C117.611 91.5466 117.483 91.6096 117.532 91.6877C117.834 92.1696 118.1 92.665 118.364 93.1684C118.628 93.6724 118.921 94.153 119.22 94.6378C119.508 95.1047 119.827 95.5485 120.148 95.9933C120.187 96.0477 120.225 96.1028 120.264 96.1575C120.685 97.05 121.095 97.9482 121.537 98.832C123.084 101.926 124.68 104.359 124.734 104.345C124.948 104.289 125.814 103.73 125.901 103.667C125.946 103.634 125.902 103.576 125.858 103.58Z" fill="#263238"/>
<path d="M77.875 122.932C82.6475 122.234 85.3509 113.365 90.6504 99.2477C91.5803 96.7706 79.2549 82.5847 77.5819 84.8666C75.475 87.7409 69.8891 103.679 69.332 108.012C68.2341 116.552 72.3022 123.748 77.875 122.932Z" fill="#FFBF9D"/>
<path d="M85.2148 113.532C85.644 112.331 86.0996 111.14 86.5556 109.95L87.9428 106.388C88.4216 105.208 88.8824 104.02 89.3473 102.835C89.5841 102.244 89.8123 101.65 90.0328 101.053C90.2609 100.458 90.4804 99.8615 90.6488 99.2461C90.4219 100.506 89.986 101.714 89.578 102.921C89.1595 104.126 88.6958 105.315 88.2401 106.506C87.7608 107.687 87.2862 108.871 86.7825 110.042C86.2792 111.214 85.7659 112.381 85.2148 113.532Z" fill="#263238"/>
<path d="M73.1602 95.1016C73.8286 90.2562 75.197 83.4968 76.9288 82.0808C78.7464 80.5947 85.3458 75.6264 87.2517 74.9663C89.1576 74.3061 97.6546 71.0715 99.2155 71.9743C100.465 72.6971 98.9854 75.9842 94.9419 77.5599C91.3877 78.9445 89.5586 80.2357 88.5426 80.6751C87.5058 81.1234 85.0136 84.4789 85.6939 85.9643C86.0949 86.8395 88.6421 87.8664 90.2251 87.1499C91.8085 86.4335 92.1998 83.2987 94.0091 81.8194C95.8184 80.3403 99.0098 80.5199 99.1944 81.3816C99.379 82.2434 98.325 82.6463 96.6923 85.5755C95.6424 87.4594 95.5723 91.9797 93.1912 95.2207C91.9947 96.8495 89.9093 101.184 89.9093 101.184L73.1602 95.1016Z" fill="#FFBF9D"/>
<path d="M95.698 80.4851C96.2571 80.358 96.8651 80.1884 97.2801 79.7686C97.4558 79.591 97.5911 79.3699 97.6395 79.1222C97.6651 78.992 97.6686 78.8492 97.6513 78.7174C97.635 78.5955 97.6004 78.4083 97.4958 78.3312C97.4644 78.3078 97.5121 78.2691 97.5284 78.3014C97.5646 78.3728 97.6296 78.4281 97.674 78.4944C97.7121 78.5507 97.7409 78.6134 97.7652 78.6764C97.8142 78.8044 97.8356 78.9347 97.8331 79.0713C97.8273 79.3686 97.7073 79.6502 97.5179 79.8768C97.0679 80.415 96.3719 80.5568 95.7015 80.5328C95.6743 80.5315 95.6718 80.4912 95.698 80.4851Z" fill="#263238"/>
<path d="M76.9297 82.0824C78.4676 79.6638 82.4068 75.3016 86.3092 73.8017C88.947 72.788 98.0295 77.2033 97.7659 78.9393C97.5022 80.675 95.9518 80.6817 93.6551 80.41C92.8183 80.3112 88.3924 78.7252 87.6391 79.6539C86.5559 80.9889 85.1822 85.5492 85.1822 85.5492L76.9297 82.0824Z" fill="#FFBF9D"/>
<path d="M97.5417 78.2607C96.4189 76.4034 93.9523 75.414 91.4986 74.6325C91.4605 74.6204 91.439 74.6786 91.4768 74.6908C92.1017 74.8904 96.1008 76.7272 97.5145 78.2901C97.5305 78.3077 97.5529 78.2792 97.5417 78.2607Z" fill="#263238"/>
<path d="M76.9297 82.0811C78.4676 79.6625 82.4068 75.3003 86.3092 73.8004C88.947 72.7867 96.1342 78.4398 95.8702 80.1758C95.6065 81.9115 93.3783 82.051 90.915 81.1956C90.1188 80.9192 87.4487 79.042 86.6954 79.9707C85.6122 81.3057 82.9719 84.6196 82.9719 84.6196L76.9297 82.0811Z" fill="#FFBF9D"/>
<path d="M84.4929 82.5664C84.74 82.1849 84.8247 82.0509 85.0788 81.6733C85.3316 81.2976 85.5908 80.9248 85.8705 80.5686C86.1121 80.2608 86.3467 79.9203 86.684 79.7097C87.0072 79.5081 87.3992 79.4601 87.7732 79.4947C88.6273 79.5734 89.3992 80.1152 90.1236 80.5305C90.9326 80.9939 92.611 81.7456 93.8955 81.6089C94.2491 81.5712 94.5979 81.512 94.9096 81.3331C95.1121 81.2169 95.3848 81.0723 95.5166 80.848C96.0728 79.9021 95.3758 78.8237 94.6635 78.0601C93.3364 76.6374 91.5518 75.6057 89.8203 74.7584C89.395 74.5504 88.9646 74.3529 88.5345 74.1555C88.0443 73.9305 87.5342 73.7149 86.9761 73.711C86.0833 73.7053 84.6215 74.6131 84.1671 74.8877C84.1326 74.9085 84.1073 74.8525 84.1406 74.8317C84.6891 74.4889 86.0481 73.3747 87.4884 73.4467C88.0155 73.4729 88.5083 73.7433 88.9879 73.9501C89.49 74.1664 89.9857 74.3993 90.475 74.6435C91.4273 75.1184 92.355 75.6467 93.2219 76.2656C94.0411 76.8505 94.9143 77.5331 95.4692 78.3862C95.9499 79.1257 96.0942 80.1785 95.6276 80.9555C95.2343 81.6105 94.3944 81.7689 94.0094 81.8185C93.6251 81.8681 93.2574 81.8611 92.8724 81.8086C92.474 81.7542 91.0177 81.3328 90.403 81.0886C89.6219 80.7782 88.9182 80.2521 88.1134 80.0099C87.7291 79.8941 87.308 79.8889 86.9483 80.087C86.6148 80.2707 86.3371 80.6089 86.0782 80.8819C85.4923 81.4995 85.1044 81.9008 84.6247 82.608C84.5086 82.7795 84.3896 82.7261 84.4929 82.5664Z" fill="#263238"/>
<path d="M75.7852 84.1911C76.35 83.0407 77.301 78.299 78.2146 76.8446C79.1285 75.3902 83.3042 70.3588 85.2559 70.5751C87.7084 70.8471 85.1564 75.2676 83.8728 77.0887C82.5893 78.9098 82.8092 82.0023 82.8092 82.0023L75.7852 84.1911Z" fill="#FFBF9D"/>
<path d="M85.6615 74.0689C85.2058 74.6452 84.8016 75.2842 84.4055 75.9031C84.0301 76.4897 83.5955 77.0711 83.3104 77.7082C83.0243 78.3482 82.8983 79.034 82.8333 79.728C82.8013 80.0695 82.7907 80.409 82.7891 80.7521C82.7872 81.1258 82.8208 81.5025 82.8122 81.8756C82.8112 81.9153 82.8723 81.921 82.8739 81.881C82.9024 81.2065 83.0224 80.5124 83.1383 79.8477C83.2589 79.1556 83.4656 78.4647 83.7514 77.8231C84.3232 76.5383 85.1616 75.3924 85.7453 74.1133C85.7693 74.0618 85.6938 74.0282 85.6615 74.0689Z" fill="#263238"/>
<path d="M82.837 82.5215C82.8639 83.1007 83.0005 83.6616 83.1906 84.2031C83.3714 84.7474 83.5967 85.2767 83.8501 85.7909C84.1016 86.3061 84.3762 86.8098 84.6799 87.2933C84.9749 87.7823 85.3314 88.2249 85.6808 88.6908C86.3848 89.6098 87.0303 90.614 87.4188 91.7221C87.8252 92.8226 87.9938 93.9935 87.9986 95.1496C87.87 94.0002 87.6396 92.8632 87.1986 91.8076C86.7624 90.749 86.1346 89.7916 85.4284 88.8825C85.0776 88.4287 84.7186 87.9596 84.4178 87.4556C84.1157 86.9541 83.8482 86.4341 83.6159 85.8991C83.1736 84.8313 82.7621 83.6924 82.837 82.5215Z" fill="#263238"/>
<path d="M100.346 75.7491C100.415 76.5027 100.521 77.2518 100.667 77.9987C100.798 78.6675 100.934 79.3356 101.189 79.9801C101.646 81.1366 102.52 82.2064 103.867 82.5174C105.155 82.8147 106.477 82.4108 107.498 81.7388C108.614 81.0044 109.485 79.9603 110.283 78.9459C110.777 78.3184 111.246 77.672 111.679 77.0067C111.9 76.6694 112.122 76.3337 112.325 75.9868C112.528 75.6412 112.714 75.2857 112.939 74.952C112.957 74.9254 113.015 74.9449 112.998 74.9753C112.565 75.7625 111.259 78.2579 110.822 78.8771C110.028 80.0012 109.159 81.1513 108.002 81.983C106.91 82.7689 105.56 83.2409 104.126 83.0377C102.712 82.8371 101.646 81.8777 101.11 80.6812C100.781 79.9468 100.631 79.1491 100.533 78.3712C100.424 77.5001 100.365 76.6227 100.328 75.7494C100.328 75.7382 100.345 75.7385 100.346 75.7491Z" fill="#263238"/>
<path d="M104.953 80.3366C107.889 80.2557 111.512 74.7808 112.478 70.8672C112.543 70.5984 109.081 61.487 108.583 59.6106C108.482 59.225 97.5547 65.599 97.5547 65.599C97.5547 65.599 99.7579 69.2256 100.607 72.5027C100.674 72.7773 102.115 80.4131 104.953 80.3366Z" fill="#FFBF9D"/>
<path d="M97.5547 65.5975C97.5547 65.5975 99.7579 69.2244 100.607 72.5022C100.623 72.5674 100.716 73.0442 100.883 73.7335C106.348 71.73 109 67.3479 110.215 64.3799C109.472 62.315 108.783 60.3726 108.583 59.6126C108.48 59.2266 97.5547 65.5975 97.5547 65.5975Z" fill="#263238"/>
<path d="M91.2838 44.3657C90.5846 44.4863 88.2297 50.0719 88.5731 52.5186C88.9164 54.9653 90.5132 59.6991 91.2412 59.6764C91.9692 59.654 91.823 44.2725 91.2838 44.3657Z" fill="#263238"/>
<path d="M108.088 46.5347C110.502 50.3513 111.594 62.9856 109.362 66.4796C106.126 71.5449 99.1867 73.8428 94.4641 69.5859C89.8862 65.4595 88.7547 48.9689 91.4008 45.6246C95.2984 40.6992 104.523 40.8966 108.088 46.5347Z" fill="#FFBF9D"/>
<path d="M99.0138 54.5994C99.3937 54.6689 99.7556 54.6695 100.139 54.6996C100.571 54.7332 100.911 54.8046 101.305 54.5831C101.516 54.4644 101.607 54.1201 101.511 53.9044C101.286 53.4014 100.768 53.2289 100.249 53.1671C99.6865 53.1002 99.2359 53.1924 98.7588 53.4948C98.2961 53.7876 98.5127 54.5079 99.0138 54.5994Z" fill="#263238"/>
<path d="M99.5054 57.3585C99.5086 57.3256 99.5761 57.3921 99.5783 57.427C99.6388 58.2808 99.8516 59.2481 100.65 59.4516C100.675 59.458 100.677 59.5009 100.648 59.5C99.6951 59.4641 99.4257 58.1771 99.5054 57.3585Z" fill="#263238"/>
<path d="M100.173 56.3924C101.531 56.1482 101.919 58.882 100.661 59.1082C99.4231 59.3309 99.0346 56.5972 100.173 56.3924Z" fill="#263238"/>
<path d="M94.6155 57.9309C94.6043 57.8995 94.555 57.9805 94.5611 58.0147C94.7083 58.8576 94.7352 59.8477 94.0091 60.2378C93.9864 60.2499 93.995 60.2922 94.0228 60.2842C94.9387 60.0199 94.89 58.7056 94.6155 57.9309Z" fill="#263238"/>
<path d="M93.732 57.1539C92.3554 57.2441 92.6373 59.9907 93.9125 59.9072C95.1679 59.8249 94.8859 57.0784 93.732 57.1539Z" fill="#263238"/>
<path d="M92.4855 55.6974C92.8558 55.5815 93.178 55.4132 93.5319 55.2609C93.9316 55.0891 94.2676 54.9934 94.514 54.6123C94.6465 54.4078 94.5671 54.0593 94.3803 53.9118C93.9463 53.5691 93.4046 53.658 92.915 53.8452C92.3838 54.0484 92.0263 54.3409 91.7431 54.8331C91.4689 55.3102 91.9972 55.8497 92.4855 55.6974Z" fill="#263238"/>
<path d="M101.269 64.2852C101.095 64.5124 100.931 64.8141 100.627 64.8836C100.336 64.9501 99.972 64.8663 99.6869 64.8C99.6587 64.7936 99.6357 64.8256 99.6565 64.8487C99.9227 65.1424 100.414 65.28 100.797 65.1556C101.171 65.034 101.313 64.6759 101.356 64.312C101.362 64.2608 101.295 64.2522 101.269 64.2852Z" fill="#263238"/>
<path d="M100.016 61.8765C99.6469 62.6788 99.0069 63.1799 98.2741 63.433C97.9474 63.5485 97.5951 63.6103 97.2437 63.6279C97.1753 63.6362 97.1061 63.6381 97.0425 63.6333C96.9794 63.6346 96.9228 63.6353 96.8527 63.6311C96.7516 63.6308 96.6857 63.5568 96.6559 63.4656L96.6553 63.4593C96.6514 63.4282 96.6482 63.4033 96.6508 63.3716C96.6508 63.3716 96.6508 63.3716 96.6498 63.3652L96.6409 63.2906C96.5305 62.6413 96.4527 61.6407 96.4527 61.6407C96.2313 61.794 95.0943 62.513 95.0652 62.1693C94.8325 59.3255 94.5737 56.1629 94.9429 53.2842C94.9503 53.1885 95.0956 53.1898 95.1007 53.2839C95.4325 56.008 95.2828 58.7722 95.5724 61.5143C95.9391 61.3121 96.5324 60.9495 96.8745 60.9076C96.9708 60.921 96.9903 62.8442 97.0633 63.1319C97.0633 63.1319 97.0649 63.1444 97.0732 63.162C98.1884 63.1463 98.9673 62.698 99.926 61.8112C99.9826 61.7543 100.058 61.802 100.016 61.8765Z" fill="#263238"/>
<path d="M109.571 57.3797C107.37 57.8757 105.942 55.5455 104.713 52.1797C103.995 50.2139 103.991 46.1064 103.991 46.1064C103.991 46.1064 98.6539 49.5371 95.3854 49.6853C92.1166 49.8335 88.9866 47.4223 88.795 44.8683C88.6305 42.6773 91.9166 39.3618 96.7121 38.5106C100.054 37.9173 106.097 39.8555 109.087 43.1349C109.087 43.1349 113.592 44.5909 113.39 47.8719C113.188 51.1528 112.072 56.8162 109.571 57.3797Z" fill="#263238"/>
<path d="M109.38 57.145C106.529 58.161 104.386 53.9488 104.004 51.6564C103.608 49.274 104.203 46.7303 104.306 44.3408C104.306 44.3296 104.288 44.3252 104.286 44.3373C103.672 47.3012 103.078 51.0295 104.44 53.864C105.298 55.6484 107.079 58.5492 109.438 57.3005C109.518 57.258 109.471 57.1124 109.38 57.145Z" fill="#263238"/>
<path d="M113.904 46.8167C113.226 44.9027 110.722 43.2615 108.778 43.0528C108.76 43.0509 108.755 43.0797 108.773 43.0835C111.134 43.6042 114.091 45.8538 113.729 48.472C113.44 50.5645 112.825 53.352 111.664 55.1376C111.634 55.1834 111.702 55.2243 111.734 55.1824C112.673 53.9575 112.958 52.4826 113.338 51.0122C113.669 49.7322 114.373 48.1424 113.904 46.8167Z" fill="#263238"/>
<path d="M109.556 43.3717C106.394 39.917 100.081 36.3583 95.3429 38.1817C95.3291 38.1871 95.3378 38.2101 95.3518 38.206C100.441 36.717 105.72 40.5074 109.403 43.5554C109.511 43.6441 109.645 43.4697 109.556 43.3717Z" fill="#263238"/>
<path d="M108.172 57.7043C108.172 57.7043 109.882 53.0867 111.91 53.5958C113.938 54.1046 113.365 60.2992 111.486 61.6179C109.607 62.9366 108.352 61.224 108.352 61.224L108.172 57.7043Z" fill="#FFBF9D"/>
<path d="M111.703 55.3672C111.735 55.3553 111.754 55.4005 111.728 55.42C110.423 56.3925 110.009 57.9454 109.838 59.4875C110.131 58.8344 110.644 58.3841 111.503 58.7105C111.548 58.7278 111.527 58.7969 111.484 58.7989C110.853 58.8273 110.449 59.044 110.17 59.628C109.973 60.0414 109.889 60.5208 109.787 60.9653C109.753 61.1134 109.498 61.1054 109.509 60.9422C109.51 60.9304 109.511 60.9176 109.512 60.9054C108.988 59.0568 109.754 56.0773 111.703 55.3672Z" fill="#263238"/>
<path d="M102.302 78.1905L109.017 98.2254C109.281 98.8081 109.018 99.3182 108.428 99.3633L97.8864 100.172C97.2979 100.217 96.6048 99.7803 96.3408 99.1975L89.6263 79.1627C89.3616 78.5787 89.6256 78.0699 90.2144 78.0247L100.756 77.2161C101.345 77.171 102.038 77.6068 102.302 78.1905Z" fill="#37474F"/>
<path d="M101.052 78.2764L107.767 98.3113C108.031 98.894 107.768 99.4041 107.178 99.4496L96.6364 100.258C96.0479 100.303 95.3548 99.8665 95.0908 99.2838L88.3762 79.2489C88.1116 78.6649 88.3759 78.1558 88.9644 78.1107L99.5061 77.302C100.095 77.2569 100.788 77.6924 101.052 78.2764Z" fill="#455A64"/>
<path d="M98.2349 79.4322C98.2838 79.9259 98.7235 80.2866 99.2173 80.2376C99.711 80.1886 100.072 79.749 100.023 79.2552C99.9737 78.7614 99.5341 78.4008 99.0403 78.4498C98.5469 78.4984 98.1862 78.9384 98.2349 79.4322Z" fill="#263238"/>
<path d="M142.827 122.544C138.227 123.229 132.446 119.713 117.435 109.009C115.357 107.528 121.867 90.0571 124.166 91.525C127.062 93.3736 137.902 101.175 138.622 101.846C144.7 107.502 145.947 122.08 142.827 122.544Z" fill="#FFBF9D"/>
<path d="M129.544 96.7258C129.544 96.7258 125.237 90.8227 122.014 88.4214C117.699 85.2064 112.649 84.2074 110.508 83.9165C106.038 83.3091 94.8109 84.9315 94.714 88.2464C94.6263 91.2474 106.019 89.0096 106.019 89.0096C106.019 89.0096 94.0266 89.3744 94.5853 93.0074C95.1441 96.64 108.221 93.2899 108.221 93.2899C108.221 93.2899 95.9079 93.9411 97.0769 97.5965C97.9601 100.359 109.975 97.9917 109.975 97.9917C109.975 97.9917 99.3959 98.6246 100.182 101.504C101.05 104.687 112.278 103.197 112.278 103.197C115.508 110.181 119.902 112.185 123.198 113.238C123.996 113.494 129.544 96.7258 129.544 96.7258Z" fill="#FFBF9D"/>
<path d="M110.158 88.6173C108.748 88.6093 107.321 88.5914 105.915 88.7088C104.508 88.8259 103.106 88.9927 101.717 89.24C98.3104 89.8474 96.2723 90.7607 96.4045 90.7178C99.5271 89.7082 104.554 89.2103 105.961 89.0931C107.364 88.976 108.761 88.7885 110.165 88.6704C110.2 88.6679 110.192 88.6176 110.158 88.6173Z" fill="#263238"/>
<path d="M110.676 93.6875C108.875 93.755 107.085 93.7563 105.286 93.9032C103.496 94.0498 101.811 94.3451 100.036 94.6146C99.899 94.6354 99.955 94.7019 100.093 94.6866C101.878 94.4885 103.543 94.4427 105.329 94.2654C107.11 94.0888 108.896 93.8414 110.681 93.7301C110.709 93.7288 110.703 93.6866 110.676 93.6875Z" fill="#263238"/>
<path d="M111.899 97.9592C109.141 97.9214 106.379 98.3924 103.682 98.9198C103.547 98.946 103.629 99.0241 103.768 99.0052C106.494 98.6344 108.629 98.3243 111.898 98.0552C111.949 98.051 111.957 97.9598 111.899 97.9592Z" fill="#263238"/>
<path d="M134.477 98.7598C135.666 99.5457 136.813 100.393 137.923 101.29C138.482 101.735 139.016 102.211 139.532 102.71C140.049 103.204 140.531 103.766 140.91 104.378C141.666 105.606 142.26 106.913 142.763 108.251C143.249 109.593 143.666 110.971 143.846 112.387C143.692 111.691 143.499 111.007 143.27 110.335C143.049 109.661 142.805 108.995 142.534 108.34C141.988 107.034 141.401 105.735 140.64 104.55C140.276 103.946 139.832 103.414 139.327 102.917C138.83 102.416 138.295 101.95 137.765 101.479C137.231 101.011 136.686 100.555 136.134 100.106C135.589 99.6487 135.031 99.2071 134.477 98.7598Z" fill="#263238"/>
<path d="M89.0425 36.0417C89.0425 36.0417 87.7273 46.5717 85.5657 48.9413C82.9708 51.7838 81.0876 51.3681 80.04 52.8337C80.0377 52.8337 80.0377 52.836 80.0377 52.836C78.99 51.3681 77.1068 51.7861 74.5097 48.9413C72.3481 46.5717 71.0352 36.0417 71.0352 36.0417C76.7312 33.2766 80.0377 30.1777 80.0377 30.1777C80.0377 30.1777 80.0377 30.1777 80.04 30.18C80.1414 30.275 83.4348 33.3208 89.0425 36.0417Z" fill="#24B24B"/>
<path opacity="0.2" d="M80.04 30.18V52.8337C80.0377 52.8337 80.0377 52.836 80.0377 52.836C78.99 51.3681 77.1068 51.7861 74.5097 48.9413C72.3481 46.5717 71.0352 36.0417 71.0352 36.0417C76.7312 33.2766 80.0377 30.1777 80.0377 30.1777C80.0377 30.1777 80.0377 30.1777 80.04 30.18Z" fill="black"/>
<path opacity="0.1" d="M89.0416 36.0414C89.0416 36.0414 87.7264 46.5714 85.5648 48.941C82.9699 51.7835 81.0867 51.3679 80.0391 52.8335V30.1797C80.1405 30.2747 83.4339 33.3205 89.0416 36.0414Z" fill="black"/>
<path d="M87.6431 36.8898C87.6431 36.8898 86.5324 45.7851 84.7065 47.7874C82.5126 50.1922 80.9206 49.8389 80.0354 51.0773C79.15 49.8389 77.5583 50.1922 75.3644 47.7874C73.5385 45.7848 72.4297 36.8898 72.4297 36.8898C77.2412 34.5531 80.0354 31.9355 80.0354 31.9355C80.0354 31.9355 82.8316 34.5531 87.6431 36.8898Z" fill="#24B24B"/>
<path opacity="0.1" d="M80.0361 31.9387V51.0747C80.0329 51.0747 80.0329 51.0779 80.0329 51.0779C79.1497 49.8395 77.5561 50.1915 75.3641 47.7883C73.5369 45.7851 72.4297 36.8891 72.4297 36.8891C77.2393 34.5531 80.0329 31.9355 80.0329 31.9355C80.0329 31.9355 80.0329 31.9355 80.0361 31.9387Z" fill="black"/>
<path d="M83.4488 39.8125H76.6328V45.9962H83.4488V39.8125Z" fill="white"/>
<path d="M82.7676 41.7214H82.0748V38.9601C82.0748 37.8392 81.1628 36.9275 80.0418 36.9275C78.9209 36.9275 78.0092 37.8395 78.0092 38.9601V41.7214H77.3164V38.9601C77.3164 37.4571 78.5391 36.2344 80.0422 36.2344C81.5452 36.2344 82.7679 37.4571 82.7679 38.9601V41.7214H82.7676Z" fill="white"/>
<path d="M80.2572 43.0086L80.4774 44.053H79.543L79.7631 43.0086C79.6316 42.9254 79.543 42.7804 79.543 42.6137C79.543 42.3532 79.7522 42.1465 80.0102 42.1465C80.2681 42.1465 80.4774 42.3532 80.4774 42.6137C80.4774 42.7804 80.3887 42.9254 80.2572 43.0086Z" fill="#37474F"/>
<path d="M71.1133 77.5633H80.0387V54.1973" stroke="#24B24B" stroke-width="0.36" stroke-miterlimit="10" stroke-dasharray="1.92 1.92"/>
<path d="M80.0375 54.7665C80.3366 54.7665 80.579 54.5241 80.579 54.225C80.579 53.926 80.3366 53.6836 80.0375 53.6836C79.7385 53.6836 79.4961 53.926 79.4961 54.225C79.4961 54.5241 79.7385 54.7665 80.0375 54.7665Z" fill="#24B24B"/>
<path d="M33.4556 39.9479H17.0352V18.8691H29.2272L33.4556 22.8855V39.9479Z" fill="#EBEBEB"/>
<path d="M29.2266 18.8691L33.455 22.8855H29.2266V18.8691Z" fill="#DBDBDB"/>
<path d="M18.636 22.9473H27.7656V22.4058H18.636V22.9473Z" fill="#DBDBDB"/>
<path d="M18.636 24.3145H27.7656V23.773H18.636V24.3145Z" fill="#DBDBDB"/>
<path d="M18.636 25.6797H27.7656V25.1382H18.636V25.6797Z" fill="#DBDBDB"/>
<path d="M18.6354 27.0469H32.0117V26.5058H18.6354V27.0469Z" fill="#DBDBDB"/>
<path d="M18.6354 28.4121H32.0117V27.8707H18.6354V28.4121Z" fill="#DBDBDB"/>
<path d="M18.6354 29.7773H32.0117V29.2359H18.6354V29.7773Z" fill="#DBDBDB"/>
<path d="M18.6354 31.1445H32.0117V30.6034H18.6354V31.1445Z" fill="#DBDBDB"/>
<path d="M18.6354 32.5098H32.0117V31.9683H18.6354V32.5098Z" fill="#DBDBDB"/>
<path d="M18.6354 33.8789H32.0117V33.3378H18.6354V33.8789Z" fill="#DBDBDB"/>
<path d="M18.6354 35.2441H32.0117V34.7027H18.6354V35.2441Z" fill="#DBDBDB"/>
<path d="M18.6354 36.6094H32.0117V36.0679H18.6354V36.6094Z" fill="#DBDBDB"/>
<path d="M18.6354 37.9766H32.0117V37.4354H18.6354V37.9766Z" fill="#DBDBDB"/>
<path d="M34.5656 41.864C36.0335 41.2521 36.7274 39.5659 36.1154 38.098C35.5034 36.6301 33.8173 35.9362 32.3494 36.5481C30.8814 37.1601 30.1875 38.8463 30.7995 40.3142C31.4115 41.7821 33.0976 42.476 34.5656 41.864Z" fill="#263238"/>
<path d="M34.8869 38.4805H32.0312V41.0712H34.8869V38.4805Z" fill="white"/>
<path d="M34.6002 39.2793H34.31V38.1225C34.31 37.6528 33.9279 37.271 33.4582 37.271C32.9884 37.271 32.6066 37.6531 32.6066 38.1225V39.2793H32.3164V38.1225C32.3164 37.4928 32.8287 36.9805 33.4585 36.9805C34.0882 36.9805 34.6006 37.4928 34.6006 38.1225L34.6002 39.2793Z" fill="white"/>
<path d="M33.5789 39.808L33.6986 40.375H33.1914L33.3111 39.808C33.2397 39.7629 33.1914 39.6842 33.1914 39.5936C33.1914 39.4522 33.305 39.3398 33.4452 39.3398C33.585 39.3398 33.6989 39.4522 33.6989 39.5936C33.6986 39.6838 33.6503 39.7626 33.5789 39.808Z" fill="#263238"/>
<path d="M44.5873 50.9665V31.5723H35.2695" stroke="#24B24B" stroke-width="0.36" stroke-miterlimit="10" stroke-dasharray="1.92 1.92"/>
<path d="M35.2953 32.1141C35.5944 32.1141 35.8368 31.8717 35.8368 31.5727C35.8368 31.2737 35.5944 31.0312 35.2953 31.0312C34.9963 31.0312 34.7539 31.2737 34.7539 31.5727C34.7539 31.8717 34.9963 32.1141 35.2953 32.1141Z" fill="#24B24B"/>
<path d="M44.5898 104.994V122.029H53.9073" stroke="#24B24B" stroke-width="0.36" stroke-miterlimit="10" stroke-dasharray="1.92 1.92"/>
<path d="M53.8813 122.569C54.1803 122.569 54.4227 122.327 54.4227 122.028C54.4227 121.729 54.1803 121.486 53.8813 121.486C53.5823 121.486 53.3398 121.729 53.3398 122.028C53.3398 122.327 53.5823 122.569 53.8813 122.569Z" fill="#24B24B"/>
<path d="M76.2208 118.52H55.7734V130.858H76.2208V118.52Z" fill="#455A64"/>
<path d="M63.0931 120.07H57.3789V127.378H63.0931V120.07Z" fill="white"/>
<path d="M60.2364 124.348C60.984 124.348 61.59 123.742 61.59 122.994C61.59 122.247 60.984 121.641 60.2364 121.641C59.4888 121.641 58.8828 122.247 58.8828 122.994C58.8828 123.742 59.4888 124.348 60.2364 124.348Z" fill="#455A64"/>
<path d="M63.0931 127.378H57.3789C57.3789 127.378 57.5347 126.016 57.8131 125.61C58.0915 125.204 58.8285 124.746 60.2359 124.746C61.6439 124.746 62.3802 125.204 62.6586 125.61C62.9367 126.016 63.0931 127.378 63.0931 127.378Z" fill="#455A64"/>
<path d="M73.9783 120.07H64.5703V120.426H73.9783V120.07Z" fill="white"/>
<path d="M73.9783 123.547H64.5703V123.902H73.9783V123.547Z" fill="white"/>
<path d="M73.9783 124.57H64.5703V124.926H73.9783V124.57Z" fill="white"/>
<path d="M73.9783 125.592H64.5703V125.947H73.9783V125.592Z" fill="white"/>
<path d="M73.9783 126.615H64.5703V126.97H73.9783V126.615Z" fill="white"/>
<path d="M73.9783 127.639H64.5703V127.994H73.9783V127.639Z" fill="white"/>
<path d="M72.1892 121.096H64.5703V121.451H72.1892V121.096Z" fill="white"/>
<path d="M77.3273 133.514C78.7952 132.902 79.4891 131.216 78.8771 129.748C78.2651 128.28 76.579 127.587 75.1111 128.199C73.6431 128.811 72.9492 130.497 73.5612 131.965C74.1732 133.433 75.8593 134.126 77.3273 133.514Z" fill="#263238"/>
<path d="M77.6447 130.131H74.7891V132.722H77.6447V130.131Z" fill="white"/>
<path d="M77.3581 130.93H77.0678V129.773C77.0678 129.303 76.6857 128.921 76.216 128.921C75.7462 128.921 75.3645 129.303 75.3645 129.773V130.93H75.0742V129.773C75.0742 129.143 75.5865 128.631 76.2163 128.631C76.8461 128.631 77.3584 129.143 77.3584 129.773V130.93H77.3581Z" fill="white"/>
<path d="M76.3367 131.456L76.4564 132.023H75.9492L76.0689 131.456C75.9975 131.411 75.9492 131.333 75.9492 131.242C75.9492 131.101 76.0628 130.988 76.203 130.988C76.3428 130.988 76.4567 131.101 76.4567 131.242C76.4561 131.332 76.4081 131.411 76.3367 131.456Z" fill="#263238"/>
<path d="M147.196 142.08L130.397 142.157L113.599 142.186L80.0022 142.239L46.4054 142.186L29.607 142.158L12.8086 142.08L29.607 142.001L46.4054 141.973L80.0022 141.92L113.599 141.973L130.397 142.002L147.196 142.08Z" fill="#263238"/>
</svg>
